<svg xmlns="http://www.w3.org/2000/svg" xmlns:xlink="http://www.w3.org/1999/xlink" width="250" zoomAndPan="magnify" viewBox="0 0 187.5 112.499997" height="150" preserveAspectRatio="xMidYMid meet" version="1.0"><defs><g/><clipPath id="ac521fcaaf"><path d="M 46 5.011719 L 91 5.011719 L 91 73 L 46 73 Z M 46 5.011719 " clip-rule="nonzero"/></clipPath><clipPath id="a0567e6099"><path d="M 102 5.011719 L 147 5.011719 L 147 73 L 102 73 Z M 102 5.011719 " clip-rule="nonzero"/></clipPath><clipPath id="8030e0234d"><path d="M 29.863281 25.824219 L 80.414062 25.824219 L 80.414062 93.351562 L 29.863281 93.351562 Z M 29.863281 25.824219 " clip-rule="nonzero"/></clipPath><clipPath id="11e4674e9b"><path d="M 112.5 25.824219 L 163.078125 25.824219 L 163.078125 93.351562 L 112.5 93.351562 Z M 112.5 25.824219 " clip-rule="nonzero"/></clipPath><clipPath id="a9e91d3f26"><path d="M 84.425781 26.40625 L 108.382812 26.40625 L 108.382812 61.59375 L 84.425781 61.59375 Z M 84.425781 26.40625 " clip-rule="nonzero"/></clipPath><clipPath id="eae36924ee"><path d="M 72.410156 103.03125 L 103.875 103.03125 L 103.875 105 L 72.410156 105 Z M 72.410156 103.03125 " clip-rule="nonzero"/></clipPath><clipPath id="a689341858"><path d="M 72.410156 104.359375 C 93.796875 104.210938 103.675781 103.476562 103.675781 103.523438 C 103.675781 103.574219 93.796875 104.457031 88.683594 104.605469 C 83.375 104.753906 72.410156 104.359375 72.410156 104.359375 " clip-rule="nonzero"/></clipPath><clipPath id="928bba4d79"><path d="M 108.789062 101.410156 L 127.960938 101.410156 L 127.960938 103.867188 L 108.789062 103.867188 Z M 108.789062 101.410156 " clip-rule="nonzero"/></clipPath><clipPath id="3214250ce2"><path d="M 108.789062 103.082031 C 122.011719 102.835938 127.519531 101.851562 127.519531 101.902344 C 127.519531 101.953125 122.011719 103.082031 119.0625 103.277344 C 115.820312 103.523438 108.789062 103.082031 108.789062 103.082031 " clip-rule="nonzero"/></clipPath><clipPath id="be038fb569"><path d="M 130.125 99 L 133 99 L 133 101.507812 L 130.125 101.507812 Z M 130.125 99 " clip-rule="nonzero"/></clipPath><clipPath id="4e22301a8e"><path d="M 130.125 101.261719 C 136.023438 96.59375 130.125 101.261719 130.125 101.261719 " clip-rule="nonzero"/></clipPath><clipPath id="c5f2961350"><path d="M 130.273438 100 L 133 100 L 133 101.753906 L 130.273438 101.753906 Z M 130.273438 100 " clip-rule="nonzero"/></clipPath><clipPath id="23a5d28878"><path d="M 130.273438 101.410156 C 134.941406 98.804688 130.273438 101.410156 130.273438 101.410156 " clip-rule="nonzero"/></clipPath><clipPath id="a68ea19ff6"><path d="M 130.222656 98 L 133 98 L 133 100.96875 L 130.222656 100.96875 Z M 130.222656 98 " clip-rule="nonzero"/></clipPath><clipPath id="8fbf43850b"><path d="M 130.222656 100.871094 C 135.1875 96.542969 130.222656 100.871094 130.222656 100.871094 " clip-rule="nonzero"/></clipPath><clipPath id="4e9ed73052"><path d="M 130.417969 99 L 135 99 L 135 101 L 130.417969 101 Z M 130.417969 99 " clip-rule="nonzero"/></clipPath><clipPath id="c8e68b4ae7"><path d="M 130.417969 100.820312 C 135.039062 98.214844 134.15625 99.050781 133.566406 99.445312 C 132.730469 99.984375 130.417969 100.820312 130.417969 100.820312 " clip-rule="nonzero"/></clipPath><clipPath id="8b45f32d05"><path d="M 72 103.328125 L 104.511719 103.328125 L 104.511719 104.3125 L 72 104.3125 Z M 72 103.328125 " clip-rule="nonzero"/></clipPath><clipPath id="c3bdc4978d"><path d="M 104.265625 104.066406 C 64.203125 104.3125 72.019531 103.917969 77.132812 103.820312 C 84.503906 103.671875 104.265625 104.066406 104.265625 104.066406 " clip-rule="nonzero"/></clipPath><clipPath id="797f0458ab"><path d="M 108.9375 102.246094 L 127 102.246094 L 127 104 L 108.9375 104 Z M 108.9375 102.246094 " clip-rule="nonzero"/></clipPath><clipPath id="739e56fff9"><path d="M 108.9375 103.671875 C 122.210938 103.425781 126.734375 102.6875 126.734375 102.738281 C 126.734375 102.789062 122.257812 103.621094 119.652344 103.820312 C 116.457031 104.015625 108.9375 103.671875 108.9375 103.671875 " clip-rule="nonzero"/></clipPath><clipPath id="356f1d6742"><path d="M 72.558594 103.277344 L 102.546875 103.277344 L 102.546875 105 L 72.558594 105 Z M 72.558594 103.277344 " clip-rule="nonzero"/></clipPath><clipPath id="aa8a65d884"><path d="M 72.558594 104.507812 C 94.289062 104.359375 102.351562 103.425781 102.398438 103.769531 C 102.449219 103.867188 101.613281 104.210938 100.824219 104.359375 C 98.808594 104.753906 93.796875 104.703125 89.714844 104.753906 C 84.601562 104.800781 72.558594 104.507812 72.558594 104.507812 " clip-rule="nonzero"/></clipPath><clipPath id="3eebd99aaf"><path d="M 108.496094 102.441406 L 130 102.441406 L 130 104 L 108.496094 104 Z M 108.496094 102.441406 " clip-rule="nonzero"/></clipPath><clipPath id="40361f24c9"><path d="M 108.496094 103.671875 C 124.175781 103.328125 129.828125 102.441406 129.828125 102.441406 C 129.828125 102.441406 121.816406 103.722656 118.082031 103.917969 C 114.738281 104.066406 108.496094 103.671875 108.496094 103.671875 " clip-rule="nonzero"/></clipPath><clipPath id="e370171f89"><path d="M 106.675781 102.394531 L 125.355469 102.394531 L 125.355469 104.359375 L 106.675781 104.359375 Z M 106.675781 102.394531 " clip-rule="nonzero"/></clipPath><clipPath id="be626cc40d"><path d="M 106.675781 103.96875 C 119.996094 103.671875 125.207031 102.835938 125.207031 102.886719 C 125.207031 102.933594 119.996094 103.917969 117.097656 104.113281 C 113.851562 104.359375 106.675781 103.96875 106.675781 103.96875 " clip-rule="nonzero"/></clipPath><clipPath id="8f05ff8590"><path d="M 130.417969 98 L 136 98 L 136 101 L 130.417969 101 Z M 130.417969 98 " clip-rule="nonzero"/></clipPath><clipPath id="8e25d632b3"><path d="M 130.417969 100.96875 C 136.367188 97.183594 135.53125 98.019531 134.894531 98.511719 C 133.859375 99.296875 130.417969 100.96875 130.417969 100.96875 " clip-rule="nonzero"/></clipPath><clipPath id="e1c93132fb"><path d="M 130.371094 100 L 132 100 L 132 101.164062 L 130.371094 101.164062 Z M 130.371094 100 " clip-rule="nonzero"/></clipPath><clipPath id="6b332f2872"><path d="M 130.371094 101.164062 C 133.566406 98.707031 130.371094 101.164062 130.371094 101.164062 " clip-rule="nonzero"/></clipPath><clipPath id="27cdd7fa8d"><path d="M 130.664062 100.132812 L 132 100.132812 L 132 101.117188 L 130.664062 101.117188 Z M 130.664062 100.132812 " clip-rule="nonzero"/></clipPath><clipPath id="43119c9c21"><path d="M 130.664062 101.117188 C 133.566406 100.132812 130.664062 101.117188 130.664062 101.117188 " clip-rule="nonzero"/></clipPath><clipPath id="c54f3ba3da"><path d="M 130.175781 100 L 133 100 L 133 101.65625 L 130.175781 101.65625 Z M 130.175781 100 " clip-rule="nonzero"/></clipPath><clipPath id="3da09113ae"><path d="M 130.175781 101.460938 C 134.992188 98.214844 130.175781 101.460938 130.175781 101.460938 " clip-rule="nonzero"/></clipPath><clipPath id="0a02ab6106"><path d="M 130.8125 99 L 133 99 L 133 101.261719 L 130.8125 101.261719 Z M 130.8125 99 " clip-rule="nonzero"/></clipPath><clipPath id="22b174f866"><path d="M 130.8125 101.214844 C 134.15625 96.839844 130.8125 101.214844 130.8125 101.214844 " clip-rule="nonzero"/></clipPath><clipPath id="eab09c9fd6"><path d="M 130.664062 99 L 133 99 L 133 101.605469 L 130.664062 101.605469 Z M 130.664062 99 " clip-rule="nonzero"/></clipPath><clipPath id="dcae7d4fc9"><path d="M 130.664062 101.261719 C 135.238281 98.167969 130.664062 101.261719 130.664062 101.261719 " clip-rule="nonzero"/></clipPath><clipPath id="6a86ea2899"><path d="M 131.007812 99 L 134 99 L 134 101.460938 L 131.007812 101.460938 Z M 131.007812 99 " clip-rule="nonzero"/></clipPath><clipPath id="08dd6b9612"><path d="M 131.007812 101.066406 C 137.105469 96.542969 131.007812 101.066406 131.007812 101.066406 " clip-rule="nonzero"/></clipPath><clipPath id="692c1ee425"><path d="M 130.714844 99 L 133 99 L 133 101 L 130.714844 101 Z M 130.714844 99 " clip-rule="nonzero"/></clipPath><clipPath id="b1b524ba42"><path d="M 130.714844 100.96875 C 135.484375 98.066406 130.714844 100.96875 130.714844 100.96875 " clip-rule="nonzero"/></clipPath><clipPath id="1312a97ade"><path d="M 130.8125 99 L 133 99 L 133 100.820312 L 130.8125 100.820312 Z M 130.8125 99 " clip-rule="nonzero"/></clipPath><clipPath id="fde6409196"><path d="M 130.8125 100.722656 C 135.386719 98.363281 130.8125 100.722656 130.8125 100.722656 " clip-rule="nonzero"/></clipPath></defs><g clip-path="url(#ac521fcaaf)"><path fill="#5271ff" d="M 71.402344 68.867188 C 76.214844 68.867188 83.089844 69.480469 90.136719 72.15625 C 86.050781 69.925781 78.253906 66.617188 67.949219 66.617188 C 66.621094 66.617188 65.269531 66.671875 63.933594 66.78125 L 63.683594 66.800781 L 49.75 8.765625 L 50.046875 8.710938 C 53.355469 8.070312 56.695312 7.742188 59.980469 7.742188 C 74.289062 7.742188 84.992188 13.886719 90.050781 17.5 C 78.65625 6.714844 62.757812 5.011719 53.863281 5.011719 C 49.964844 5.011719 47.144531 5.332031 46.238281 5.449219 L 61.023438 69.824219 C 62.085938 69.605469 66.046875 68.867188 71.402344 68.867188 " fill-opacity="1" fill-rule="nonzero"/></g><g clip-path="url(#a0567e6099)"><path fill="#5271ff" d="M 121.539062 68.867188 C 116.726562 68.867188 109.847656 69.480469 102.804688 72.15625 C 106.886719 69.925781 114.683594 66.617188 124.988281 66.617188 C 126.320312 66.617188 127.671875 66.671875 129.007812 66.78125 L 129.257812 66.800781 L 143.1875 8.765625 L 142.890625 8.710938 C 139.585938 8.070312 136.246094 7.742188 132.960938 7.742188 C 118.652344 7.742188 107.949219 13.886719 102.890625 17.5 C 114.285156 6.714844 130.183594 5.011719 139.078125 5.011719 C 142.976562 5.011719 145.796875 5.332031 146.699219 5.449219 L 131.917969 69.824219 C 130.855469 69.605469 126.894531 68.867188 121.539062 68.867188 " fill-opacity="1" fill-rule="nonzero"/></g><path fill="#8c52ff" d="M 55.449219 76.898438 C 62.097656 74.324219 68.988281 73.019531 75.9375 73.019531 C 80.417969 73.019531 84.171875 73.574219 86.859375 74.15625 C 82.328125 72.617188 77.152344 71.835938 71.417969 71.835938 C 63.984375 71.835938 58.296875 73.195312 58.238281 73.210938 L 57.960938 73.277344 L 57.890625 73 L 43.558594 16.125 L 43.847656 16.058594 C 44.910156 15.816406 46.335938 15.621094 47.59375 15.445312 L 47.929688 15.402344 L 47.214844 12.277344 C 43.726562 12.445312 40.847656 12.816406 39.925781 12.945312 L 55.449219 76.898438 " fill-opacity="1" fill-rule="nonzero"/><path fill="#8c52ff" d="M 137.492188 76.898438 C 130.84375 74.324219 123.953125 73.019531 117.003906 73.019531 C 112.523438 73.019531 108.769531 73.574219 106.082031 74.15625 C 110.613281 72.617188 115.789062 71.835938 121.523438 71.835938 C 128.957031 71.835938 134.644531 73.195312 134.703125 73.210938 L 134.980469 73.277344 L 135.050781 73 L 149.382812 16.125 L 149.09375 16.058594 C 148.03125 15.816406 146.605469 15.621094 145.347656 15.445312 L 145.011719 15.402344 L 145.726562 12.277344 C 149.214844 12.445312 152.09375 12.816406 153.015625 12.945312 L 137.492188 76.898438 " fill-opacity="1" fill-rule="nonzero"/><path fill="#5271ff" d="M 36.992188 29.648438 L 50.757812 84.65625 C 65.25 77.671875 76.832031 76.199219 84.015625 76.199219 C 84.785156 76.199219 85.496094 76.214844 86.152344 76.246094 C 83.644531 75.84375 81.046875 75.640625 78.378906 75.640625 C 64.824219 75.640625 53.695312 80.898438 53.585938 80.953125 L 53.265625 81.105469 L 38.445312 23.996094 L 38.730469 23.925781 C 39.683594 23.699219 40.679688 23.5 41.839844 23.296875 L 41.21875 20.730469 L 41.074219 20.136719 C 37.859375 20.332031 35.570312 20.691406 34.78125 20.828125 L 36.003906 25.707031 L 36.992188 29.648438 " fill-opacity="1" fill-rule="nonzero"/><path fill="#5271ff" d="M 155.953125 29.648438 L 142.179688 84.65625 C 127.691406 77.671875 116.109375 76.199219 108.925781 76.199219 C 108.15625 76.199219 107.445312 76.214844 106.789062 76.246094 C 109.296875 75.84375 111.894531 75.640625 114.5625 75.640625 C 128.117188 75.640625 139.246094 80.898438 139.355469 80.953125 L 139.671875 81.105469 L 154.496094 23.996094 L 154.210938 23.925781 C 153.257812 23.699219 152.261719 23.5 151.101562 23.296875 L 151.722656 20.730469 L 151.867188 20.136719 C 155.082031 20.332031 157.371094 20.691406 158.160156 20.828125 L 156.9375 25.707031 L 155.953125 29.648438 " fill-opacity="1" fill-rule="nonzero"/><g clip-path="url(#8030e0234d)"><path fill="#8c52ff" d="M 29.863281 26.601562 L 46.660156 93.363281 C 47.589844 92.625 48.582031 91.890625 49.613281 91.167969 C 60.695312 83.433594 73.613281 79.84375 80.292969 78.394531 C 65.402344 79.8125 52.847656 86.332031 49.09375 88.457031 L 48.765625 88.644531 L 33.523438 29.765625 L 33.8125 29.695312 C 34.546875 29.523438 35.316406 29.363281 36.277344 29.1875 L 35.5 26.082031 L 35.46875 25.953125 C 32.617188 26.152344 30.59375 26.472656 29.863281 26.601562 " fill-opacity="1" fill-rule="nonzero"/></g><g clip-path="url(#11e4674e9b)"><path fill="#8c52ff" d="M 163.078125 26.601562 L 146.28125 93.363281 C 145.351562 92.625 144.359375 91.890625 143.328125 91.167969 C 132.246094 83.433594 119.328125 79.84375 112.648438 78.394531 C 127.539062 79.8125 140.089844 86.332031 143.847656 88.457031 L 144.175781 88.644531 L 159.417969 29.765625 L 159.128906 29.695312 C 158.394531 29.523438 157.625 29.363281 156.660156 29.1875 L 157.4375 26.082031 L 157.472656 25.953125 C 160.324219 26.152344 162.347656 26.472656 163.078125 26.601562 " fill-opacity="1" fill-rule="nonzero"/></g><path fill="#5271ff" d="M 96.917969 45.941406 C 96.917969 46.085938 96.867188 46.210938 96.765625 46.3125 C 96.667969 46.414062 96.546875 46.464844 96.402344 46.464844 C 96.261719 46.464844 96.140625 46.414062 96.039062 46.3125 C 95.9375 46.210938 95.886719 46.085938 95.886719 45.941406 C 95.886719 45.796875 95.9375 45.675781 96.039062 45.574219 C 96.140625 45.472656 96.261719 45.421875 96.402344 45.421875 C 96.546875 45.421875 96.667969 45.472656 96.765625 45.574219 C 96.867188 45.675781 96.917969 45.796875 96.917969 45.941406 Z M 96.917969 45.941406 " fill-opacity="1" fill-rule="nonzero"/><path fill="#5271ff" d="M 96.917969 48.007812 C 96.917969 48.152344 96.867188 48.273438 96.765625 48.375 C 96.667969 48.480469 96.546875 48.53125 96.402344 48.53125 C 96.261719 48.53125 96.140625 48.480469 96.039062 48.375 C 95.9375 48.273438 95.886719 48.152344 95.886719 48.007812 C 95.886719 47.863281 95.9375 47.738281 96.039062 47.636719 C 96.140625 47.535156 96.261719 47.484375 96.402344 47.484375 C 96.546875 47.484375 96.667969 47.535156 96.765625 47.636719 C 96.867188 47.738281 96.917969 47.863281 96.917969 48.007812 Z M 96.917969 48.007812 " fill-opacity="1" fill-rule="nonzero"/><g clip-path="url(#a9e91d3f26)"><path fill="#5271ff" d="M 100.019531 42.769531 L 102.246094 40.710938 L 103.3125 39.730469 C 105.242188 37.964844 106.199219 35.574219 106.238281 32.414062 L 106.238281 29.753906 L 107.855469 29.753906 C 108 29.757812 108.121094 29.707031 108.226562 29.605469 C 108.332031 29.503906 108.382812 29.378906 108.382812 29.230469 L 108.382812 26.972656 C 108.382812 26.828125 108.332031 26.703125 108.230469 26.601562 C 108.128906 26.5 108.007812 26.449219 107.867188 26.449219 L 84.949219 26.449219 C 84.804688 26.449219 84.683594 26.5 84.582031 26.601562 C 84.484375 26.703125 84.433594 26.828125 84.433594 26.972656 L 84.433594 29.230469 C 84.433594 29.375 84.484375 29.5 84.582031 29.601562 C 84.683594 29.703125 84.804688 29.753906 84.949219 29.753906 L 86.5625 29.753906 L 86.5625 32.402344 C 86.601562 35.558594 87.5625 37.949219 89.492188 39.707031 L 90.730469 40.851562 L 92.789062 42.757812 C 93.246094 43.105469 93.496094 43.566406 93.539062 44.140625 C 93.480469 44.734375 93.214844 45.207031 92.742188 45.558594 L 89.484375 48.574219 C 87.554688 50.335938 86.597656 52.726562 86.554688 55.886719 L 86.554688 58.195312 L 84.949219 58.195312 C 84.804688 58.195312 84.679688 58.246094 84.578125 58.351562 C 84.476562 58.457031 84.429688 58.582031 84.433594 58.730469 L 84.433594 60.992188 C 84.433594 61.132812 84.484375 61.257812 84.582031 61.359375 C 84.683594 61.460938 84.804688 61.511719 84.949219 61.511719 L 107.855469 61.511719 C 108 61.515625 108.125 61.464844 108.230469 61.359375 C 108.335938 61.253906 108.386719 61.128906 108.382812 60.976562 L 108.382812 58.730469 C 108.382812 58.585938 108.332031 58.460938 108.230469 58.359375 C 108.128906 58.257812 108.007812 58.207031 107.867188 58.207031 L 106.238281 58.207031 L 106.238281 55.878906 C 106.199219 52.726562 105.242188 50.335938 103.3125 48.574219 L 100.050781 45.554688 C 99.582031 45.207031 99.320312 44.738281 99.265625 44.148438 C 99.3125 43.578125 99.5625 43.117188 100.019531 42.769531 Z M 98.234375 44.15625 C 98.28125 45.054688 98.65625 45.78125 99.359375 46.332031 L 102.609375 49.347656 C 104.339844 50.929688 105.160156 53.007812 105.195312 55.886719 L 105.195312 58.195312 L 87.59375 58.195312 L 87.59375 55.890625 C 87.632812 53.007812 88.453125 50.929688 90.183594 49.347656 L 93.441406 46.335938 C 94.148438 45.78125 94.527344 45.046875 94.578125 44.140625 C 94.53125 43.261719 94.167969 42.554688 93.480469 42.015625 L 91.417969 40.109375 L 90.179688 38.964844 C 88.453125 37.386719 87.632812 35.304688 87.59375 32.425781 L 87.59375 29.753906 L 105.207031 29.753906 L 105.207031 32.402344 C 105.171875 35.289062 104.351562 37.367188 102.621094 38.949219 C 102.261719 39.273438 101.90625 39.605469 101.550781 39.9375 L 99.308594 42.015625 C 98.632812 42.566406 98.277344 43.277344 98.234375 44.15625 Z M 98.234375 44.15625 " fill-opacity="1" fill-rule="nonzero"/></g><path fill="#5271ff" d="M 103.191406 36.582031 C 103.320312 36.359375 103.292969 36.152344 103.117188 35.964844 C 102.941406 35.769531 102.738281 35.738281 102.511719 35.859375 C 100.476562 36.910156 99.714844 37.300781 96.558594 36.277344 C 95.550781 35.945312 94.511719 35.8125 93.453125 35.886719 C 92.390625 35.957031 91.382812 36.226562 90.425781 36.695312 C 90.273438 36.765625 90.179688 36.882812 90.144531 37.046875 C 90.105469 37.210938 90.136719 37.359375 90.238281 37.488281 C 90.4375 37.726562 94.921875 42.085938 94.964844 42.085938 C 95.304688 42.484375 95.496094 42.945312 95.542969 43.46875 C 95.570312 43.691406 95.667969 43.871094 95.839844 44.011719 C 96.007812 44.152344 96.203125 44.214844 96.421875 44.195312 C 96.632812 44.21875 96.816406 44.160156 96.980469 44.023438 C 97.140625 43.886719 97.230469 43.714844 97.25 43.503906 C 97.332031 42.8125 97.632812 42.238281 98.15625 41.785156 C 98.226562 41.722656 98.515625 41.441406 98.90625 41.0625 C 99.871094 40.125 101.480469 38.554688 101.921875 38.164062 C 102.429688 37.707031 102.851562 37.179688 103.191406 36.582031 Z M 103.191406 36.582031 " fill-opacity="1" fill-rule="nonzero"/><path fill="#5271ff" d="M 89.300781 56.523438 C 89.300781 56.671875 89.347656 56.796875 89.453125 56.902344 C 89.554688 57.007812 89.679688 57.0625 89.824219 57.058594 L 102.984375 57.058594 C 103.125 57.058594 103.246094 57.007812 103.347656 56.90625 C 103.449219 56.804688 103.5 56.679688 103.5 56.535156 C 103.488281 56.070312 103.433594 55.609375 103.335938 55.15625 C 103.234375 54.703125 103.09375 54.261719 102.910156 53.835938 C 102.726562 53.410156 102.503906 53.003906 102.246094 52.621094 C 101.984375 52.238281 101.691406 51.886719 101.359375 51.558594 C 101.03125 51.234375 100.675781 50.945312 100.292969 50.691406 C 99.910156 50.433594 99.503906 50.21875 99.078125 50.046875 C 98.652344 49.871094 98.214844 49.738281 97.765625 49.648438 C 97.316406 49.558594 96.859375 49.511719 96.402344 49.511719 C 95.941406 49.511719 95.488281 49.558594 95.035156 49.648438 C 94.585938 49.738281 94.148438 49.871094 93.722656 50.046875 C 93.296875 50.21875 92.894531 50.433594 92.507812 50.691406 C 92.125 50.945312 91.769531 51.234375 91.441406 51.558594 C 91.113281 51.886719 90.816406 52.238281 90.558594 52.621094 C 90.296875 53.003906 90.074219 53.410156 89.890625 53.835938 C 89.707031 54.261719 89.566406 54.703125 89.46875 55.15625 C 89.367188 55.609375 89.3125 56.070312 89.300781 56.535156 Z M 89.300781 56.523438 " fill-opacity="1" fill-rule="nonzero"/><g fill="#5271ff" fill-opacity="1"><g transform="translate(66.158224, 99.644881)"><g><path d="M 10.289062 -14.324219 C 10.355469 -14.253906 10.472656 -14.253906 10.542969 -14.324219 C 11.242188 -15.070312 11.570312 -16.1875 11.335938 -17.003906 C 11.335938 -17.027344 11.3125 -17.050781 11.3125 -17.074219 C 11.3125 -17.097656 11.289062 -17.144531 11.289062 -17.167969 C 11.082031 -17.707031 10.613281 -18.03125 10.007812 -18.078125 C 9.144531 -18.148438 7.535156 -17.519531 6.203125 -16.609375 C 5.25 -15.957031 3.617188 -14.554688 3.453125 -12.808594 C 3.40625 -12.222656 3.570312 -11.734375 3.941406 -11.335938 C 4.316406 -10.941406 4.828125 -10.707031 5.320312 -10.566406 C 4.292969 -10.21875 3.476562 -9.449219 2.730469 -8.722656 L 2.589844 -8.609375 C 1.167969 -7.230469 0.140625 -5.320312 0.0234375 -3.800781 C -0.0703125 -2.402344 0.1875 -1.351562 0.792969 -0.699219 C 1.328125 -0.117188 2.144531 0.164062 3.242188 0.164062 C 5.203125 0.164062 7.605469 -1.375 10.613281 -4.546875 C 10.683594 -4.617188 10.660156 -4.734375 10.589844 -4.78125 C 10.542969 -4.851562 10.425781 -4.851562 10.355469 -4.78125 C 7.558594 -1.820312 5.226562 -0.28125 3.429688 -0.1875 C 3.429688 -0.1875 2.871094 -0.234375 2.425781 -0.792969 C 1.914062 -1.445312 1.726562 -2.425781 1.867188 -3.753906 C 2.097656 -5.667969 3.21875 -7.230469 4.128906 -8.210938 C 5.179688 -9.355469 6.367188 -10.148438 7 -10.355469 L 7.023438 -10.355469 L 7.023438 -10.378906 L 7.042969 -10.378906 C 7.042969 -10.402344 7.066406 -10.402344 7.066406 -10.402344 C 7.066406 -10.425781 7.089844 -10.425781 7.089844 -10.425781 L 7.089844 -10.472656 C 7.089844 -10.472656 7.113281 -10.472656 7.113281 -10.496094 L 7.113281 -10.542969 L 7.089844 -10.566406 L 7.089844 -10.589844 C 7.089844 -10.613281 7.089844 -10.613281 7.066406 -10.613281 L 7.066406 -10.636719 C 7.042969 -10.636719 7.042969 -10.636719 7.042969 -10.660156 L 7.023438 -10.660156 L 7 -10.683594 L 6.976562 -10.683594 C 6.71875 -10.730469 6.484375 -10.753906 6.25 -10.730469 C 6.042969 -10.753906 5.785156 -10.800781 5.527344 -10.871094 C 5.132812 -11.011719 4.875 -11.265625 4.804688 -11.617188 C 4.640625 -12.339844 5.203125 -13.4375 6.414062 -14.695312 C 8.1875 -16.515625 10.125 -17.261719 10.777344 -17.097656 C 10.917969 -17.050781 10.964844 -17.003906 10.988281 -16.9375 C 11.195312 -16.234375 10.917969 -15.234375 10.289062 -14.554688 C 10.21875 -14.484375 10.21875 -14.394531 10.289062 -14.324219 Z M 10.289062 -14.324219 "/></g></g></g><g fill="#5271ff" fill-opacity="1"><g transform="translate(76.420272, 99.644881)"><g><path d="M 6.976562 -2.261719 C 7.511719 -3.429688 7.859375 -4.617188 7.859375 -4.617188 C 7.882812 -4.710938 7.839844 -4.804688 7.746094 -4.828125 C 7.652344 -4.851562 7.558594 -4.804688 7.535156 -4.710938 C 7.324219 -4.011719 6.859375 -2.683594 6.273438 -1.632812 C 6.203125 -1.5625 5.878906 -1.121094 5.480469 -1.121094 C 4.386719 -1.121094 3.382812 -1.820312 2.660156 -3.078125 L 2.589844 -3.21875 C 4.175781 -6.089844 4.921875 -8.609375 4.921875 -8.632812 C 4.945312 -8.722656 4.898438 -8.816406 4.804688 -8.839844 C 4.710938 -8.886719 4.617188 -8.816406 4.59375 -8.722656 C 4.59375 -8.699219 3.894531 -6.320312 2.402344 -3.570312 C 1.820312 -4.757812 1.492188 -6.296875 1.46875 -7.929688 C 1.46875 -8.117188 1.375 -8.28125 1.214844 -8.398438 C 1.027344 -8.492188 0.816406 -8.492188 0.652344 -8.375 L 0.1875 -8.117188 C -0.304688 -7.816406 -0.582031 -7.277344 -0.488281 -6.695312 C -0.328125 -5.691406 0.09375 -3.753906 1.097656 -2.144531 C 1.191406 -2.03125 1.257812 -1.914062 1.328125 -1.796875 C 0.652344 -0.722656 -0.164062 0.328125 -1.097656 1.28125 C -1.167969 1.351562 -1.167969 1.46875 -1.097656 1.539062 C -1.050781 1.5625 -1.027344 1.585938 -0.980469 1.585938 C -0.933594 1.585938 -0.886719 1.5625 -0.839844 1.515625 C 0.0703125 0.582031 0.863281 -0.464844 1.5625 -1.515625 C 2.449219 -0.398438 3.523438 0.164062 4.6875 0.164062 C 5.457031 0.164062 6.226562 -0.652344 6.976562 -2.261719 Z M 6.976562 -2.261719 "/></g></g></g><g fill="#5271ff" fill-opacity="1"><g transform="translate(83.930225, 99.644881)"><g><path d="M 11.453125 -4.78125 C 9.703125 -3.007812 7.535156 -2.960938 5.433594 -2.914062 C 5.132812 -2.914062 4.828125 -2.894531 4.527344 -2.894531 C 6.203125 -7.183594 7.722656 -14.347656 8.257812 -16.890625 C 8.28125 -17.003906 8.210938 -17.144531 8.046875 -17.285156 C 7.792969 -17.496094 7.113281 -17.867188 6.789062 -17.753906 C 6.695312 -17.730469 6.625 -17.636719 6.601562 -17.542969 C 5.367188 -10.800781 3.800781 -5.367188 2.730469 -2.683594 C 1.65625 -2.425781 0.746094 -1.914062 0.140625 -0.746094 C 0.0234375 -0.535156 -0.0234375 -0.304688 0 -0.09375 L 0 -0.0234375 C 0 -0.0234375 0 0 0.0234375 0.0234375 C 0.0703125 0.328125 0.234375 0.582031 0.511719 0.746094 C 0.699219 0.886719 0.957031 0.957031 1.238281 0.957031 C 1.796875 0.957031 2.472656 0.652344 3.101562 -0.140625 C 3.523438 -0.652344 3.964844 -1.492188 4.386719 -2.542969 C 4.710938 -2.542969 5.085938 -2.566406 5.433594 -2.566406 C 7.511719 -2.613281 9.84375 -2.660156 11.6875 -4.546875 C 11.757812 -4.617188 11.757812 -4.734375 11.6875 -4.78125 C 11.617188 -4.851562 11.5 -4.851562 11.453125 -4.78125 Z M 1.984375 -1.121094 C 1.304688 -0.140625 0.722656 0.164062 0.511719 0.117188 C 0.464844 0.117188 0.398438 0.09375 0.351562 -0.046875 C 0.328125 -0.234375 0.351562 -0.417969 0.441406 -0.582031 C 0.957031 -1.5625 1.679688 -2.03125 2.566406 -2.285156 C 2.355469 -1.75 2.144531 -1.375 1.984375 -1.121094 Z M 1.984375 -1.121094 "/></g></g></g><g fill="#5271ff" fill-opacity="1"><g transform="translate(95.265126, 99.644881)"><g><path d="M 0.582031 -0.558594 C 0.699219 -0.535156 0.816406 -0.511719 0.933594 -0.511719 C 1.632812 -0.511719 2.402344 -1.121094 3.265625 -2.355469 C 3.988281 -3.40625 4.527344 -4.527344 4.527344 -4.527344 C 4.570312 -4.617188 4.527344 -4.710938 4.433594 -4.757812 C 4.363281 -4.804688 4.246094 -4.757812 4.222656 -4.6875 C 3.800781 -3.777344 2.707031 -1.84375 1.679688 -1.121094 L 1.65625 -1.121094 C 1.5625 -1.050781 1.539062 -1.074219 1.515625 -1.097656 C 1.351562 -1.191406 1.144531 -1.726562 1.238281 -2.824219 C 1.375 -4.222656 1.960938 -5.972656 2.449219 -7.136719 C 2.613281 -7.511719 2.472656 -7.953125 2.121094 -8.1875 L 1.75 -8.421875 C 1.609375 -8.515625 1.46875 -8.515625 1.328125 -8.492188 C 1.191406 -8.445312 1.074219 -8.328125 1.027344 -8.1875 C 0.488281 -6.953125 -0.769531 -2.777344 -0.046875 -1.167969 C 0.09375 -0.863281 0.304688 -0.652344 0.582031 -0.558594 Z M 2.519531 -9.027344 C 2.636719 -8.980469 2.730469 -8.980469 2.824219 -8.980469 C 3.007812 -8.980469 3.242188 -9.097656 3.3125 -9.238281 L 3.847656 -10.148438 C 3.988281 -10.449219 4.011719 -10.707031 3.941406 -10.988281 C 3.824219 -11.265625 3.59375 -11.5 3.3125 -11.640625 L 3.242188 -11.664062 C 2.9375 -11.804688 2.613281 -11.6875 2.472656 -11.429688 L 1.890625 -10.171875 C 1.726562 -9.796875 1.867188 -9.378906 2.238281 -9.191406 Z M 2.519531 -9.027344 "/></g></g></g><g fill="#5271ff" fill-opacity="1"><g transform="translate(99.463238, 99.644881)"><g><path d="M 10.636719 -4.804688 C 10.566406 -4.875 10.449219 -4.851562 10.402344 -4.757812 C 9.308594 -3.125 7.722656 -1.914062 6.203125 -1.121094 C 7.023438 -2.03125 7.652344 -3.242188 7.882812 -3.753906 C 9.191406 -6.578125 9.214844 -8.304688 7.929688 -9.050781 C 7.628906 -9.214844 7.253906 -9.238281 6.8125 -9.074219 C 6.507812 -8.957031 6.183594 -8.769531 5.808594 -8.46875 C 5.785156 -8.46875 5.761719 -8.445312 5.761719 -8.421875 C 4.503906 -7.394531 2.894531 -5.203125 1.46875 -1.515625 C 1.445312 -2.519531 1.492188 -3.617188 1.609375 -4.710938 C 1.65625 -4.710938 1.726562 -4.734375 1.773438 -4.78125 C 6.976562 -12.082031 7.277344 -15.628906 7.042969 -17.027344 L 7.042969 -17.050781 L 6.976562 -17.355469 C 6.859375 -17.796875 6.625 -18.148438 6.34375 -18.265625 C 5.714844 -18.523438 5.273438 -18.335938 4.78125 -17.9375 C 4.011719 -17.332031 2.03125 -15.164062 0.535156 -8.234375 C -0.417969 -3.824219 -0.140625 -0.351562 0.0234375 0.957031 C 0.09375 1.421875 0.375 1.820312 0.769531 2.03125 L 1.328125 2.308594 C 1.398438 2.332031 1.445312 2.355469 1.515625 2.355469 C 1.609375 2.355469 1.679688 2.332031 1.75 2.261719 C 1.890625 2.167969 1.9375 2.007812 1.890625 1.867188 C 1.703125 1.238281 1.585938 0.375 1.515625 -0.628906 C 2.914062 -4.546875 4.640625 -7.066406 5.996094 -8.1875 C 6.273438 -8.328125 6.976562 -8.609375 7.300781 -8.304688 C 7.605469 -8 7.511719 -6.765625 6.320312 -4.175781 C 5.367188 -2.121094 4.410156 -0.792969 3.710938 -0.675781 C 3.523438 -0.628906 3.359375 -0.699219 3.195312 -0.839844 C 3.054688 -0.957031 2.960938 -1.121094 2.847656 -1.28125 C 2.777344 -1.351562 2.683594 -1.375 2.589844 -1.328125 C 2.519531 -1.28125 2.496094 -1.167969 2.542969 -1.097656 C 2.683594 -0.910156 2.800781 -0.746094 2.9375 -0.605469 C 3.125 -0.398438 3.335938 -0.257812 3.546875 -0.164062 C 3.753906 -0.046875 3.988281 0 4.222656 0 L 4.339844 0 L 4.546875 -0.046875 L 4.570312 -0.046875 C 4.757812 -0.09375 4.945312 -0.164062 5.109375 -0.257812 C 6.976562 -0.980469 9.261719 -2.425781 10.683594 -4.570312 C 10.730469 -4.640625 10.707031 -4.757812 10.636719 -4.804688 Z M 2.121094 -7.746094 C 2.472656 -9.167969 3.242188 -11.6875 4.011719 -13.761719 C 5.386719 -17.332031 6.042969 -17.566406 6.183594 -17.566406 L 6.203125 -17.566406 C 6.554688 -17.519531 6.695312 -17.074219 6.695312 -16.980469 C 6.8125 -16.375 6.8125 -15.1875 6.136719 -13.273438 C 5.34375 -11.011719 3.824219 -8.304688 1.679688 -5.25 C 1.773438 -6.089844 1.9375 -6.929688 2.121094 -7.746094 Z M 2.121094 -7.746094 "/></g></g></g><g fill="#5271ff" fill-opacity="1"><g transform="translate(109.818577, 99.644881)"><g><path d="M 7.441406 -4.828125 C 7.347656 -4.875 7.253906 -4.828125 7.207031 -4.734375 C 6.273438 -2.800781 5.15625 -1.351562 4.246094 -0.582031 C 4.082031 -0.488281 3.894531 -0.398438 3.753906 -0.441406 C 3.730469 -0.441406 3.6875 -0.464844 3.640625 -0.558594 C 3.359375 -1.167969 3.777344 -3.148438 4.339844 -4.59375 C 4.410156 -4.78125 4.363281 -4.992188 4.222656 -5.109375 C 4.082031 -5.25 3.871094 -5.296875 3.710938 -5.226562 C 3.101562 -4.96875 2.238281 -4.664062 1.609375 -4.6875 C 1.328125 -4.6875 1.167969 -4.757812 1.097656 -4.875 C 0.910156 -5.179688 1.238281 -5.972656 1.492188 -6.53125 C 1.679688 -6.929688 1.585938 -7.394531 1.238281 -7.675781 L 1.027344 -7.859375 C 0.886719 -8 0.675781 -8.046875 0.488281 -8 C 0.304688 -7.953125 0.140625 -7.839844 0.0703125 -7.652344 C -0.605469 -6.203125 -0.792969 -5.367188 -0.09375 -4.640625 C 0.488281 -4.035156 1.867188 -4.175781 2.472656 -4.269531 C 1.867188 -2.753906 1.5625 -0.910156 2.121094 -0.046875 C 2.332031 0.234375 2.613281 0.398438 2.960938 0.398438 L 2.984375 0.398438 C 3.429688 0.398438 3.964844 0.117188 4.527344 -0.375 C 4.59375 -0.417969 4.617188 -0.464844 4.640625 -0.488281 C 5.621094 -1.351562 6.671875 -2.824219 7.511719 -4.59375 C 7.558594 -4.6875 7.535156 -4.78125 7.441406 -4.828125 Z M 7.441406 -4.828125 "/></g></g></g><g fill="#5271ff" fill-opacity="1"><g transform="translate(117.002011, 99.644881)"><g><path d="M 0.582031 -0.558594 C 0.699219 -0.535156 0.816406 -0.511719 0.933594 -0.511719 C 1.632812 -0.511719 2.402344 -1.121094 3.265625 -2.355469 C 3.988281 -3.40625 4.527344 -4.527344 4.527344 -4.527344 C 4.570312 -4.617188 4.527344 -4.710938 4.433594 -4.757812 C 4.363281 -4.804688 4.246094 -4.757812 4.222656 -4.6875 C 3.800781 -3.777344 2.707031 -1.84375 1.679688 -1.121094 L 1.65625 -1.121094 C 1.5625 -1.050781 1.539062 -1.074219 1.515625 -1.097656 C 1.351562 -1.191406 1.144531 -1.726562 1.238281 -2.824219 C 1.375 -4.222656 1.960938 -5.972656 2.449219 -7.136719 C 2.613281 -7.511719 2.472656 -7.953125 2.121094 -8.1875 L 1.75 -8.421875 C 1.609375 -8.515625 1.46875 -8.515625 1.328125 -8.492188 C 1.191406 -8.445312 1.074219 -8.328125 1.027344 -8.1875 C 0.488281 -6.953125 -0.769531 -2.777344 -0.046875 -1.167969 C 0.09375 -0.863281 0.304688 -0.652344 0.582031 -0.558594 Z M 2.519531 -9.027344 C 2.636719 -8.980469 2.730469 -8.980469 2.824219 -8.980469 C 3.007812 -8.980469 3.242188 -9.097656 3.3125 -9.238281 L 3.847656 -10.148438 C 3.988281 -10.449219 4.011719 -10.707031 3.941406 -10.988281 C 3.824219 -11.265625 3.59375 -11.5 3.3125 -11.640625 L 3.242188 -11.664062 C 2.9375 -11.804688 2.613281 -11.6875 2.472656 -11.429688 L 1.890625 -10.171875 C 1.726562 -9.796875 1.867188 -9.378906 2.238281 -9.191406 Z M 2.519531 -9.027344 "/></g></g></g><g fill="#5271ff" fill-opacity="1"><g transform="translate(121.200123, 99.644881)"><g><path d="M 5.949219 -4.804688 C 5.878906 -4.851562 5.761719 -4.851562 5.714844 -4.78125 C 5.691406 -4.757812 4.921875 -3.777344 2.9375 -2.800781 C 2.683594 -3.640625 2.238281 -4.292969 1.84375 -4.898438 C 1.398438 -5.550781 1.027344 -6.113281 0.980469 -6.765625 C 0.933594 -7.792969 1.585938 -8.816406 2.238281 -9.167969 C 2.355469 -9.238281 2.589844 -9.332031 2.753906 -9.214844 C 2.847656 -9.144531 2.9375 -9.074219 2.984375 -8.980469 C 3.265625 -8.585938 3.335938 -7.953125 3.148438 -7.488281 C 3.101562 -7.394531 3.148438 -7.300781 3.21875 -7.253906 C 3.3125 -7.230469 3.40625 -7.253906 3.453125 -7.347656 C 3.710938 -7.90625 3.617188 -8.679688 3.265625 -9.191406 C 3.195312 -9.308594 3.078125 -9.402344 2.984375 -9.496094 L 2.960938 -9.496094 L 2.960938 -9.515625 C 2.683594 -9.726562 2.332031 -9.820312 1.9375 -9.796875 C 1.238281 -9.75 0.558594 -9.378906 0.0703125 -8.746094 C -0.511719 -8 -0.722656 -7.042969 -0.558594 -6.042969 C -0.398438 -5.226562 0.0234375 -4.59375 0.464844 -3.988281 C 0.839844 -3.453125 1.238281 -2.871094 1.445312 -2.144531 C 0.1875 -1.65625 -0.652344 -0.769531 -0.816406 0.257812 C -0.910156 0.792969 -0.769531 1.28125 -0.464844 1.539062 C -0.328125 1.65625 -0.164062 1.726562 0.046875 1.773438 C 0.234375 1.84375 0.441406 1.867188 0.652344 1.867188 C 1.121094 1.867188 1.632812 1.703125 2.054688 1.398438 C 2.589844 0.980469 3.21875 0.140625 3.148438 -1.5625 C 3.125 -1.890625 3.101562 -2.167969 3.03125 -2.449219 C 5.132812 -3.5 5.949219 -4.503906 5.972656 -4.570312 C 6.042969 -4.640625 6.019531 -4.734375 5.949219 -4.804688 Z M 0.722656 1.375 C 0.375 1.5625 -0.0234375 1.445312 -0.234375 1.28125 C -0.441406 1.097656 -0.535156 0.722656 -0.464844 0.304688 C -0.417969 -0.0234375 -0.117188 -1.144531 1.515625 -1.796875 C 1.5625 -1.609375 1.585938 -1.421875 1.585938 -1.214844 C 1.65625 0.628906 1.097656 1.191406 0.722656 1.375 Z M 0.722656 1.375 "/></g></g></g><g clip-path="url(#eae36924ee)"><g clip-path="url(#a689341858)"><path fill="#8c52ff" d="M 70.445312 101.558594 L 105.839844 101.558594 L 105.839844 106.472656 L 70.445312 106.472656 Z M 70.445312 101.558594 " fill-opacity="1" fill-rule="nonzero"/></g></g><g clip-path="url(#928bba4d79)"><g clip-path="url(#3214250ce2)"><path fill="#8c52ff" d="M 106.824219 99.9375 L 129.4375 99.9375 L 129.4375 105.34375 L 106.824219 105.34375 Z M 106.824219 99.9375 " fill-opacity="1" fill-rule="nonzero"/></g></g><g clip-path="url(#be038fb569)"><g clip-path="url(#4e22301a8e)"><path fill="#8c52ff" d="M 128.160156 94.625 L 137.988281 94.625 L 137.988281 103.476562 L 128.160156 103.476562 Z M 128.160156 94.625 " fill-opacity="1" fill-rule="nonzero"/></g></g><g clip-path="url(#c5f2961350)"><g clip-path="url(#23a5d28878)"><path fill="#8c52ff" d="M 128.304688 96.839844 L 137.15625 96.839844 L 137.15625 103.230469 L 128.304688 103.230469 Z M 128.304688 96.839844 " fill-opacity="1" fill-rule="nonzero"/></g></g><g clip-path="url(#a68ea19ff6)"><g clip-path="url(#8fbf43850b)"><path fill="#8c52ff" d="M 128.257812 94.578125 L 137.105469 94.578125 L 137.105469 102.933594 L 128.257812 102.933594 Z M 128.257812 94.578125 " fill-opacity="1" fill-rule="nonzero"/></g></g><g clip-path="url(#4e9ed73052)"><g clip-path="url(#c8e68b4ae7)"><path fill="#8c52ff" d="M 128.453125 96.199219 L 136.808594 96.199219 L 136.808594 102.589844 L 128.453125 102.589844 Z M 128.453125 96.199219 " fill-opacity="1" fill-rule="nonzero"/></g></g><g clip-path="url(#8b45f32d05)"><g clip-path="url(#c3bdc4978d)"><path fill="#8c52ff" d="M 62.234375 101.851562 L 106.480469 101.851562 L 106.480469 106.277344 L 62.234375 106.277344 Z M 62.234375 101.851562 " fill-opacity="1" fill-rule="nonzero"/></g></g><g clip-path="url(#797f0458ab)"><g clip-path="url(#739e56fff9)"><path fill="#8c52ff" d="M 106.96875 100.773438 L 128.601562 100.773438 L 128.601562 105.6875 L 106.96875 105.6875 Z M 106.96875 100.773438 " fill-opacity="1" fill-rule="nonzero"/></g></g><g clip-path="url(#356f1d6742)"><g clip-path="url(#aa8a65d884)"><path fill="#8c52ff" d="M 70.59375 101.804688 L 104.511719 101.804688 L 104.511719 106.71875 L 70.59375 106.71875 Z M 70.59375 101.804688 " fill-opacity="1" fill-rule="nonzero"/></g></g><g clip-path="url(#3eebd99aaf)"><g clip-path="url(#40361f24c9)"><path fill="#8c52ff" d="M 106.527344 100.476562 L 131.597656 100.476562 L 131.597656 105.882812 L 106.527344 105.882812 Z M 106.527344 100.476562 " fill-opacity="1" fill-rule="nonzero"/></g></g><g clip-path="url(#e370171f89)"><g clip-path="url(#be626cc40d)"><path fill="#8c52ff" d="M 104.710938 100.917969 L 127.324219 100.917969 L 127.324219 106.328125 L 104.710938 106.328125 Z M 104.710938 100.917969 " fill-opacity="1" fill-rule="nonzero"/></g></g><g clip-path="url(#8f05ff8590)"><g clip-path="url(#8e25d632b3)"><path fill="#8c52ff" d="M 128.453125 95.167969 L 138.285156 95.167969 L 138.285156 103.03125 L 128.453125 103.03125 Z M 128.453125 95.167969 " fill-opacity="1" fill-rule="nonzero"/></g></g><g clip-path="url(#e1c93132fb)"><g clip-path="url(#6b332f2872)"><path fill="#8c52ff" d="M 128.402344 96.742188 L 135.777344 96.742188 L 135.777344 103.132812 L 128.402344 103.132812 Z M 128.402344 96.742188 " fill-opacity="1" fill-rule="nonzero"/></g></g><g clip-path="url(#27cdd7fa8d)"><g clip-path="url(#43119c9c21)"><path fill="#8c52ff" d="M 128.699219 98.167969 L 135.582031 98.167969 L 135.582031 103.082031 L 128.699219 103.082031 Z M 128.699219 98.167969 " fill-opacity="1" fill-rule="nonzero"/></g></g><g clip-path="url(#c54f3ba3da)"><g clip-path="url(#3da09113ae)"><path fill="#8c52ff" d="M 128.207031 96.25 L 137.054688 96.25 L 137.054688 103.621094 L 128.207031 103.621094 Z M 128.207031 96.25 " fill-opacity="1" fill-rule="nonzero"/></g></g><g clip-path="url(#0a02ab6106)"><g clip-path="url(#22b174f866)"><path fill="#8c52ff" d="M 128.847656 94.871094 L 136.21875 94.871094 L 136.21875 103.230469 L 128.847656 103.230469 Z M 128.847656 94.871094 " fill-opacity="1" fill-rule="nonzero"/></g></g><g clip-path="url(#eab09c9fd6)"><g clip-path="url(#dcae7d4fc9)"><path fill="#8c52ff" d="M 128.699219 96.199219 L 137.054688 96.199219 L 137.054688 103.082031 L 128.699219 103.082031 Z M 128.699219 96.199219 " fill-opacity="1" fill-rule="nonzero"/></g></g><g clip-path="url(#6a86ea2899)"><g clip-path="url(#08dd6b9612)"><path fill="#8c52ff" d="M 129.042969 94.578125 L 138.875 94.578125 L 138.875 102.933594 L 129.042969 102.933594 Z M 129.042969 94.578125 " fill-opacity="1" fill-rule="nonzero"/></g></g><g clip-path="url(#692c1ee425)"><g clip-path="url(#b1b524ba42)"><path fill="#8c52ff" d="M 128.75 96.101562 L 137.597656 96.101562 L 137.597656 102.984375 L 128.75 102.984375 Z M 128.75 96.101562 " fill-opacity="1" fill-rule="nonzero"/></g></g><g clip-path="url(#1312a97ade)"><g clip-path="url(#fde6409196)"><path fill="#8c52ff" d="M 128.847656 96.394531 L 137.203125 96.394531 L 137.203125 102.789062 L 128.847656 102.789062 Z M 128.847656 96.394531 " fill-opacity="1" fill-rule="nonzero"/></g></g></svg>