<svg xmlns="http://www.w3.org/2000/svg" xmlns:xlink="http://www.w3.org/1999/xlink" width="250" zoomAndPan="magnify" viewBox="0 0 187.5 112.499997" height="150" preserveAspectRatio="xMidYMid meet" version="1.0"><defs><g/><clipPath id="5246103559"><path d="M 37.207031 79 L 109.589844 79 L 109.589844 83 L 37.207031 83 Z M 37.207031 79 " clip-rule="nonzero"/></clipPath><clipPath id="b4c5862dfe"><path d="M 37.207031 81.640625 C 86.40625 81.300781 109.140625 79.605469 109.140625 79.71875 C 109.140625 79.832031 86.40625 81.867188 74.644531 82.207031 C 62.429688 82.546875 37.207031 81.640625 37.207031 81.640625 " clip-rule="nonzero"/></clipPath><clipPath id="f1a885c8cd"><path d="M 120.902344 75 L 164 75 L 164 80 L 120.902344 80 Z M 120.902344 75 " clip-rule="nonzero"/></clipPath><clipPath id="c6ab4712e8"><path d="M 120.902344 78.699219 C 151.328125 78.132812 163.992188 75.871094 163.992188 75.984375 C 163.992188 76.097656 151.328125 78.699219 144.539062 79.152344 C 137.074219 79.71875 120.902344 78.699219 120.902344 78.699219 " clip-rule="nonzero"/></clipPath><clipPath id="91683b3256"><path d="M 169.988281 69 L 177 69 L 177 75 L 169.988281 75 Z M 169.988281 69 " clip-rule="nonzero"/></clipPath><clipPath id="67be9ad3d7"><path d="M 169.988281 74.515625 C 183.5625 63.769531 169.988281 74.515625 169.988281 74.515625 " clip-rule="nonzero"/></clipPath><clipPath id="d091400a0e"><path d="M 170.328125 72 L 176 72 L 176 75 L 170.328125 75 Z M 170.328125 72 " clip-rule="nonzero"/></clipPath><clipPath id="2398ea486b"><path d="M 170.328125 74.855469 C 181.074219 68.859375 170.328125 74.855469 170.328125 74.855469 " clip-rule="nonzero"/></clipPath><clipPath id="e3f5cb9e9c"><path d="M 170.214844 69 L 176 69 L 176 73.835938 L 170.214844 73.835938 Z M 170.214844 69 " clip-rule="nonzero"/></clipPath><clipPath id="4836b0f1a4"><path d="M 170.214844 73.609375 C 181.636719 63.65625 170.214844 73.609375 170.214844 73.609375 " clip-rule="nonzero"/></clipPath><clipPath id="06346c5239"><path d="M 170.667969 69 L 180 69 L 180 74 L 170.667969 74 Z M 170.667969 69 " clip-rule="nonzero"/></clipPath><clipPath id="f8d196fbe1"><path d="M 170.667969 73.496094 C 181.296875 67.503906 179.261719 69.425781 177.90625 70.332031 C 175.984375 71.574219 170.667969 73.496094 170.667969 73.496094 " clip-rule="nonzero"/></clipPath><clipPath id="631e618a74"><path d="M 38 80 L 111 80 L 111 81.527344 L 38 81.527344 Z M 38 80 " clip-rule="nonzero"/></clipPath><clipPath id="82d2635ded"><path d="M 110.496094 80.960938 C 18.316406 81.527344 36.300781 80.621094 48.0625 80.398438 C 65.027344 80.058594 110.496094 80.960938 110.496094 80.960938 " clip-rule="nonzero"/></clipPath><clipPath id="9feee70741"><path d="M 121.242188 77 L 163 77 L 163 81 L 121.242188 81 Z M 121.242188 77 " clip-rule="nonzero"/></clipPath><clipPath id="b719515797"><path d="M 121.242188 80.058594 C 151.777344 79.492188 162.183594 77.796875 162.183594 77.910156 C 162.183594 78.023438 151.890625 79.945312 145.898438 80.398438 C 138.546875 80.847656 121.242188 80.058594 121.242188 80.058594 " clip-rule="nonzero"/></clipPath><clipPath id="623775f925"><path d="M 37.546875 80 L 106.539062 80 L 106.539062 83 L 37.546875 83 Z M 37.546875 80 " clip-rule="nonzero"/></clipPath><clipPath id="4c117dd186"><path d="M 37.546875 81.980469 C 87.535156 81.640625 106.085938 79.492188 106.199219 80.285156 C 106.3125 80.511719 104.390625 81.300781 102.578125 81.640625 C 97.941406 82.546875 86.40625 82.433594 77.019531 82.546875 C 65.253906 82.660156 37.546875 81.980469 37.546875 81.980469 " clip-rule="nonzero"/></clipPath><clipPath id="14697aa890"><path d="M 120.222656 77.230469 L 169.988281 77.230469 L 169.988281 81 L 120.222656 81 Z M 120.222656 77.230469 " clip-rule="nonzero"/></clipPath><clipPath id="410c96e08b"><path d="M 120.222656 80.058594 C 156.304688 79.265625 169.308594 77.230469 169.308594 77.230469 C 169.308594 77.230469 150.875 80.171875 142.277344 80.621094 C 134.585938 80.960938 120.222656 80.058594 120.222656 80.058594 " clip-rule="nonzero"/></clipPath><clipPath id="2522362431"><path d="M 116.039062 78 L 159 78 L 159 81.640625 L 116.039062 81.640625 Z M 116.039062 78 " clip-rule="nonzero"/></clipPath><clipPath id="5122827543"><path d="M 116.039062 80.734375 C 146.6875 80.058594 158.679688 78.132812 158.679688 78.246094 C 158.679688 78.359375 146.6875 80.621094 140.015625 81.074219 C 132.550781 81.640625 116.039062 80.734375 116.039062 80.734375 " clip-rule="nonzero"/></clipPath><clipPath id="2070722950"><path d="M 170.667969 67 L 182 67 L 182 74 L 170.667969 74 Z M 170.667969 67 " clip-rule="nonzero"/></clipPath><clipPath id="1698ff2ecf"><path d="M 170.667969 73.835938 C 184.351562 65.128906 182.429688 67.050781 180.960938 68.179688 C 178.585938 69.992188 170.667969 73.835938 170.667969 73.835938 " clip-rule="nonzero"/></clipPath><clipPath id="3410105c54"><path d="M 170.554688 71 L 174 71 L 174 74.289062 L 170.554688 74.289062 Z M 170.554688 71 " clip-rule="nonzero"/></clipPath><clipPath id="013bb70041"><path d="M 170.554688 74.289062 C 177.90625 68.632812 170.554688 74.289062 170.554688 74.289062 " clip-rule="nonzero"/></clipPath><clipPath id="7bb148f583"><path d="M 171.234375 73 L 175 73 L 175 74.175781 L 171.234375 74.175781 Z M 171.234375 73 " clip-rule="nonzero"/></clipPath><clipPath id="2a7fbc39cd"><path d="M 171.234375 74.175781 C 177.90625 71.914062 171.234375 74.175781 171.234375 74.175781 " clip-rule="nonzero"/></clipPath><clipPath id="a0480842fc"><path d="M 170.101562 71 L 176 71 L 176 75 L 170.101562 75 Z M 170.101562 71 " clip-rule="nonzero"/></clipPath><clipPath id="10d9493e06"><path d="M 170.101562 74.96875 C 181.1875 67.503906 170.101562 74.96875 170.101562 74.96875 " clip-rule="nonzero"/></clipPath><clipPath id="f13c28237a"><path d="M 171.570312 69 L 175 69 L 175 74.515625 L 171.570312 74.515625 Z M 171.570312 69 " clip-rule="nonzero"/></clipPath><clipPath id="57759ccd19"><path d="M 171.570312 74.402344 C 179.261719 64.335938 171.570312 74.402344 171.570312 74.402344 " clip-rule="nonzero"/></clipPath><clipPath id="758710f7bf"><path d="M 171.234375 71 L 176 71 L 176 75 L 171.234375 75 Z M 171.234375 71 " clip-rule="nonzero"/></clipPath><clipPath id="d30583fb33"><path d="M 171.234375 74.515625 C 181.75 67.390625 171.234375 74.515625 171.234375 74.515625 " clip-rule="nonzero"/></clipPath><clipPath id="25b354308d"><path d="M 172.023438 69 L 179 69 L 179 74.96875 L 172.023438 74.96875 Z M 172.023438 69 " clip-rule="nonzero"/></clipPath><clipPath id="c374d664be"><path d="M 172.023438 74.0625 C 186.050781 63.65625 172.023438 74.0625 172.023438 74.0625 " clip-rule="nonzero"/></clipPath><clipPath id="9add1ca114"><path d="M 171.347656 70 L 177 70 L 177 73.949219 L 171.347656 73.949219 Z M 171.347656 70 " clip-rule="nonzero"/></clipPath><clipPath id="3717d754b1"><path d="M 171.347656 73.835938 C 182.316406 67.164062 171.347656 73.835938 171.347656 73.835938 " clip-rule="nonzero"/></clipPath><clipPath id="ab41f1bdf9"><path d="M 171.570312 70 L 177 70 L 177 73.496094 L 171.570312 73.496094 Z M 171.570312 70 " clip-rule="nonzero"/></clipPath><clipPath id="b98f0dfb5e"><path d="M 171.570312 73.269531 C 182.089844 67.84375 171.570312 73.269531 171.570312 73.269531 " clip-rule="nonzero"/></clipPath><clipPath id="1b78b5a168"><path d="M 6.375 19.382812 L 53.878906 19.382812 L 53.878906 83.851562 L 6.375 83.851562 Z M 6.375 19.382812 " clip-rule="nonzero"/></clipPath></defs><g fill="#5271ff" fill-opacity="1"><g transform="translate(36.240016, 71.244384)"><g><path d="M 23.667969 -32.953125 C 23.828125 -32.792969 24.097656 -32.792969 24.257812 -32.953125 C 25.867188 -34.671875 26.621094 -37.246094 26.082031 -39.125 C 26.082031 -39.179688 26.03125 -39.234375 26.03125 -39.285156 C 26.03125 -39.339844 25.976562 -39.449219 25.976562 -39.5 C 25.492188 -40.734375 24.417969 -41.488281 23.023438 -41.59375 C 21.039062 -41.753906 17.335938 -40.304688 14.277344 -38.214844 C 12.074219 -36.710938 8.320312 -33.488281 7.941406 -29.464844 C 7.835938 -28.121094 8.210938 -26.996094 9.070312 -26.082031 C 9.929688 -25.171875 11.109375 -24.632812 12.238281 -24.3125 C 9.875 -23.507812 7.996094 -21.734375 6.28125 -20.074219 L 5.957031 -19.804688 C 2.683594 -16.636719 0.320312 -12.238281 0.0546875 -8.75 C -0.160156 -5.527344 0.429688 -3.113281 1.824219 -1.609375 C 3.058594 -0.269531 4.9375 0.375 7.460938 0.375 C 11.96875 0.375 17.496094 -3.167969 24.417969 -10.464844 C 24.582031 -10.625 24.527344 -10.894531 24.367188 -11.003906 C 24.257812 -11.164062 23.992188 -11.164062 23.828125 -11.003906 C 17.390625 -4.1875 12.023438 -0.644531 7.890625 -0.429688 C 7.890625 -0.429688 6.601562 -0.535156 5.582031 -1.824219 C 4.402344 -3.328125 3.972656 -5.582031 4.292969 -8.640625 C 4.832031 -13.042969 7.40625 -16.636719 9.5 -18.890625 C 11.914062 -21.523438 14.652344 -23.347656 16.101562 -23.828125 L 16.15625 -23.828125 L 16.15625 -23.882812 L 16.207031 -23.882812 C 16.207031 -23.9375 16.261719 -23.9375 16.261719 -23.9375 C 16.261719 -23.992188 16.316406 -23.992188 16.316406 -23.992188 L 16.316406 -24.097656 C 16.316406 -24.097656 16.371094 -24.097656 16.371094 -24.152344 L 16.371094 -24.257812 L 16.316406 -24.3125 L 16.316406 -24.367188 C 16.316406 -24.417969 16.316406 -24.417969 16.261719 -24.417969 L 16.261719 -24.472656 C 16.207031 -24.472656 16.207031 -24.472656 16.207031 -24.527344 L 16.15625 -24.527344 L 16.101562 -24.582031 L 16.046875 -24.582031 C 15.457031 -24.6875 14.921875 -24.742188 14.382812 -24.6875 C 13.902344 -24.742188 13.308594 -24.847656 12.71875 -25.011719 C 11.808594 -25.332031 11.21875 -25.921875 11.054688 -26.726562 C 10.679688 -28.390625 11.96875 -30.914062 14.757812 -33.8125 C 18.839844 -38 23.292969 -39.714844 24.796875 -39.339844 C 25.117188 -39.234375 25.226562 -39.125 25.277344 -38.964844 C 25.761719 -37.355469 25.117188 -35.046875 23.667969 -33.488281 C 23.507812 -33.328125 23.507812 -33.113281 23.667969 -32.953125 Z M 23.667969 -32.953125 "/></g></g></g><g fill="#5271ff" fill-opacity="1"><g transform="translate(59.850252, 71.244384)"><g><path d="M 16.046875 -5.207031 C 17.28125 -7.890625 18.085938 -10.625 18.085938 -10.625 C 18.140625 -10.839844 18.03125 -11.054688 17.820312 -11.109375 C 17.605469 -11.164062 17.390625 -11.054688 17.335938 -10.839844 C 16.851562 -9.230469 15.777344 -6.171875 14.4375 -3.757812 C 14.277344 -3.597656 13.523438 -2.574219 12.613281 -2.574219 C 10.089844 -2.574219 7.78125 -4.1875 6.117188 -7.085938 L 5.957031 -7.40625 C 9.605469 -14.007812 11.324219 -19.804688 11.324219 -19.859375 C 11.378906 -20.074219 11.269531 -20.289062 11.054688 -20.339844 C 10.839844 -20.449219 10.625 -20.289062 10.574219 -20.074219 C 10.574219 -20.019531 8.960938 -14.542969 5.527344 -8.210938 C 4.1875 -10.949219 3.433594 -14.492188 3.382812 -18.246094 C 3.382812 -18.675781 3.167969 -19.054688 2.789062 -19.320312 C 2.363281 -19.535156 1.878906 -19.535156 1.503906 -19.265625 L 0.429688 -18.675781 C -0.699219 -17.980469 -1.339844 -16.746094 -1.128906 -15.402344 C -0.75 -13.09375 0.214844 -8.640625 2.523438 -4.9375 C 2.738281 -4.667969 2.898438 -4.402344 3.058594 -4.132812 C 1.503906 -1.664062 -0.375 0.75 -2.523438 2.953125 C -2.683594 3.113281 -2.683594 3.382812 -2.523438 3.542969 C -2.414062 3.597656 -2.363281 3.648438 -2.253906 3.648438 C -2.148438 3.648438 -2.039062 3.597656 -1.933594 3.488281 C 0.160156 1.339844 1.984375 -1.074219 3.597656 -3.488281 C 5.636719 -0.914062 8.105469 0.375 10.789062 0.375 C 12.558594 0.375 14.328125 -1.503906 16.046875 -5.207031 Z M 16.046875 -5.207031 "/></g></g></g><g fill="#5271ff" fill-opacity="1"><g transform="translate(77.128649, 71.244384)"><g><path d="M 26.351562 -11.003906 C 22.328125 -6.921875 17.335938 -6.816406 12.503906 -6.707031 C 11.808594 -6.707031 11.109375 -6.65625 10.410156 -6.65625 C 14.277344 -16.53125 17.765625 -33.007812 19 -38.855469 C 19.054688 -39.125 18.890625 -39.449219 18.515625 -39.769531 C 17.925781 -40.253906 16.371094 -41.109375 15.617188 -40.84375 C 15.402344 -40.789062 15.242188 -40.574219 15.1875 -40.359375 C 12.34375 -24.847656 8.75 -12.34375 6.28125 -6.171875 C 3.8125 -5.582031 1.71875 -4.402344 0.320312 -1.71875 C 0.0546875 -1.234375 -0.0546875 -0.699219 0 -0.214844 L 0 -0.0546875 C 0 -0.0546875 0 0 0.0546875 0.0546875 C 0.160156 0.75 0.535156 1.339844 1.179688 1.71875 C 1.609375 2.039062 2.199219 2.199219 2.84375 2.199219 C 4.132812 2.199219 5.6875 1.503906 7.136719 -0.320312 C 8.105469 -1.503906 9.125 -3.433594 10.089844 -5.851562 C 10.839844 -5.851562 11.699219 -5.902344 12.503906 -5.902344 C 17.28125 -6.011719 22.648438 -6.117188 26.886719 -10.464844 C 27.050781 -10.625 27.050781 -10.894531 26.886719 -11.003906 C 26.726562 -11.164062 26.460938 -11.164062 26.351562 -11.003906 Z M 4.5625 -2.574219 C 3.003906 -0.320312 1.664062 0.375 1.179688 0.269531 C 1.074219 0.269531 0.914062 0.214844 0.804688 -0.105469 C 0.75 -0.535156 0.804688 -0.964844 1.019531 -1.339844 C 2.199219 -3.597656 3.863281 -4.667969 5.902344 -5.257812 C 5.421875 -4.023438 4.9375 -3.167969 4.5625 -2.574219 Z M 4.5625 -2.574219 "/></g></g></g><g fill="#5271ff" fill-opacity="1"><g transform="translate(103.207233, 71.244384)"><g><path d="M 1.339844 -1.289062 C 1.609375 -1.234375 1.878906 -1.179688 2.148438 -1.179688 C 3.757812 -1.179688 5.527344 -2.574219 7.515625 -5.421875 C 9.175781 -7.835938 10.410156 -10.410156 10.410156 -10.410156 C 10.519531 -10.625 10.410156 -10.839844 10.199219 -10.949219 C 10.035156 -11.054688 9.769531 -10.949219 9.714844 -10.789062 C 8.75 -8.695312 6.226562 -4.238281 3.863281 -2.574219 L 3.8125 -2.574219 C 3.597656 -2.414062 3.542969 -2.46875 3.488281 -2.523438 C 3.113281 -2.738281 2.628906 -3.972656 2.84375 -6.492188 C 3.167969 -9.714844 4.507812 -13.738281 5.636719 -16.421875 C 6.011719 -17.28125 5.6875 -18.300781 4.882812 -18.839844 L 4.023438 -19.375 C 3.703125 -19.589844 3.382812 -19.589844 3.058594 -19.535156 C 2.738281 -19.429688 2.46875 -19.160156 2.363281 -18.839844 C 1.128906 -15.992188 -1.769531 -6.386719 -0.105469 -2.683594 C 0.214844 -1.984375 0.699219 -1.503906 1.339844 -1.289062 Z M 5.796875 -20.769531 C 6.066406 -20.664062 6.28125 -20.664062 6.492188 -20.664062 C 6.921875 -20.664062 7.460938 -20.929688 7.621094 -21.253906 L 8.855469 -23.347656 C 9.175781 -24.042969 9.230469 -24.632812 9.070312 -25.277344 C 8.800781 -25.921875 8.265625 -26.460938 7.621094 -26.78125 L 7.460938 -26.835938 C 6.761719 -27.15625 6.011719 -26.886719 5.6875 -26.296875 L 4.347656 -23.398438 C 3.972656 -22.542969 4.292969 -21.574219 5.152344 -21.144531 Z M 5.796875 -20.769531 "/></g></g></g><g fill="#5271ff" fill-opacity="1"><g transform="translate(112.865968, 71.244384)"><g><path d="M 24.472656 -11.054688 C 24.3125 -11.21875 24.042969 -11.164062 23.9375 -10.949219 C 21.414062 -7.191406 17.765625 -4.402344 14.277344 -2.574219 C 16.15625 -4.667969 17.605469 -7.460938 18.140625 -8.640625 C 21.144531 -15.136719 21.199219 -19.105469 18.246094 -20.824219 C 17.550781 -21.199219 16.691406 -21.253906 15.671875 -20.878906 C 14.972656 -20.609375 14.222656 -20.179688 13.363281 -19.480469 C 13.308594 -19.480469 13.257812 -19.429688 13.257812 -19.375 C 10.359375 -17.011719 6.65625 -11.96875 3.382812 -3.488281 C 3.328125 -5.796875 3.433594 -8.320312 3.703125 -10.839844 C 3.8125 -10.839844 3.972656 -10.894531 4.078125 -11.003906 C 16.046875 -27.800781 16.746094 -35.957031 16.207031 -39.179688 L 16.207031 -39.234375 L 16.046875 -39.929688 C 15.777344 -40.949219 15.242188 -41.753906 14.597656 -42.023438 C 13.148438 -42.613281 12.128906 -42.183594 11.003906 -41.273438 C 9.230469 -39.875 4.667969 -34.886719 1.234375 -18.945312 C -0.964844 -8.800781 -0.320312 -0.804688 0.0546875 2.199219 C 0.214844 3.273438 0.859375 4.1875 1.769531 4.667969 L 3.058594 5.3125 C 3.21875 5.367188 3.328125 5.421875 3.488281 5.421875 C 3.703125 5.421875 3.863281 5.367188 4.023438 5.207031 C 4.347656 4.992188 4.453125 4.617188 4.347656 4.292969 C 3.917969 2.84375 3.648438 0.859375 3.488281 -1.449219 C 6.707031 -10.464844 10.679688 -16.261719 13.792969 -18.839844 C 14.4375 -19.160156 16.046875 -19.804688 16.796875 -19.105469 C 17.496094 -18.410156 17.28125 -15.5625 14.542969 -9.605469 C 12.34375 -4.882812 10.144531 -1.824219 8.535156 -1.554688 C 8.105469 -1.449219 7.726562 -1.609375 7.351562 -1.933594 C 7.03125 -2.199219 6.816406 -2.574219 6.546875 -2.953125 C 6.386719 -3.113281 6.171875 -3.167969 5.957031 -3.058594 C 5.796875 -2.953125 5.742188 -2.683594 5.851562 -2.523438 C 6.171875 -2.09375 6.441406 -1.71875 6.761719 -1.394531 C 7.191406 -0.914062 7.675781 -0.589844 8.15625 -0.375 C 8.640625 -0.105469 9.175781 0 9.714844 0 L 9.984375 0 L 10.464844 -0.105469 L 10.519531 -0.105469 C 10.949219 -0.214844 11.378906 -0.375 11.753906 -0.589844 C 16.046875 -2.253906 21.308594 -5.582031 24.582031 -10.519531 C 24.6875 -10.679688 24.632812 -10.949219 24.472656 -11.054688 Z M 4.882812 -17.820312 C 5.6875 -21.09375 7.460938 -26.886719 9.230469 -31.664062 C 12.398438 -39.875 13.902344 -40.414062 14.222656 -40.414062 L 14.277344 -40.414062 C 15.082031 -40.304688 15.402344 -39.285156 15.402344 -39.070312 C 15.671875 -37.675781 15.671875 -34.9375 14.113281 -30.539062 C 12.289062 -25.332031 8.800781 -19.105469 3.863281 -12.074219 C 4.078125 -14.007812 4.453125 -15.941406 4.882812 -17.820312 Z M 4.882812 -17.820312 "/></g></g></g><g fill="#5271ff" fill-opacity="1"><g transform="translate(136.690841, 71.244384)"><g><path d="M 17.121094 -11.109375 C 16.90625 -11.21875 16.691406 -11.109375 16.585938 -10.894531 C 14.4375 -6.441406 11.859375 -3.113281 9.769531 -1.339844 C 9.390625 -1.128906 8.960938 -0.914062 8.640625 -1.019531 C 8.585938 -1.019531 8.480469 -1.074219 8.371094 -1.289062 C 7.726562 -2.683594 8.695312 -7.246094 9.984375 -10.574219 C 10.144531 -11.003906 10.035156 -11.484375 9.714844 -11.753906 C 9.390625 -12.074219 8.910156 -12.183594 8.535156 -12.023438 C 7.136719 -11.433594 5.152344 -10.734375 3.703125 -10.789062 C 3.058594 -10.789062 2.683594 -10.949219 2.523438 -11.21875 C 2.09375 -11.914062 2.84375 -13.738281 3.433594 -15.027344 C 3.863281 -15.941406 3.648438 -17.011719 2.84375 -17.65625 L 2.363281 -18.085938 C 2.039062 -18.410156 1.554688 -18.515625 1.128906 -18.410156 C 0.699219 -18.300781 0.320312 -18.03125 0.160156 -17.605469 C -1.394531 -14.277344 -1.824219 -12.34375 -0.214844 -10.679688 C 1.128906 -9.285156 4.292969 -9.605469 5.6875 -9.820312 C 4.292969 -6.332031 3.597656 -2.09375 4.882812 -0.105469 C 5.367188 0.535156 6.011719 0.914062 6.816406 0.914062 L 6.871094 0.914062 C 7.890625 0.914062 9.125 0.269531 10.410156 -0.859375 C 10.574219 -0.964844 10.625 -1.074219 10.679688 -1.128906 C 12.933594 -3.113281 15.347656 -6.492188 17.28125 -10.574219 C 17.390625 -10.789062 17.335938 -11.003906 17.121094 -11.109375 Z M 17.121094 -11.109375 "/></g></g></g><g fill="#5271ff" fill-opacity="1"><g transform="translate(153.218008, 71.244384)"><g><path d="M 1.339844 -1.289062 C 1.609375 -1.234375 1.878906 -1.179688 2.148438 -1.179688 C 3.757812 -1.179688 5.527344 -2.574219 7.515625 -5.421875 C 9.175781 -7.835938 10.410156 -10.410156 10.410156 -10.410156 C 10.519531 -10.625 10.410156 -10.839844 10.199219 -10.949219 C 10.035156 -11.054688 9.769531 -10.949219 9.714844 -10.789062 C 8.75 -8.695312 6.226562 -4.238281 3.863281 -2.574219 L 3.8125 -2.574219 C 3.597656 -2.414062 3.542969 -2.46875 3.488281 -2.523438 C 3.113281 -2.738281 2.628906 -3.972656 2.84375 -6.492188 C 3.167969 -9.714844 4.507812 -13.738281 5.636719 -16.421875 C 6.011719 -17.28125 5.6875 -18.300781 4.882812 -18.839844 L 4.023438 -19.375 C 3.703125 -19.589844 3.382812 -19.589844 3.058594 -19.535156 C 2.738281 -19.429688 2.46875 -19.160156 2.363281 -18.839844 C 1.128906 -15.992188 -1.769531 -6.386719 -0.105469 -2.683594 C 0.214844 -1.984375 0.699219 -1.503906 1.339844 -1.289062 Z M 5.796875 -20.769531 C 6.066406 -20.664062 6.28125 -20.664062 6.492188 -20.664062 C 6.921875 -20.664062 7.460938 -20.929688 7.621094 -21.253906 L 8.855469 -23.347656 C 9.175781 -24.042969 9.230469 -24.632812 9.070312 -25.277344 C 8.800781 -25.921875 8.265625 -26.460938 7.621094 -26.78125 L 7.460938 -26.835938 C 6.761719 -27.15625 6.011719 -26.886719 5.6875 -26.296875 L 4.347656 -23.398438 C 3.972656 -22.542969 4.292969 -21.574219 5.152344 -21.144531 Z M 5.796875 -20.769531 "/></g></g></g><g fill="#5271ff" fill-opacity="1"><g transform="translate(162.876743, 71.244384)"><g><path d="M 13.6875 -11.054688 C 13.523438 -11.164062 13.257812 -11.164062 13.148438 -11.003906 C 13.09375 -10.949219 11.324219 -8.695312 6.761719 -6.441406 C 6.171875 -8.371094 5.152344 -9.875 4.238281 -11.269531 C 3.21875 -12.773438 2.363281 -14.0625 2.253906 -15.5625 C 2.148438 -17.925781 3.648438 -20.289062 5.152344 -21.09375 C 5.421875 -21.253906 5.957031 -21.46875 6.332031 -21.199219 C 6.546875 -21.039062 6.761719 -20.878906 6.871094 -20.664062 C 7.515625 -19.75 7.675781 -18.300781 7.246094 -17.226562 C 7.136719 -17.011719 7.246094 -16.796875 7.40625 -16.691406 C 7.621094 -16.636719 7.835938 -16.691406 7.941406 -16.90625 C 8.535156 -18.195312 8.320312 -19.964844 7.515625 -21.144531 C 7.351562 -21.414062 7.085938 -21.628906 6.871094 -21.84375 L 6.816406 -21.84375 L 6.816406 -21.898438 C 6.171875 -22.378906 5.367188 -22.59375 4.453125 -22.542969 C 2.84375 -22.433594 1.289062 -21.574219 0.160156 -20.125 C -1.179688 -18.410156 -1.664062 -16.207031 -1.289062 -13.902344 C -0.914062 -12.023438 0.0546875 -10.574219 1.074219 -9.175781 C 1.933594 -7.941406 2.84375 -6.601562 3.328125 -4.9375 C 0.429688 -3.8125 -1.503906 -1.769531 -1.878906 0.589844 C -2.09375 1.824219 -1.769531 2.953125 -1.074219 3.542969 C -0.75 3.8125 -0.375 3.972656 0.105469 4.078125 C 0.535156 4.238281 1.019531 4.292969 1.503906 4.292969 C 2.574219 4.292969 3.757812 3.917969 4.722656 3.21875 C 5.957031 2.253906 7.40625 0.320312 7.246094 -3.597656 C 7.191406 -4.347656 7.136719 -4.992188 6.976562 -5.636719 C 11.808594 -8.050781 13.6875 -10.359375 13.738281 -10.519531 C 13.902344 -10.679688 13.847656 -10.894531 13.6875 -11.054688 Z M 1.664062 3.167969 C 0.859375 3.597656 -0.0546875 3.328125 -0.535156 2.953125 C -1.019531 2.523438 -1.234375 1.664062 -1.074219 0.699219 C -0.964844 -0.0546875 -0.269531 -2.628906 3.488281 -4.132812 C 3.597656 -3.703125 3.648438 -3.273438 3.648438 -2.789062 C 3.8125 1.449219 2.523438 2.738281 1.664062 3.167969 Z M 1.664062 3.167969 "/></g></g></g><g clip-path="url(#5246103559)"><g clip-path="url(#b4c5862dfe)"><path fill="#8c52ff" d="M 32.683594 75.195312 L 114.117188 75.195312 L 114.117188 86.503906 L 32.683594 86.503906 Z M 32.683594 75.195312 " fill-opacity="1" fill-rule="nonzero"/></g></g><g clip-path="url(#f1a885c8cd)"><g clip-path="url(#c6ab4712e8)"><path fill="#8c52ff" d="M 116.378906 71.460938 L 168.40625 71.460938 L 168.40625 83.902344 L 116.378906 83.902344 Z M 116.378906 71.460938 " fill-opacity="1" fill-rule="nonzero"/></g></g><g clip-path="url(#91683b3256)"><g clip-path="url(#67be9ad3d7)"><path fill="#8c52ff" d="M 165.464844 59.246094 L 188.085938 59.246094 L 188.085938 79.605469 L 165.464844 79.605469 Z M 165.464844 59.246094 " fill-opacity="1" fill-rule="nonzero"/></g></g><g clip-path="url(#d091400a0e)"><g clip-path="url(#2398ea486b)"><path fill="#8c52ff" d="M 165.804688 64.335938 L 186.164062 64.335938 L 186.164062 79.039062 L 165.804688 79.039062 Z M 165.804688 64.335938 " fill-opacity="1" fill-rule="nonzero"/></g></g><g clip-path="url(#e3f5cb9e9c)"><g clip-path="url(#4836b0f1a4)"><path fill="#8c52ff" d="M 165.691406 59.132812 L 186.050781 59.132812 L 186.050781 78.359375 L 165.691406 78.359375 Z M 165.691406 59.132812 " fill-opacity="1" fill-rule="nonzero"/></g></g><g clip-path="url(#06346c5239)"><g clip-path="url(#f8d196fbe1)"><path fill="#8c52ff" d="M 166.144531 62.867188 L 185.371094 62.867188 L 185.371094 77.570312 L 166.144531 77.570312 Z M 166.144531 62.867188 " fill-opacity="1" fill-rule="nonzero"/></g></g><g clip-path="url(#631e618a74)"><g clip-path="url(#82d2635ded)"><path fill="#8c52ff" d="M 13.792969 75.871094 L 115.585938 75.871094 L 115.585938 86.050781 L 13.792969 86.050781 Z M 13.792969 75.871094 " fill-opacity="1" fill-rule="nonzero"/></g></g><g clip-path="url(#9feee70741)"><g clip-path="url(#b719515797)"><path fill="#8c52ff" d="M 116.71875 73.382812 L 166.480469 73.382812 L 166.480469 84.695312 L 116.71875 84.695312 Z M 116.71875 73.382812 " fill-opacity="1" fill-rule="nonzero"/></g></g><g clip-path="url(#623775f925)"><g clip-path="url(#4c117dd186)"><path fill="#8c52ff" d="M 33.019531 75.757812 L 111.0625 75.757812 L 111.0625 87.070312 L 33.019531 87.070312 Z M 33.019531 75.757812 " fill-opacity="1" fill-rule="nonzero"/></g></g><g clip-path="url(#14697aa890)"><g clip-path="url(#410c96e08b)"><path fill="#8c52ff" d="M 115.699219 72.707031 L 173.382812 72.707031 L 173.382812 85.148438 L 115.699219 85.148438 Z M 115.699219 72.707031 " fill-opacity="1" fill-rule="nonzero"/></g></g><g clip-path="url(#2522362431)"><g clip-path="url(#5122827543)"><path fill="#8c52ff" d="M 111.515625 73.722656 L 163.542969 73.722656 L 163.542969 86.164062 L 111.515625 86.164062 Z M 111.515625 73.722656 " fill-opacity="1" fill-rule="nonzero"/></g></g><g clip-path="url(#2070722950)"><g clip-path="url(#1698ff2ecf)"><path fill="#8c52ff" d="M 166.144531 60.492188 L 188.761719 60.492188 L 188.761719 78.585938 L 166.144531 78.585938 Z M 166.144531 60.492188 " fill-opacity="1" fill-rule="nonzero"/></g></g><g clip-path="url(#3410105c54)"><g clip-path="url(#013bb70041)"><path fill="#8c52ff" d="M 166.03125 64.109375 L 182.996094 64.109375 L 182.996094 78.8125 L 166.03125 78.8125 Z M 166.03125 64.109375 " fill-opacity="1" fill-rule="nonzero"/></g></g><g clip-path="url(#7bb148f583)"><g clip-path="url(#2a7fbc39cd)"><path fill="#8c52ff" d="M 166.707031 67.390625 L 182.542969 67.390625 L 182.542969 78.699219 L 166.707031 78.699219 Z M 166.707031 67.390625 " fill-opacity="1" fill-rule="nonzero"/></g></g><g clip-path="url(#a0480842fc)"><g clip-path="url(#10d9493e06)"><path fill="#8c52ff" d="M 165.578125 62.980469 L 185.9375 62.980469 L 185.9375 79.945312 L 165.578125 79.945312 Z M 165.578125 62.980469 " fill-opacity="1" fill-rule="nonzero"/></g></g><g clip-path="url(#f13c28237a)"><g clip-path="url(#57759ccd19)"><path fill="#8c52ff" d="M 167.046875 59.8125 L 184.011719 59.8125 L 184.011719 79.039062 L 167.046875 79.039062 Z M 167.046875 59.8125 " fill-opacity="1" fill-rule="nonzero"/></g></g><g clip-path="url(#758710f7bf)"><g clip-path="url(#d30583fb33)"><path fill="#8c52ff" d="M 166.707031 62.867188 L 185.9375 62.867188 L 185.9375 78.699219 L 166.707031 78.699219 Z M 166.707031 62.867188 " fill-opacity="1" fill-rule="nonzero"/></g></g><g clip-path="url(#25b354308d)"><g clip-path="url(#c374d664be)"><path fill="#8c52ff" d="M 167.5 59.132812 L 190.121094 59.132812 L 190.121094 78.359375 L 167.5 78.359375 Z M 167.5 59.132812 " fill-opacity="1" fill-rule="nonzero"/></g></g><g clip-path="url(#9add1ca114)"><g clip-path="url(#3717d754b1)"><path fill="#8c52ff" d="M 166.820312 62.640625 L 187.179688 62.640625 L 187.179688 78.472656 L 166.820312 78.472656 Z M 166.820312 62.640625 " fill-opacity="1" fill-rule="nonzero"/></g></g><g clip-path="url(#ab41f1bdf9)"><g clip-path="url(#b98f0dfb5e)"><path fill="#8c52ff" d="M 167.046875 63.316406 L 186.273438 63.316406 L 186.273438 78.023438 L 167.046875 78.023438 Z M 167.046875 63.316406 " fill-opacity="1" fill-rule="nonzero"/></g></g><g clip-path="url(#1b78b5a168)"><path fill="#8c52ff" d="M 20.308594 19.429688 C 20.285156 19.457031 20.226562 19.605469 20.171875 19.753906 C 19.554688 21.539062 18.152344 23.519531 16.128906 25.457031 C 14.675781 26.84375 13.394531 27.894531 10.222656 30.285156 C 8.421875 31.640625 7.914062 32.058594 7.316406 32.671875 C 6.855469 33.140625 6.578125 33.5625 6.441406 33.980469 C 6.390625 34.132812 6.382812 34.179688 6.382812 34.429688 C 6.382812 34.667969 6.386719 34.726562 6.425781 34.855469 C 6.617188 35.460938 7.15625 35.992188 8.113281 36.527344 C 8.605469 36.800781 9.359375 37.125 10.074219 37.371094 C 10.253906 37.433594 10.410156 37.492188 10.417969 37.5 C 10.429688 37.511719 10.40625 37.613281 10.363281 37.742188 C 10.230469 38.171875 10.132812 38.640625 10.070312 39.160156 C 10.03125 39.5 10.035156 40.671875 10.078125 41.058594 C 10.160156 41.761719 10.261719 42.339844 10.429688 43.007812 C 10.859375 44.714844 11.621094 46.503906 12.703125 48.359375 C 14.171875 50.867188 16.308594 53.554688 19.171875 56.480469 C 19.371094 56.691406 19.550781 56.882812 19.5625 56.90625 C 19.59375 56.957031 19.824219 57.871094 19.824219 57.929688 C 19.824219 57.996094 18.242188 59.425781 16.035156 61.355469 C 14.246094 62.914062 13.703125 63.402344 12.917969 64.136719 C 11.398438 65.574219 10.359375 66.789062 9.671875 67.945312 C 8.699219 69.574219 8.335938 71.253906 8.582031 72.949219 C 8.886719 75.039062 10.078125 76.964844 11.933594 78.371094 C 12.289062 78.636719 12.691406 78.894531 13.242188 79.210938 C 13.296875 79.242188 13.332031 79.273438 13.324219 79.28125 C 13.316406 79.289062 13.148438 79.320312 12.957031 79.351562 C 11.230469 79.613281 9.578125 79.96875 8.5625 80.300781 C 7.628906 80.605469 7.132812 80.894531 6.957031 81.242188 C 6.90625 81.347656 6.898438 81.378906 6.898438 81.539062 C 6.898438 81.695312 6.90625 81.730469 6.957031 81.832031 C 7.070312 82.054688 7.355469 82.277344 7.746094 82.449219 C 9.238281 83.089844 13.28125 83.636719 17.933594 83.820312 C 18.722656 83.851562 21.1875 83.851562 21.90625 83.820312 C 24.644531 83.699219 26.777344 83.421875 28.460938 82.960938 C 30.605469 82.375 31.835938 81.539062 32.152344 80.449219 C 32.175781 80.363281 32.207031 80.285156 32.226562 80.277344 C 32.269531 80.253906 33.351562 80.460938 35.605469 80.925781 C 37.664062 81.351562 38.617188 81.535156 39.597656 81.695312 C 42.574219 82.191406 45.039062 82.3125 47.585938 82.085938 C 48.871094 81.972656 50.332031 81.730469 51.945312 81.378906 C 52.972656 81.152344 53.632812 80.972656 53.769531 80.882812 C 53.796875 80.863281 53.832031 80.820312 53.847656 80.78125 C 53.875 80.71875 53.871094 80.703125 53.839844 80.636719 C 53.796875 80.550781 53.683594 80.488281 53.476562 80.445312 C 53.191406 80.382812 52.863281 80.425781 51.59375 80.691406 C 49.253906 81.183594 48.074219 81.351562 46.332031 81.453125 C 45.78125 81.484375 44.242188 81.484375 43.664062 81.453125 C 41.273438 81.324219 39.636719 81.066406 35.382812 80.167969 C 34.121094 79.902344 32.742188 79.621094 32.382812 79.558594 C 32.289062 79.542969 32.222656 79.519531 32.191406 79.492188 C 32.167969 79.46875 32.125 79.378906 32.09375 79.292969 C 31.945312 78.855469 31.640625 78.425781 31.121094 77.910156 C 30.984375 77.773438 30.871094 77.652344 30.871094 77.644531 C 30.871094 77.632812 30.984375 77.507812 31.125 77.363281 C 31.265625 77.222656 31.433594 77.035156 31.5 76.957031 C 32.613281 75.585938 32.984375 74.011719 32.621094 72.203125 C 32.164062 69.921875 30.503906 67.308594 27.355469 63.910156 C 26.3125 62.78125 24.773438 61.230469 22.515625 59.039062 C 21.746094 58.292969 21.117188 57.671875 21.117188 57.660156 C 21.117188 57.648438 21.519531 57.234375 22.011719 56.742188 C 22.925781 55.820312 23.300781 55.429688 23.945312 54.722656 C 28.199219 50.054688 30.554688 45.929688 30.921875 42.507812 C 30.960938 42.140625 30.964844 41.425781 30.929688 41.089844 C 30.804688 39.84375 30.351562 38.832031 29.53125 37.964844 C 29.433594 37.863281 29.355469 37.777344 29.355469 37.773438 C 29.355469 37.765625 29.460938 37.730469 29.59375 37.6875 C 30.679688 37.355469 31.449219 36.976562 31.875 36.554688 C 32.398438 36.039062 32.457031 35.449219 32.039062 34.886719 C 31.761719 34.511719 31.292969 34.164062 30.589844 33.8125 C 28.136719 32.59375 23.878906 31.953125 20.113281 32.242188 C 17.253906 32.460938 14.839844 33.167969 13.121094 34.289062 C 12.078125 34.976562 11.332031 35.753906 10.800781 36.71875 C 10.695312 36.914062 10.65625 36.964844 10.621094 36.964844 C 10.5625 36.964844 9.875 36.730469 9.492188 36.578125 C 7.949219 35.972656 7.046875 35.3125 6.882812 34.664062 C 6.753906 34.171875 7.011719 33.636719 7.714844 32.933594 C 8.28125 32.367188 8.902344 31.878906 10.78125 30.519531 C 12.398438 29.351562 13.085938 28.832031 14.015625 28.09375 C 16.007812 26.496094 17.417969 25.101562 18.539062 23.609375 C 19.636719 22.148438 20.394531 20.527344 20.410156 19.628906 C 20.410156 19.484375 20.40625 19.4375 20.378906 19.414062 C 20.351562 19.382812 20.34375 19.382812 20.308594 19.429688 Z M 23.464844 32.65625 C 26.691406 32.894531 29.457031 33.613281 30.96875 34.613281 C 31.257812 34.800781 31.585938 35.121094 31.6875 35.3125 C 31.75 35.433594 31.753906 35.457031 31.753906 35.609375 C 31.753906 35.832031 31.710938 35.925781 31.5 36.140625 C 31.246094 36.394531 30.863281 36.617188 30.308594 36.84375 C 29.859375 37.023438 28.957031 37.300781 28.816406 37.300781 C 28.78125 37.300781 28.6875 37.253906 28.566406 37.175781 C 27.28125 36.335938 25.625 35.84375 23.488281 35.65625 C 22.980469 35.613281 21.460938 35.605469 20.980469 35.648438 C 18.359375 35.863281 16.292969 36.484375 14.5625 37.582031 C 14.339844 37.726562 14.269531 37.757812 14.207031 37.757812 C 14.105469 37.757812 13.417969 37.640625 12.808594 37.519531 C 12.242188 37.40625 11.1875 37.148438 11.136719 37.113281 C 11.105469 37.089844 11.113281 37.074219 11.195312 36.910156 C 11.554688 36.210938 12.1875 35.492188 12.929688 34.933594 C 14.707031 33.597656 17.34375 32.8125 20.652344 32.628906 C 21.148438 32.601562 22.964844 32.617188 23.464844 32.65625 Z M 23.21875 36.128906 C 24.644531 36.21875 25.925781 36.480469 27.015625 36.90625 C 27.285156 37.011719 27.972656 37.351562 28.0625 37.417969 C 28.089844 37.441406 28.109375 37.464844 28.097656 37.46875 C 28.082031 37.488281 27.929688 37.519531 27.449219 37.609375 C 24.5625 38.140625 20.65625 38.320312 17.199219 38.085938 C 16.34375 38.027344 15.019531 37.894531 14.992188 37.867188 C 14.945312 37.824219 15.855469 37.363281 16.480469 37.113281 C 18.402344 36.34375 20.871094 35.984375 23.21875 36.128906 Z M 11.078125 37.679688 C 11.558594 37.820312 12.460938 38.023438 13.167969 38.15625 C 13.410156 38.199219 13.613281 38.242188 13.621094 38.253906 C 13.628906 38.261719 13.539062 38.351562 13.425781 38.453125 C 12.964844 38.867188 12.488281 39.441406 12.167969 39.976562 C 11.042969 41.847656 11.050781 44.089844 12.191406 46.007812 C 13.4375 48.105469 16 49.632812 19.125 50.144531 C 19.316406 50.179688 19.539062 50.210938 19.617188 50.21875 C 19.699219 50.226562 19.773438 50.238281 19.785156 50.25 C 19.816406 50.269531 19.824219 50.234375 19.679688 50.726562 C 19.265625 52.136719 19.152344 53.8125 19.359375 55.546875 C 19.375 55.6875 19.394531 55.828125 19.398438 55.859375 C 19.40625 55.898438 19.402344 55.914062 19.382812 55.914062 C 19.320312 55.914062 17.699219 54.179688 16.867188 53.222656 C 13.101562 48.882812 10.949219 44.730469 10.539062 41 C 10.496094 40.597656 10.480469 39.75 10.507812 39.378906 C 10.558594 38.757812 10.691406 38.109375 10.847656 37.691406 C 10.875 37.628906 10.898438 37.628906 11.078125 37.679688 Z M 28.816406 37.957031 C 28.855469 37.980469 28.988281 38.105469 29.117188 38.230469 C 29.863281 38.980469 30.273438 39.863281 30.402344 40.996094 C 30.445312 41.335938 30.433594 42.195312 30.382812 42.550781 C 30.113281 44.523438 29.203125 46.644531 27.597656 49.078125 C 26.453125 50.804688 24.929688 52.710938 23.207031 54.5625 C 22.304688 55.539062 20.691406 57.167969 20.632812 57.167969 C 20.621094 57.167969 20.480469 57.035156 20.316406 56.875 C 20.121094 56.671875 20.023438 56.558594 20.003906 56.511719 C 19.972656 56.402344 19.867188 55.738281 19.828125 55.347656 C 19.761719 54.761719 19.738281 54.246094 19.75 53.628906 C 19.769531 52.847656 19.832031 52.253906 19.964844 51.601562 C 20.074219 51.074219 20.277344 50.378906 20.339844 50.316406 C 20.359375 50.292969 20.390625 50.289062 20.460938 50.296875 C 20.847656 50.339844 21.835938 50.324219 22.433594 50.257812 C 24.34375 50.050781 25.671875 49.371094 26.03125 48.429688 C 26.15625 48.101562 26.140625 47.722656 25.984375 47.417969 C 25.734375 46.921875 25.203125 46.589844 24.484375 46.488281 C 24.253906 46.457031 23.734375 46.476562 23.476562 46.527344 C 22.863281 46.652344 22.195312 46.976562 21.683594 47.40625 C 21.066406 47.925781 20.597656 48.550781 20.1875 49.386719 C 20.09375 49.574219 20.011719 49.738281 20 49.742188 C 19.957031 49.769531 18.945312 49.621094 18.457031 49.511719 C 16.777344 49.140625 15.308594 48.472656 14.148438 47.546875 C 13.828125 47.289062 13.265625 46.734375 13.03125 46.4375 C 12.109375 45.285156 11.664062 43.964844 11.746094 42.628906 C 11.789062 41.90625 11.953125 41.300781 12.28125 40.632812 C 12.574219 40.039062 12.933594 39.539062 13.417969 39.054688 C 13.691406 38.777344 14.132812 38.402344 14.222656 38.367188 C 14.273438 38.34375 14.351562 38.347656 14.710938 38.398438 C 16.4375 38.625 18.105469 38.722656 20.273438 38.722656 C 22.996094 38.722656 25.285156 38.550781 27.363281 38.195312 C 27.671875 38.140625 28.492188 37.976562 28.652344 37.9375 C 28.742188 37.914062 28.746094 37.914062 28.816406 37.957031 Z M 24.652344 47.046875 C 25.460938 47.265625 25.796875 47.875 25.417969 48.449219 C 25.003906 49.082031 23.84375 49.570312 22.351562 49.742188 C 21.675781 49.816406 20.5625 49.828125 20.5625 49.757812 C 20.5625 49.710938 20.824219 49.207031 20.964844 48.984375 C 21.242188 48.542969 21.660156 48.058594 22.015625 47.777344 C 22.503906 47.378906 23.046875 47.125 23.617188 47.019531 C 23.859375 46.972656 24.441406 46.988281 24.652344 47.046875 Z M 22.003906 59.308594 C 25.257812 62.496094 26.691406 63.96875 27.984375 65.460938 C 30.574219 68.445312 31.847656 70.671875 32.136719 72.742188 C 32.183594 73.085938 32.183594 73.816406 32.136719 74.132812 C 31.96875 75.230469 31.484375 76.164062 30.644531 77 C 30.5 77.144531 30.414062 77.214844 30.390625 77.210938 C 30.355469 77.203125 29.71875 76.671875 29.171875 76.183594 C 28.679688 75.75 28.222656 75.304688 28.222656 75.261719 C 28.222656 75.242188 28.246094 75.148438 28.273438 75.058594 C 28.339844 74.824219 28.382812 74.492188 28.382812 74.199219 C 28.382812 73.296875 28.082031 72.285156 27.414062 70.949219 C 26.890625 69.902344 26.382812 69.054688 24.910156 66.785156 C 22.796875 63.523438 21.941406 62.023438 21.15625 60.191406 C 20.882812 59.546875 20.460938 58.40625 20.460938 58.304688 C 20.460938 58.265625 20.660156 58.0625 20.699219 58.0625 C 20.71875 58.0625 21.304688 58.625 22.003906 59.308594 Z M 20.183594 59.019531 C 20.664062 60.398438 21.351562 61.859375 22.28125 63.480469 C 22.816406 64.410156 23.300781 65.195312 24.429688 66.953125 C 25.871094 69.207031 26.378906 70.054688 26.898438 71.089844 C 27.527344 72.347656 27.816406 73.246094 27.859375 74.078125 C 27.871094 74.304688 27.839844 74.6875 27.804688 74.785156 L 27.78125 74.835938 L 27.621094 74.667969 C 27.210938 74.242188 26.742188 73.679688 25.679688 72.363281 C 24.46875 70.847656 24.09375 70.421875 23.28125 69.605469 C 22.136719 68.46875 21.207031 67.773438 20.511719 67.539062 C 20.285156 67.460938 19.964844 67.449219 19.769531 67.503906 C 19.492188 67.589844 19.3125 67.730469 18.933594 68.164062 C 18.195312 69.007812 17.855469 69.3125 17.117188 69.804688 C 16.558594 70.183594 16.089844 70.4375 14.699219 71.128906 C 13.363281 71.792969 12.972656 72.003906 12.511719 72.3125 C 11.21875 73.167969 10.746094 74.0625 11.113281 74.945312 C 11.285156 75.359375 11.703125 75.789062 12.289062 76.152344 C 14.105469 77.285156 17.816406 78.050781 21.136719 77.980469 C 24.046875 77.925781 26.222656 77.386719 27.347656 76.449219 C 27.507812 76.316406 27.703125 76.117188 27.792969 75.996094 C 27.824219 75.957031 27.859375 75.921875 27.867188 75.921875 C 27.878906 75.921875 27.996094 76.023438 28.132812 76.144531 C 28.480469 76.472656 28.867188 76.8125 29.382812 77.25 C 29.683594 77.507812 29.835938 77.648438 29.832031 77.667969 C 29.824219 77.707031 29.480469 77.945312 29.148438 78.144531 C 28.683594 78.421875 27.878906 78.8125 27.707031 78.84375 C 27.644531 78.855469 27.445312 78.847656 27.089844 78.816406 C 23.328125 78.476562 19.066406 78.574219 14.820312 79.09375 C 14.503906 79.136719 14.207031 79.164062 14.167969 79.15625 C 14.074219 79.144531 13.566406 78.898438 13.195312 78.6875 C 11.789062 77.882812 10.714844 76.863281 9.96875 75.621094 C 9.507812 74.851562 9.179688 73.96875 9.039062 73.128906 C 8.914062 72.339844 8.9375 71.441406 9.109375 70.679688 C 9.414062 69.316406 10.15625 67.992188 11.410156 66.566406 C 12.378906 65.457031 13.417969 64.488281 16.152344 62.121094 C 17.855469 60.644531 19.070312 59.566406 19.882812 58.804688 C 19.957031 58.734375 20.027344 58.683594 20.042969 58.6875 C 20.058594 58.6875 20.117188 58.828125 20.183594 59.019531 Z M 20.347656 68.125 C 20.882812 68.308594 21.722656 68.933594 22.625 69.824219 C 23.410156 70.59375 23.964844 71.242188 25.199219 72.820312 C 26.171875 74.066406 26.5625 74.53125 27.222656 75.238281 C 27.367188 75.394531 27.488281 75.53125 27.488281 75.542969 C 27.488281 75.574219 27.347656 75.746094 27.210938 75.886719 C 26.535156 76.582031 25.222656 77.074219 23.382812 77.320312 C 22.488281 77.441406 21.832031 77.480469 20.691406 77.480469 C 19.703125 77.480469 19.34375 77.464844 18.519531 77.390625 C 14.703125 77.042969 11.722656 75.832031 11.507812 74.542969 C 11.433594 74.113281 11.695312 73.632812 12.261719 73.179688 C 12.757812 72.78125 13.359375 72.4375 14.671875 71.820312 C 17.332031 70.554688 18.160156 69.996094 19.289062 68.691406 C 19.679688 68.238281 19.773438 68.15625 19.941406 68.09375 C 20.03125 68.058594 20.195312 68.070312 20.347656 68.125 Z M 30.636719 78.363281 C 30.949219 78.667969 31.101562 78.851562 31.273438 79.113281 C 31.398438 79.308594 31.414062 79.363281 31.339844 79.363281 C 31.3125 79.363281 31.074219 79.324219 30.804688 79.28125 C 30.539062 79.238281 30.027344 79.164062 29.664062 79.113281 C 29.304688 79.0625 28.984375 79.015625 28.949219 79.003906 L 28.890625 78.992188 L 28.96875 78.941406 C 29.011719 78.914062 29.15625 78.832031 29.289062 78.757812 C 29.515625 78.628906 30.054688 78.277344 30.222656 78.152344 C 30.265625 78.117188 30.3125 78.089844 30.332031 78.089844 C 30.347656 78.089844 30.484375 78.210938 30.636719 78.363281 Z M 24.3125 79.402344 C 25.136719 79.433594 25.722656 79.464844 25.785156 79.480469 L 25.84375 79.496094 L 25.785156 79.519531 C 25.753906 79.53125 25.503906 79.601562 25.226562 79.671875 C 22.3125 80.40625 19.28125 80.519531 16.730469 79.984375 C 16.183594 79.871094 15.730469 79.746094 15.757812 79.71875 C 15.808594 79.667969 18.339844 79.480469 19.792969 79.417969 C 21.136719 79.363281 23.078125 79.355469 24.3125 79.402344 Z M 28.160156 79.671875 C 29.289062 79.792969 31.34375 80.078125 31.484375 80.136719 C 31.539062 80.164062 31.539062 80.210938 31.46875 80.386719 C 31.207031 81.050781 30.289062 81.671875 28.898438 82.117188 C 26.027344 83.039062 20.988281 83.398438 15.984375 83.039062 C 12.488281 82.789062 8.933594 82.195312 7.898438 81.6875 C 7.617188 81.550781 7.605469 81.507812 7.816406 81.367188 C 8.554688 80.867188 11.023438 80.289062 14.070312 79.898438 C 14.601562 79.832031 14.5625 79.828125 14.988281 79.976562 C 16.382812 80.472656 17.886719 80.75 19.617188 80.835938 C 20.136719 80.859375 21.261719 80.847656 21.765625 80.8125 C 23.640625 80.679688 25.40625 80.328125 27.078125 79.75 C 27.523438 79.597656 27.492188 79.601562 28.160156 79.671875 Z M 28.160156 79.671875 " fill-opacity="1" fill-rule="nonzero"/></g></svg>