<svg xmlns="http://www.w3.org/2000/svg" xmlns:xlink="http://www.w3.org/1999/xlink" width="250" zoomAndPan="magnify" viewBox="0 0 187.5 112.499997" height="150" preserveAspectRatio="xMidYMid meet" version="1.0"><defs><g/><clipPath id="77bf580503"><path d="M 11.796875 16.121094 L 133.082031 16.121094 L 133.082031 111.949219 L 11.796875 111.949219 Z M 11.796875 16.121094 " clip-rule="nonzero"/></clipPath><clipPath id="526acbf9cc"><path d="M 29.347656 30 L 55.96875 30 L 55.96875 31.386719 L 29.347656 31.386719 Z M 29.347656 30 " clip-rule="nonzero"/></clipPath><clipPath id="934f7cb4fe"><path d="M 29.347656 30.847656 C 47.441406 30.722656 55.800781 30.097656 55.800781 30.140625 C 55.800781 30.179688 47.441406 30.929688 43.113281 31.054688 C 38.621094 31.179688 29.347656 30.847656 29.347656 30.847656 " clip-rule="nonzero"/></clipPath><clipPath id="0c216405fb"><path d="M 60.128906 28.351562 L 76 28.351562 L 76 30 L 60.128906 30 Z M 60.128906 28.351562 " clip-rule="nonzero"/></clipPath><clipPath id="02b4b96496"><path d="M 60.128906 29.765625 C 71.316406 29.558594 75.976562 28.726562 75.976562 28.765625 C 75.976562 28.808594 71.316406 29.765625 68.820312 29.933594 C 66.074219 30.140625 60.128906 29.765625 60.128906 29.765625 " clip-rule="nonzero"/></clipPath><clipPath id="4abd86a9db"><path d="M 78.179688 26 L 81 26 L 81 28.433594 L 78.179688 28.433594 Z M 78.179688 26 " clip-rule="nonzero"/></clipPath><clipPath id="8ed3ca3a32"><path d="M 78.179688 28.226562 C 83.171875 24.273438 78.179688 28.226562 78.179688 28.226562 " clip-rule="nonzero"/></clipPath><clipPath id="9b1993f792"><path d="M 78.304688 27 L 81 27 L 81 28.640625 L 78.304688 28.640625 Z M 78.304688 27 " clip-rule="nonzero"/></clipPath><clipPath id="288bbb8379"><path d="M 78.304688 28.351562 C 82.257812 26.148438 78.304688 28.351562 78.304688 28.351562 " clip-rule="nonzero"/></clipPath><clipPath id="145e53c897"><path d="M 78.261719 26 L 81 26 L 81 27.976562 L 78.261719 27.976562 Z M 78.261719 26 " clip-rule="nonzero"/></clipPath><clipPath id="a02972dc38"><path d="M 78.261719 27.894531 C 82.464844 24.234375 78.261719 27.894531 78.261719 27.894531 " clip-rule="nonzero"/></clipPath><clipPath id="6bda35c15f"><path d="M 78.429688 26 L 82 26 L 82 28 L 78.429688 28 Z M 78.429688 26 " clip-rule="nonzero"/></clipPath><clipPath id="5a206f0350"><path d="M 78.429688 27.851562 C 82.339844 25.648438 81.589844 26.355469 81.089844 26.6875 C 80.382812 27.144531 78.429688 27.851562 78.429688 27.851562 " clip-rule="nonzero"/></clipPath><clipPath id="3598590d5b"><path d="M 29 30 L 56.507812 30 L 56.507812 30.804688 L 29 30.804688 Z M 29 30 " clip-rule="nonzero"/></clipPath><clipPath id="28ecb1e7eb"><path d="M 56.300781 30.597656 C 22.402344 30.804688 29.015625 30.472656 33.339844 30.390625 C 39.578125 30.265625 56.300781 30.597656 56.300781 30.597656 " clip-rule="nonzero"/></clipPath><clipPath id="f68539c935"><path d="M 60.253906 29.058594 L 75.644531 29.058594 L 75.644531 30.722656 L 60.253906 30.722656 Z M 60.253906 29.058594 " clip-rule="nonzero"/></clipPath><clipPath id="49459e65d9"><path d="M 60.253906 30.265625 C 71.484375 30.058594 75.308594 29.433594 75.308594 29.472656 C 75.308594 29.515625 71.523438 30.222656 69.320312 30.390625 C 66.617188 30.554688 60.253906 30.265625 60.253906 30.265625 " clip-rule="nonzero"/></clipPath><clipPath id="2c2f15d65e"><path d="M 29.472656 30 L 54.84375 30 L 54.84375 31.597656 L 29.472656 31.597656 Z M 29.472656 30 " clip-rule="nonzero"/></clipPath><clipPath id="056669e9e2"><path d="M 29.472656 30.972656 C 47.855469 30.847656 54.679688 30.058594 54.71875 30.347656 C 54.761719 30.429688 54.054688 30.722656 53.390625 30.847656 C 51.683594 31.179688 47.441406 31.136719 43.988281 31.179688 C 39.664062 31.222656 29.472656 30.972656 29.472656 30.972656 " clip-rule="nonzero"/></clipPath><clipPath id="ed5d056dfe"><path d="M 59.878906 29.226562 L 78 29.226562 L 78 30.890625 L 59.878906 30.890625 Z M 59.878906 29.226562 " clip-rule="nonzero"/></clipPath><clipPath id="2a203243a3"><path d="M 59.878906 30.265625 C 73.148438 29.972656 77.929688 29.226562 77.929688 29.226562 C 77.929688 29.226562 71.148438 30.304688 67.988281 30.472656 C 65.160156 30.597656 59.878906 30.265625 59.878906 30.265625 " clip-rule="nonzero"/></clipPath><clipPath id="17add2b45f"><path d="M 58.339844 29.183594 L 74.144531 29.183594 L 74.144531 30.847656 L 58.339844 30.847656 Z M 58.339844 29.183594 " clip-rule="nonzero"/></clipPath><clipPath id="360247ca28"><path d="M 58.339844 30.515625 C 69.609375 30.265625 74.019531 29.558594 74.019531 29.597656 C 74.019531 29.640625 69.609375 30.472656 67.15625 30.640625 C 64.410156 30.847656 58.339844 30.515625 58.339844 30.515625 " clip-rule="nonzero"/></clipPath><clipPath id="f9be63e856"><path d="M 78.429688 25 L 83 25 L 83 28 L 78.429688 28 Z M 78.429688 25 " clip-rule="nonzero"/></clipPath><clipPath id="551a4d4633"><path d="M 78.429688 27.976562 C 83.460938 24.773438 82.753906 25.480469 82.214844 25.898438 C 81.339844 26.5625 78.429688 27.976562 78.429688 27.976562 " clip-rule="nonzero"/></clipPath><clipPath id="1f0d6d5eb6"><path d="M 78.386719 27 L 80 27 L 80 28.144531 L 78.386719 28.144531 Z M 78.386719 27 " clip-rule="nonzero"/></clipPath><clipPath id="d0fdb4ae80"><path d="M 78.386719 28.144531 C 81.089844 26.0625 78.386719 28.144531 78.386719 28.144531 " clip-rule="nonzero"/></clipPath><clipPath id="4781f18b05"><path d="M 78.636719 27.269531 L 80 27.269531 L 80 28.101562 L 78.636719 28.101562 Z M 78.636719 27.269531 " clip-rule="nonzero"/></clipPath><clipPath id="5198d97fee"><path d="M 78.636719 28.101562 C 81.089844 27.269531 78.636719 28.101562 78.636719 28.101562 " clip-rule="nonzero"/></clipPath><clipPath id="670d965a22"><path d="M 78.222656 27 L 81 27 L 81 28.558594 L 78.222656 28.558594 Z M 78.222656 27 " clip-rule="nonzero"/></clipPath><clipPath id="44b7035271"><path d="M 78.222656 28.394531 C 82.296875 25.648438 78.222656 28.394531 78.222656 28.394531 " clip-rule="nonzero"/></clipPath><clipPath id="0d971b4009"><path d="M 78.761719 26 L 81 26 L 81 28.226562 L 78.761719 28.226562 Z M 78.761719 26 " clip-rule="nonzero"/></clipPath><clipPath id="8bd9d3d171"><path d="M 78.761719 28.183594 C 81.589844 24.484375 78.761719 28.183594 78.761719 28.183594 " clip-rule="nonzero"/></clipPath><clipPath id="da752a2844"><path d="M 78.636719 27 L 81 27 L 81 28.519531 L 78.636719 28.519531 Z M 78.636719 27 " clip-rule="nonzero"/></clipPath><clipPath id="e8ca986912"><path d="M 78.636719 28.226562 C 82.503906 25.605469 78.636719 28.226562 78.636719 28.226562 " clip-rule="nonzero"/></clipPath><clipPath id="e4a0c0d4eb"><path d="M 78.929688 26 L 82 26 L 82 28.394531 L 78.929688 28.394531 Z M 78.929688 26 " clip-rule="nonzero"/></clipPath><clipPath id="066c939cc6"><path d="M 78.929688 28.058594 C 84.085938 24.234375 78.929688 28.058594 78.929688 28.058594 " clip-rule="nonzero"/></clipPath><clipPath id="6f5eddbc42"><path d="M 78.679688 26 L 81 26 L 81 28 L 78.679688 28 Z M 78.679688 26 " clip-rule="nonzero"/></clipPath><clipPath id="121f086738"><path d="M 78.679688 27.976562 C 82.714844 25.523438 78.679688 27.976562 78.679688 27.976562 " clip-rule="nonzero"/></clipPath><clipPath id="c1e193cafa"><path d="M 78.761719 26 L 81 26 L 81 27.851562 L 78.761719 27.851562 Z M 78.761719 26 " clip-rule="nonzero"/></clipPath><clipPath id="036cbe98c7"><path d="M 78.761719 27.769531 C 82.628906 25.773438 78.761719 27.769531 78.761719 27.769531 " clip-rule="nonzero"/></clipPath><clipPath id="503706d7e0"><path d="M 18.007812 7.949219 L 35.480469 7.949219 L 35.480469 31.660156 L 18.007812 31.660156 Z M 18.007812 7.949219 " clip-rule="nonzero"/></clipPath></defs><g clip-path="url(#77bf580503)"><path fill="#5271ff" d="M 82.75 16.273438 C 82.546875 16.414062 82.601562 16.703125 82.878906 16.964844 C 83.433594 17.484375 84.96875 19.414062 85.613281 20.390625 C 87.65625 23.503906 87.074219 26.863281 84.183594 28.65625 C 83.769531 28.914062 82.605469 29.484375 81.410156 30.011719 C 76.007812 32.402344 72.8125 35.238281 70.429688 39.746094 C 69.136719 42.203125 68.585938 44.050781 68.613281 45.863281 L 68.625 46.632812 L 68.128906 46.117188 C 67.859375 45.832031 67.613281 45.570312 67.585938 45.53125 C 67.222656 45.023438 63.988281 42.167969 62.246094 40.820312 C 54.335938 34.699219 47.855469 31.957031 42.65625 32.523438 C 40.769531 32.726562 40.667969 32.8125 36.023438 37.910156 C 34.480469 39.601562 30.765625 43.269531 27.277344 46.539062 C 26.675781 47.101562 25.519531 48.21875 24.703125 49.023438 C 23.886719 49.824219 23.074219 50.613281 22.902344 50.777344 C 22.726562 50.9375 22.113281 51.523438 21.535156 52.082031 C 20.253906 53.316406 20.175781 53.382812 19.695312 53.652344 C 18.714844 54.207031 18.351562 54.78125 18.898438 54.914062 C 19.054688 54.949219 19.128906 54.953125 19.1875 54.921875 C 19.273438 54.875 20.207031 54.183594 20.394531 54.027344 C 20.851562 53.648438 24.390625 52.164062 26.503906 51.464844 C 27.738281 51.058594 29.375 50.632812 30.679688 50.386719 C 31.367188 50.253906 32.582031 50.0625 32.644531 50.074219 C 32.71875 50.089844 31.792969 50.726562 30.601562 51.476562 C 29.394531 52.234375 25.238281 54.960938 23.652344 56.03125 C 19.765625 58.664062 16.089844 61.761719 13.171875 64.867188 C 12.324219 65.765625 12.167969 66.011719 12.269531 66.257812 C 12.394531 66.5625 12.523438 66.539062 13.695312 66.007812 C 15.167969 65.34375 16.394531 64.828125 18.070312 64.167969 L 18.269531 64.089844 L 18.148438 64.222656 C 16.472656 66.003906 11.914062 71.523438 11.855469 71.839844 C 11.792969 72.167969 11.960938 72.339844 12.183594 72.183594 C 12.359375 72.0625 13.234375 71.546875 13.933594 71.152344 C 14.292969 70.953125 14.664062 70.746094 14.757812 70.691406 C 14.847656 70.640625 14.925781 70.601562 14.925781 70.613281 C 14.925781 70.621094 14.75 71 14.535156 71.453125 C 13.460938 73.710938 13.554688 73.972656 15.261719 73.574219 C 16.40625 73.304688 16.378906 73.3125 20.398438 72.496094 L 20.945312 72.382812 L 20.84375 72.507812 C 19.316406 74.398438 18.605469 76.972656 19.027344 79.074219 C 19.253906 80.210938 20.308594 82.195312 21.070312 82.925781 C 21.171875 83.023438 22.078125 83.398438 25.613281 84.804688 L 30.027344 86.558594 L 29.59375 86.558594 C 28.890625 86.5625 26.039062 86.71875 25.898438 86.761719 C 25.703125 86.824219 25.691406 86.898438 25.691406 88.003906 C 25.691406 88.929688 25.699219 89.042969 25.789062 89.429688 C 26.152344 91.003906 26.210938 92.835938 25.949219 94.269531 C 25.707031 95.589844 24.808594 98.363281 24.464844 98.855469 C 24.179688 99.261719 24.109375 99.785156 24.3125 99.980469 C 24.652344 100.304688 30.207031 101.976562 39.6875 104.609375 C 40.011719 104.699219 41.207031 105.03125 42.335938 105.34375 C 43.648438 105.707031 44.589844 105.992188 44.929688 106.125 C 49.421875 107.890625 58.304688 110.3125 63.519531 111.191406 C 67.949219 111.941406 69.582031 111.703125 71.878906 109.984375 C 72.214844 109.730469 72.144531 109.753906 73.832031 109.375 C 74.871094 109.144531 79.171875 108.085938 80.835938 107.648438 C 88.921875 105.542969 92.15625 104.765625 96.117188 103.980469 C 98.949219 103.417969 100.523438 103.144531 107.679688 101.96875 C 114.609375 100.832031 118.871094 99.789062 122.359375 98.367188 C 125.195312 97.210938 125.382812 96.964844 125.292969 94.496094 C 125.1875 91.589844 125.042969 90.710938 124.359375 88.816406 C 123.527344 86.511719 123.238281 86.277344 119.535156 84.925781 C 118.253906 84.460938 117.085938 83.976562 116.34375 83.601562 C 116.042969 83.453125 116.042969 83.453125 116.023438 83.273438 C 116.003906 83.117188 115.96875 83.066406 115.746094 82.847656 C 114.839844 81.96875 113.96875 80.421875 113.617188 79.0625 C 113.121094 77.144531 113.382812 75.167969 114.628906 71.417969 L 114.851562 70.757812 L 115.550781 70.753906 C 116.621094 70.753906 116.761719 70.664062 116.734375 70.027344 C 116.71875 69.652344 116.589844 69.3125 116.207031 68.609375 L 115.960938 68.15625 L 116.105469 68.15625 C 116.183594 68.160156 116.4375 68.175781 116.664062 68.195312 C 116.894531 68.21875 117.625 68.261719 118.289062 68.292969 C 120.902344 68.425781 122.851562 68.71875 126.085938 69.476562 C 126.507812 69.574219 127.363281 69.753906 127.984375 69.871094 C 128.605469 69.992188 129.382812 70.152344 129.707031 70.230469 C 130.902344 70.507812 131.03125 70.527344 131.46875 70.515625 C 132.199219 70.492188 132.457031 70.28125 132.460938 69.703125 C 132.460938 69.230469 132.277344 68.839844 131.316406 67.234375 C 131.03125 66.757812 130.804688 66.363281 130.808594 66.359375 C 130.816406 66.351562 131.183594 66.507812 131.628906 66.707031 C 132.746094 67.199219 133.054688 67.210938 133.054688 66.75 C 133.046875 65.933594 130.542969 62.914062 127.925781 60.570312 C 125.789062 58.652344 124.058594 57.277344 121.890625 55.761719 C 121.550781 55.527344 121.019531 55.140625 120.707031 54.90625 C 120.390625 54.667969 120.082031 54.449219 120.015625 54.414062 L 119.894531 54.351562 L 120.25 54.226562 C 122.804688 53.300781 125.265625 51.550781 125.945312 50.175781 C 126.335938 49.386719 126.164062 49.203125 124.976562 49.15625 C 123.230469 49.089844 121.847656 48.640625 119.476562 47.371094 C 117.132812 46.113281 115.078125 45.125 112.625 44.078125 C 111.867188 43.75 111.269531 43.484375 110.113281 42.964844 C 109.160156 42.53125 107.566406 41.714844 106.589844 41.148438 C 105.324219 40.421875 102.679688 38.828125 102.214844 38.515625 L 101.636719 38.125 L 101.484375 37.761719 C 100.566406 35.578125 99.28125 33.875 95.664062 30.046875 C 93.621094 27.890625 91.992188 26.035156 88.582031 22.007812 C 86.675781 19.757812 85.25 18.214844 84.003906 17.058594 C 83.085938 16.203125 82.960938 16.125 82.75 16.273438 M 87.566406 21.851562 C 87.90625 22.25 88.546875 23.003906 88.992188 23.523438 C 89.441406 24.042969 89.945312 24.640625 90.121094 24.84375 C 91.441406 26.410156 93.328125 28.535156 94.710938 30.003906 C 96.886719 32.320312 97.453125 32.941406 98.167969 33.792969 C 99.199219 35.015625 100.144531 36.425781 100.65625 37.496094 C 100.777344 37.746094 100.898438 37.996094 100.929688 38.050781 C 101.40625 38.917969 101.691406 40.863281 101.503906 41.960938 C 101.144531 44.046875 99.957031 45.574219 96.136719 48.867188 C 92.925781 51.636719 91.488281 52.742188 87.964844 55.144531 C 83.113281 58.453125 81.011719 60.28125 79.527344 62.496094 C 78.542969 63.960938 78.152344 65.074219 77.410156 68.480469 C 77.261719 69.167969 77.128906 69.71875 77.113281 69.703125 C 77.097656 69.6875 76.980469 69.355469 76.847656 68.964844 C 76.714844 68.574219 76.328125 67.449219 75.984375 66.460938 C 75.644531 65.476562 75.066406 63.78125 74.703125 62.699219 C 73.882812 60.273438 72.964844 57.613281 72.324219 55.839844 C 70.269531 50.121094 69.832031 48.878906 69.570312 48.019531 C 68.863281 45.714844 69.195312 43.644531 70.761719 40.53125 C 73.011719 36.058594 76.335938 32.964844 81.214844 30.796875 C 83.9375 29.589844 84.628906 29.226562 85.414062 28.585938 C 87.496094 26.890625 88.050781 23.730469 86.730469 21.042969 L 86.574219 20.726562 L 86.765625 20.925781 C 86.867188 21.035156 87.230469 21.449219 87.566406 21.851562 M 45.644531 33.164062 C 49.253906 33.613281 53.105469 35.289062 57.835938 38.472656 C 61.835938 41.160156 64.988281 43.757812 67.542969 46.46875 C 68.75 47.75 68.890625 47.925781 69 48.308594 C 69.15625 48.84375 69.636719 50.230469 70.652344 53.0625 C 72.449219 58.070312 73.128906 60.007812 74.523438 64.136719 C 75.226562 66.21875 75.941406 68.285156 76.222656 69.0625 C 76.320312 69.332031 76.378906 69.527344 76.351562 69.496094 C 76.328125 69.460938 76.191406 69.285156 76.050781 69.101562 C 68.347656 59.050781 55.335938 51.3125 43.25 49.597656 C 35.671875 48.523438 29.6875 49.300781 22.546875 52.289062 C 22.3125 52.390625 22.109375 52.464844 22.101562 52.457031 C 22.09375 52.449219 22.449219 52.109375 22.890625 51.699219 C 23.332031 51.292969 24.386719 50.273438 25.238281 49.4375 C 26.085938 48.601562 27.269531 47.457031 27.871094 46.894531 C 31.75 43.253906 34.871094 40.160156 36.835938 38.007812 C 40.109375 34.425781 40.816406 33.726562 41.460938 33.4375 C 42.257812 33.082031 44.039062 32.964844 45.644531 33.164062 M 102.207031 39.300781 C 102.332031 39.386719 102.878906 39.714844 103.421875 40.039062 C 103.964844 40.359375 104.722656 40.804688 105.097656 41.03125 C 107.460938 42.441406 109.292969 43.351562 112.527344 44.726562 C 114.589844 45.605469 115.996094 46.277344 118.476562 47.574219 C 121.839844 49.332031 123.203125 49.792969 125.042969 49.792969 C 125.246094 49.792969 125.414062 49.800781 125.414062 49.8125 C 125.414062 49.941406 124.730469 50.738281 124.261719 51.15625 C 122.183594 53.015625 119.203125 54.226562 115.953125 54.539062 C 114.066406 54.71875 112.472656 54.664062 108.667969 54.285156 C 104.53125 53.871094 102.5625 53.832031 99.761719 54.109375 C 95.355469 54.546875 91.539062 55.921875 88.359375 58.222656 C 83.953125 61.414062 80.175781 66.40625 78.921875 70.707031 C 78.566406 71.933594 78.574219 72.394531 78.957031 72.394531 C 79.1875 72.394531 79.226562 72.34375 79.238281 72.042969 C 79.285156 70.609375 81.023438 67.046875 82.878906 64.585938 C 87.128906 58.949219 92.304688 55.757812 98.613281 54.878906 C 100.375 54.632812 101.226562 54.578125 103.265625 54.582031 C 105.289062 54.582031 105.570312 54.601562 108.507812 54.894531 C 113.667969 55.410156 116.226562 55.363281 118.695312 54.703125 L 119.042969 54.613281 L 119.382812 54.800781 C 119.570312 54.90625 119.96875 55.175781 120.265625 55.402344 C 120.558594 55.625 121.078125 56 121.414062 56.234375 C 125.394531 59.007812 129.078125 62.277344 131.050781 64.789062 C 131.507812 65.363281 132.074219 66.152344 132.050781 66.171875 C 132.042969 66.179688 131.558594 65.976562 130.972656 65.71875 C 130.386719 65.464844 129.585938 65.113281 129.195312 64.945312 C 128.800781 64.777344 127.722656 64.308594 126.800781 63.898438 C 119.054688 60.492188 115.164062 59.398438 109.421875 59.007812 C 108.460938 58.941406 105.148438 58.941406 104.253906 59.007812 C 95.199219 59.667969 88.636719 62.273438 83.988281 67.054688 C 82.34375 68.746094 80.675781 71.132812 80.421875 72.148438 C 80.3125 72.578125 80.839844 72.679688 80.996094 72.261719 C 81.359375 71.28125 83.042969 68.988281 84.484375 67.507812 C 88.984375 62.886719 95.121094 60.398438 103.839844 59.65625 C 104.863281 59.570312 108.546875 59.554688 109.578125 59.636719 C 115.089844 60.0625 118.949219 61.148438 126.0625 64.273438 C 126.730469 64.566406 127.304688 64.808594 127.335938 64.808594 C 127.367188 64.808594 127.394531 64.835938 127.394531 64.875 C 127.394531 64.96875 127.9375 66.082031 127.988281 66.101562 C 128.011719 66.109375 128.152344 66.296875 128.300781 66.515625 C 128.449219 66.734375 128.796875 67.234375 129.074219 67.625 C 129.351562 68.011719 129.5625 68.335938 129.542969 68.34375 C 129.523438 68.347656 128.972656 68.203125 128.320312 68.015625 C 124.871094 67.035156 122.570312 66.648438 118.820312 66.414062 C 117.773438 66.347656 113.152344 66.347656 111.734375 66.414062 C 106.863281 66.640625 103.566406 66.902344 97.464844 67.546875 C 90.890625 68.242188 88.320312 68.578125 84.894531 69.183594 C 83.992188 69.34375 83.683594 69.707031 83.527344 70.796875 C 83.261719 72.621094 82.269531 73.375 79.949219 73.515625 C 77.347656 73.675781 74.730469 73.082031 73.792969 72.121094 L 73.617188 71.941406 L 73.699219 71.851562 C 73.828125 71.714844 73.890625 71.464844 73.839844 71.273438 C 73.816406 71.183594 73.808594 71.113281 73.816406 71.113281 C 73.910156 71.113281 75.199219 72.253906 75.234375 72.371094 C 75.296875 72.566406 75.617188 72.578125 75.789062 72.394531 C 75.859375 72.316406 75.945312 72.253906 75.980469 72.253906 C 76.136719 72.253906 76.109375 72 75.898438 71.574219 C 73.109375 65.886719 60.265625 60.144531 48.21875 59.191406 C 39.960938 58.539062 27.359375 60.203125 19.398438 62.992188 C 18.425781 63.332031 15.847656 64.359375 14.636719 64.894531 C 14.140625 65.109375 13.726562 65.28125 13.714844 65.273438 C 13.691406 65.25 16.003906 62.964844 16.605469 62.417969 C 19.519531 59.769531 21.992188 57.890625 26.148438 55.160156 C 29.324219 53.074219 30.242188 52.476562 31.207031 51.863281 C 32.246094 51.207031 32.71875 50.890625 33.679688 50.195312 L 34.085938 49.902344 L 34.492188 49.867188 C 38.066406 49.550781 43.183594 50.003906 47.183594 50.992188 C 56.085938 53.191406 65.847656 58.910156 72.210938 65.65625 C 74.0625 67.621094 76.363281 70.433594 76.710938 71.160156 C 76.835938 71.421875 76.90625 71.449219 77.226562 71.390625 C 77.574219 71.324219 77.714844 71.148438 77.601562 70.929688 C 77.511719 70.765625 78.449219 66.566406 78.84375 65.34375 C 79.847656 62.242188 82.199219 59.855469 88.410156 55.636719 C 92.15625 53.09375 94.652344 51.132812 98.019531 48.097656 C 100.976562 45.429688 102.070312 43.671875 102.199219 41.371094 C 102.234375 40.746094 102.082031 39.394531 101.957031 39.1875 C 101.914062 39.121094 101.980469 39.152344 102.207031 39.300781 M 84.75 40.214844 C 82.882812 40.832031 80.4375 42.3125 78.863281 43.78125 C 78.253906 44.351562 78.203125 44.414062 78.207031 44.632812 C 78.214844 45.050781 78.472656 45.007812 79.019531 44.507812 C 80.8125 42.863281 83.28125 41.332031 84.976562 40.808594 C 85.5625 40.625 85.578125 40.617188 85.605469 40.472656 C 85.6875 40.035156 85.476562 39.972656 84.75 40.214844 M 43.898438 42.527344 C 43.761719 42.5625 43.761719 42.9375 43.894531 43.007812 C 43.933594 43.027344 44.140625 43.054688 44.359375 43.070312 C 47.128906 43.257812 49.625 43.882812 51.753906 44.914062 C 52.785156 45.414062 52.910156 45.4375 52.980469 45.140625 C 53.046875 44.863281 53.003906 44.824219 52.171875 44.410156 C 50.738281 43.695312 49.792969 43.367188 48.117188 43 C 46.558594 42.65625 44.34375 42.410156 43.898438 42.527344 M 88.003906 42.765625 C 87.757812 42.855469 84.96875 44.574219 84.082031 45.179688 C 81.324219 47.074219 78.671875 49.59375 76.671875 52.222656 C 76.300781 52.710938 76.230469 52.988281 76.453125 53.105469 C 76.628906 53.203125 76.785156 53.117188 77.039062 52.785156 C 79.699219 49.308594 82.835938 46.589844 87.183594 44 C 88.5625 43.175781 88.496094 43.226562 88.496094 42.996094 C 88.496094 42.757812 88.289062 42.660156 88.003906 42.765625 M 94.019531 44.128906 C 91.855469 45.015625 87.914062 47.648438 85.203125 50.015625 C 82.527344 52.351562 79.179688 56.128906 78.636719 57.417969 C 78.433594 57.910156 78.949219 58.0625 79.234375 57.597656 C 79.410156 57.304688 80.105469 56.375 80.613281 55.742188 C 84.230469 51.257812 88.941406 47.398438 93.777344 44.964844 C 94.601562 44.550781 94.644531 44.511719 94.59375 44.242188 C 94.554688 44.023438 94.367188 43.988281 94.019531 44.128906 M 41.421875 45.21875 C 41.320312 45.261719 41.269531 45.441406 41.324219 45.585938 C 41.371094 45.703125 41.449219 45.722656 42.398438 45.851562 C 44.613281 46.15625 47.617188 46.800781 49.703125 47.421875 C 54.507812 48.855469 57.9375 50.722656 62.285156 54.277344 C 62.585938 54.523438 62.882812 54.742188 62.949219 54.765625 C 63.425781 54.929688 63.539062 54.464844 63.109375 54.09375 C 58.003906 49.734375 53.011719 47.320312 46.101562 45.871094 C 44.140625 45.460938 41.679688 45.117188 41.421875 45.21875 M 46.929688 59.722656 C 52.347656 60.066406 57.035156 61.046875 61.9375 62.855469 C 68.09375 65.128906 72.597656 67.960938 74.75 70.914062 L 74.878906 71.09375 L 74.6875 70.941406 C 71.3125 68.226562 66.171875 66.1875 59.566406 64.945312 C 53.101562 63.726562 43.292969 63.285156 36.441406 63.902344 C 28.75 64.597656 18.988281 67.433594 13.796875 70.484375 C 13.59375 70.605469 13.574219 70.632812 14.601562 69.378906 C 16.296875 67.316406 17.617188 65.785156 19.195312 64.066406 C 19.675781 63.542969 19.5625 63.597656 21.019531 63.121094 C 24.496094 61.976562 28.636719 61.128906 34.621094 60.335938 C 39.148438 59.738281 43.652344 59.511719 46.929688 59.722656 M 47.742188 64.332031 C 58.058594 64.796875 66.246094 66.582031 71.277344 69.457031 C 72.292969 70.039062 72.53125 70.195312 72.179688 70.042969 C 71.617188 69.804688 69.519531 69.136719 68.546875 68.886719 C 67.179688 68.53125 66.445312 68.386719 65.21875 68.214844 C 64.851562 68.164062 64.164062 68.042969 63.691406 67.945312 C 59.351562 67.054688 55.449219 66.699219 50.632812 66.75 C 49.46875 66.761719 48.070312 66.800781 47.523438 66.832031 C 46.980469 66.863281 46.007812 66.910156 45.367188 66.933594 C 41.59375 67.074219 39.960938 67.226562 33.667969 68.039062 C 31.453125 68.324219 25.941406 69.167969 23.617188 69.578125 C 21.695312 69.914062 19.675781 70.351562 17.675781 70.859375 C 17.308594 70.953125 17 71.023438 16.988281 71.011719 C 16.953125 70.976562 17.433594 70.074219 17.746094 69.601562 L 18.078125 69.09375 L 18.707031 68.839844 C 24.886719 66.347656 32.53125 64.667969 39.171875 64.335938 C 39.628906 64.3125 40.121094 64.285156 40.261719 64.277344 C 40.816406 64.25 46.867188 64.292969 47.742188 64.332031 M 111.523438 67.222656 C 111.714844 67.53125 112.128906 68.351562 112.105469 68.371094 C 111.992188 68.484375 111.453125 68.492188 103.542969 68.480469 C 99.121094 68.476562 95.445312 68.457031 95.367188 68.441406 C 95.097656 68.378906 102.242188 67.660156 105.816406 67.390625 C 107.636719 67.25 110.554688 67.070312 111.183594 67.058594 L 111.417969 67.054688 L 111.523438 67.222656 M 51.601562 68.785156 C 57.0625 68.996094 61.839844 69.742188 66.84375 71.164062 L 67.59375 71.375 L 66.308594 71.792969 C 63.875 72.582031 61.746094 73.214844 59.5 73.820312 C 59.292969 73.875 59.007812 73.953125 58.867188 73.992188 C 56.449219 74.667969 51.992188 75.640625 49.933594 75.941406 C 48.046875 76.21875 47.027344 75.917969 40.65625 73.222656 C 40.058594 72.96875 38.550781 72.34375 37.3125 71.835938 C 34.539062 70.695312 33.351562 70.195312 33.394531 70.179688 C 33.5 70.148438 35.460938 69.800781 36.023438 69.714844 C 38.894531 69.277344 42.332031 68.957031 45.605469 68.828125 C 47.503906 68.75 50.183594 68.730469 51.601562 68.785156 M 106.253906 70.445312 C 106.960938 70.464844 108.8125 70.535156 110.371094 70.601562 C 111.925781 70.664062 113.347656 70.71875 113.527344 70.71875 C 113.707031 70.71875 113.855469 70.726562 113.855469 70.738281 C 113.855469 70.75 113.820312 70.828125 113.777344 70.910156 C 111.832031 74.703125 111.632812 79.105469 113.289062 81.625 C 113.363281 81.738281 113.472656 81.710938 112.03125 81.929688 C 111.367188 82.03125 108.554688 82.464844 105.777344 82.898438 C 103.003906 83.332031 99.242188 83.917969 97.425781 84.199219 C 95.605469 84.480469 91.109375 85.179688 87.429688 85.753906 C 79.820312 86.9375 74.246094 87.804688 70.566406 88.378906 C 69.171875 88.59375 66.722656 88.976562 65.121094 89.222656 C 61.414062 89.800781 53.328125 91.058594 51.1875 91.390625 C 50.28125 91.53125 49.515625 91.652344 49.480469 91.660156 C 49.339844 91.691406 48.65625 89.132812 48.339844 87.394531 C 47.683594 83.820312 47.730469 80.964844 48.476562 78.835938 C 48.707031 78.179688 48.664062 78.222656 49.117188 78.195312 C 49.6875 78.15625 50.621094 77.960938 53.046875 77.359375 C 53.710938 77.195312 55.296875 76.8125 56.570312 76.507812 C 59.605469 75.785156 61.488281 75.3125 64.601562 74.496094 C 66.007812 74.128906 68.027344 73.613281 69.085938 73.351562 L 71.011719 72.871094 L 71.578125 73.1875 C 71.890625 73.363281 72.378906 73.636719 72.664062 73.792969 C 74.339844 74.730469 75.871094 75.265625 77.988281 75.652344 C 80.910156 76.183594 83.601562 74.875 84.960938 72.269531 C 85.074219 72.054688 85.234375 71.769531 85.320312 71.636719 L 85.476562 71.394531 L 85.738281 71.351562 C 87.933594 71 93.589844 70.585938 98.214844 70.445312 C 99.695312 70.398438 104.804688 70.398438 106.253906 70.445312 M 29.542969 71.148438 C 29.742188 71.253906 30.007812 71.371094 30.132812 71.40625 C 30.257812 71.441406 30.71875 71.648438 31.164062 71.867188 C 32.324219 72.4375 33.214844 72.855469 34.71875 73.523438 C 40.035156 75.894531 41.867188 76.617188 44.261719 77.292969 C 45.585938 77.667969 47.582031 78.128906 47.878906 78.128906 C 48.03125 78.128906 48.03125 78.175781 47.863281 78.667969 C 47.132812 80.804688 47.066406 83.699219 47.667969 87.230469 C 47.890625 88.53125 48.28125 90.160156 48.621094 91.203125 C 48.6875 91.40625 48.734375 91.578125 48.722656 91.589844 C 48.714844 91.597656 48.40625 91.480469 48.035156 91.324219 C 47.667969 91.171875 47.222656 90.988281 47.050781 90.914062 C 46.875 90.84375 46.199219 90.5625 45.546875 90.292969 C 44.890625 90.023438 43.875 89.601562 43.289062 89.359375 C 42.703125 89.117188 41.953125 88.804688 41.625 88.667969 C 41.300781 88.53125 39.054688 87.601562 36.636719 86.601562 C 34.222656 85.601562 32.082031 84.714844 31.886719 84.628906 C 31.527344 84.480469 30.054688 83.867188 29.652344 83.703125 C 29.53125 83.652344 28.898438 83.390625 28.246094 83.121094 C 27.59375 82.851562 26.480469 82.386719 25.773438 82.09375 C 25.0625 81.800781 23.996094 81.359375 23.394531 81.113281 L 22.308594 80.664062 L 22.050781 80.152344 C 20.644531 77.382812 21.257812 74.738281 23.929688 72.03125 L 24.246094 71.710938 L 25.277344 71.546875 C 26.757812 71.3125 29.027344 70.960938 29.105469 70.957031 C 29.144531 70.957031 29.339844 71.042969 29.542969 71.148438 M 100.511719 71.453125 C 94.273438 71.59375 90.308594 71.839844 87.804688 72.238281 C 86.945312 72.375 86.90625 72.390625 86.875 72.566406 C 86.808594 72.96875 86.945312 73.011719 87.804688 72.871094 C 93.171875 72 107.144531 71.765625 109.90625 72.496094 C 110.410156 72.632812 110.574219 72.550781 110.507812 72.199219 C 110.453125 71.917969 108.976562 71.660156 106.550781 71.503906 C 105.90625 71.464844 101.636719 71.425781 100.511719 71.453125 M 27.59375 72.992188 C 27.503906 73.027344 27.476562 73.085938 27.472656 73.253906 C 27.472656 73.492188 27.375 73.4375 29.847656 74.601562 C 31.117188 75.195312 31.339844 75.300781 32.046875 75.625 C 33.195312 76.148438 33.601562 76.335938 34.835938 76.886719 C 41.90625 80.050781 41.929688 80.0625 42.023438 79.6875 C 42.082031 79.453125 42.015625 79.390625 41.425781 79.128906 C 40.386719 78.671875 33.878906 75.761719 32.996094 75.359375 C 32.230469 75.007812 30.140625 74.035156 29.136719 73.554688 C 27.867188 72.953125 27.78125 72.921875 27.59375 72.992188 M 104.074219 74.132812 C 100.402344 74.265625 98.765625 74.414062 94.671875 74.996094 C 92.277344 75.332031 92.179688 75.355469 92.144531 75.527344 C 92.050781 76.003906 92.023438 76.003906 94.949219 75.589844 C 98.648438 75.066406 100.300781 74.90625 103.304688 74.777344 C 104.835938 74.710938 108.222656 74.683594 108.800781 74.730469 C 109.375 74.777344 109.480469 74.757812 109.515625 74.585938 C 109.558594 74.398438 109.507812 74.273438 109.367188 74.226562 C 109.082031 74.132812 105.726562 74.074219 104.074219 74.132812 M 70.03125 75.277344 C 69.976562 75.285156 69.539062 75.34375 69.058594 75.410156 C 66.128906 75.808594 62.117188 76.621094 59.03125 77.441406 C 56.566406 78.097656 52.28125 79.460938 51.628906 79.796875 C 51.425781 79.902344 51.410156 80.222656 51.609375 80.296875 C 51.792969 80.367188 51.941406 80.332031 52.996094 79.964844 C 56.476562 78.753906 59.757812 77.828125 63.078125 77.121094 C 64.75 76.765625 68.222656 76.128906 69.613281 75.917969 C 70.457031 75.792969 70.542969 75.75 70.488281 75.460938 C 70.453125 75.277344 70.332031 75.230469 70.03125 75.277344 M 89.34375 75.621094 C 89.289062 75.679688 88.40625 75.808594 79.511719 77.0625 C 69.683594 78.449219 63.488281 79.640625 55.738281 81.636719 C 53.683594 82.167969 53.535156 82.234375 53.617188 82.5625 C 53.679688 82.800781 53.894531 82.792969 54.945312 82.503906 C 62.253906 80.492188 70.214844 78.96875 81.886719 77.359375 C 87.273438 76.613281 89.515625 76.253906 89.730469 76.097656 C 89.804688 76.042969 89.839844 75.726562 89.777344 75.660156 C 89.738281 75.625 89.375 75.589844 89.34375 75.621094 M 107.085938 76.710938 C 104.917969 76.808594 99.316406 77.285156 95.941406 77.65625 C 91.113281 78.1875 83.976562 79.296875 77.828125 80.476562 C 77.316406 80.574219 76.675781 80.695312 76.402344 80.746094 C 76.132812 80.800781 75.589844 80.90625 75.195312 80.980469 C 74.332031 81.148438 72.507812 81.484375 70.148438 81.90625 C 67.816406 82.328125 67.882812 82.300781 67.953125 82.679688 C 68 82.914062 68.117188 82.914062 69.515625 82.65625 C 70.113281 82.546875 71.113281 82.371094 71.734375 82.261719 C 72.957031 82.050781 73.644531 81.921875 75.019531 81.65625 C 76.179688 81.429688 77.605469 81.15625 78.421875 81.003906 C 78.78125 80.9375 79.253906 80.847656 79.472656 80.808594 C 84.167969 79.914062 91.214844 78.824219 95.425781 78.34375 C 99.867188 77.835938 106.707031 77.28125 109.023438 77.238281 C 109.492188 77.230469 109.90625 77.222656 109.941406 77.222656 C 110.101562 77.21875 110.074219 76.789062 109.910156 76.714844 C 109.796875 76.664062 108.207031 76.660156 107.085938 76.710938 M 25.503906 77.050781 C 25.433594 77.078125 25.402344 77.304688 25.453125 77.429688 C 25.585938 77.78125 33.515625 81.203125 36.703125 82.285156 C 37.554688 82.574219 37.695312 82.589844 37.769531 82.390625 C 37.878906 82.105469 37.832031 82.0625 37.082031 81.792969 C 34.550781 80.882812 29.320312 78.671875 26.589844 77.363281 C 25.898438 77.03125 25.699219 76.972656 25.503906 77.050781 M 110.410156 78.917969 C 108.746094 79.226562 102.414062 80.203125 99.839844 80.546875 C 97.289062 80.890625 96.222656 80.988281 94.613281 81.027344 C 93.359375 81.058594 93.28125 81.085938 93.367188 81.472656 C 93.453125 81.867188 96.707031 81.648438 101.839844 80.902344 C 105.875 80.316406 109.273438 79.757812 111.070312 79.386719 C 111.285156 79.34375 111.320312 79.300781 111.320312 79.097656 C 111.316406 78.828125 111.105469 78.785156 110.410156 78.917969 M 24.972656 79.253906 C 24.8125 79.300781 24.84375 79.703125 25.011719 79.78125 C 25.515625 80.011719 28.800781 81.398438 30.246094 81.988281 C 34.535156 83.75 36.753906 84.726562 40.894531 86.679688 C 45.945312 89.058594 46.75 89.347656 46.75 88.769531 C 46.75 88.574219 46.730469 88.554688 46.417969 88.453125 C 45.785156 88.246094 44.378906 87.617188 41.269531 86.148438 C 40.179688 85.632812 39.253906 85.199219 39.210938 85.183594 C 39.167969 85.164062 38.757812 84.976562 38.300781 84.769531 C 36.070312 83.742188 33.609375 82.679688 30.820312 81.535156 C 29.882812 81.152344 28.28125 80.484375 27.257812 80.046875 C 25.433594 79.273438 25.195312 79.191406 24.972656 79.253906 M 38.097656 79.703125 C 37.953125 79.761719 37.925781 80.066406 38.054688 80.171875 C 38.179688 80.269531 42.480469 81.9375 43.929688 82.445312 C 45.992188 83.171875 46.199219 83.210938 46.257812 82.914062 C 46.300781 82.679688 46.253906 82.59375 46.046875 82.539062 C 45.496094 82.386719 43.207031 81.527344 39.210938 79.96875 C 38.496094 79.691406 38.253906 79.632812 38.097656 79.703125 M 87.253906 81.339844 C 86.90625 81.492188 84.148438 82.046875 76.226562 83.570312 C 65.714844 85.585938 60.957031 86.828125 55.679688 88.925781 C 54.519531 89.386719 54.0625 89.546875 53.484375 89.699219 C 52.878906 89.851562 52.859375 89.863281 52.828125 89.992188 C 52.6875 90.640625 53.355469 90.53125 56.074219 89.457031 C 61.5 87.320312 65.914062 86.183594 77.316406 84 C 78 83.867188 78.640625 83.746094 78.738281 83.722656 C 78.835938 83.703125 79.390625 83.597656 79.96875 83.488281 C 80.542969 83.378906 81.097656 83.269531 81.195312 83.25 C 81.292969 83.230469 82.066406 83.078125 82.917969 82.914062 C 86.460938 82.226562 87.695312 81.910156 87.746094 81.679688 C 87.820312 81.332031 87.609375 81.1875 87.253906 81.339844 M 38.671875 82.722656 C 38.488281 82.777344 38.542969 83.171875 38.75 83.269531 C 39.175781 83.472656 42.667969 85.011719 43.46875 85.347656 C 43.980469 85.5625 44.644531 85.84375 44.949219 85.972656 C 45.25 86.101562 45.535156 86.207031 45.582031 86.207031 C 45.828125 86.203125 45.910156 86.09375 45.859375 85.835938 C 45.835938 85.707031 45.816406 85.699219 44.820312 85.257812 C 44.261719 85.011719 42.742188 84.34375 41.449219 83.769531 C 39.121094 82.738281 38.898438 82.65625 38.671875 82.722656 M 62.3125 83.726562 C 61.214844 83.796875 59.503906 84.140625 57.75 84.648438 C 55.351562 85.339844 51.4375 86.949219 51.367188 87.265625 C 51.324219 87.449219 51.375 87.613281 51.476562 87.640625 C 51.667969 87.691406 51.796875 87.652344 52.46875 87.328125 C 53.410156 86.878906 55.023438 86.222656 56.371094 85.746094 C 58.234375 85.085938 61.128906 84.398438 62.554688 84.277344 C 63.101562 84.230469 63.128906 84.222656 63.160156 84.089844 C 63.21875 83.855469 63.101562 83.675781 62.898438 83.691406 C 62.847656 83.691406 62.582031 83.710938 62.3125 83.726562 M 115.921875 84.074219 C 117.132812 84.699219 117.320312 84.773438 120.40625 85.9375 C 122.09375 86.570312 122.945312 87.132812 123.3125 87.859375 C 123.378906 87.988281 124.082031 89.910156 124.179688 90.226562 C 124.542969 91.398438 124.839844 95.507812 124.609375 96.160156 C 124.417969 96.707031 123.714844 97.152344 121.949219 97.84375 C 118.222656 99.300781 114.402344 100.230469 107.421875 101.378906 C 99.863281 102.621094 99.15625 102.742188 96.433594 103.277344 C 92.964844 103.957031 89.449219 104.773438 84.679688 106.003906 C 84.296875 106.105469 83.683594 106.261719 83.3125 106.359375 C 82.941406 106.453125 82.042969 106.6875 81.3125 106.875 C 78.054688 107.71875 73.363281 108.867188 73.175781 108.867188 C 73.160156 108.867188 73.203125 108.800781 73.269531 108.71875 C 74.667969 106.957031 75.472656 103.285156 74.976562 100.914062 C 74.199219 97.175781 70.164062 94.921875 61.082031 93.148438 C 60.636719 93.058594 60.191406 92.972656 60.09375 92.953125 C 59.851562 92.90625 59.539062 92.964844 64.507812 92.136719 C 68.855469 91.414062 73.753906 90.597656 80.816406 89.417969 C 82.820312 89.082031 86.277344 88.507812 88.496094 88.136719 C 90.71875 87.765625 94.015625 87.21875 95.820312 86.914062 C 97.628906 86.613281 101.621094 85.949219 104.6875 85.4375 C 107.757812 84.925781 111.359375 84.324219 112.6875 84.097656 C 114.015625 83.875 115.113281 83.691406 115.132812 83.6875 C 115.148438 83.6875 115.503906 83.859375 115.921875 84.074219 M 118.59375 87.351562 C 117.863281 87.414062 113.65625 88.136719 110.191406 88.792969 C 109.5625 88.910156 108.804688 89.054688 108.507812 89.109375 C 102.550781 90.230469 92.570312 92.410156 84.679688 94.308594 C 79.054688 95.664062 73.890625 96.957031 73.457031 97.121094 C 73.34375 97.164062 73.296875 97.339844 73.351562 97.488281 C 73.441406 97.722656 73.171875 97.78125 78.878906 96.375 C 80.445312 95.988281 81.996094 95.605469 82.324219 95.527344 C 82.648438 95.449219 83.28125 95.296875 83.726562 95.1875 C 84.859375 94.910156 86.394531 94.542969 87.183594 94.363281 C 87.546875 94.277344 88.152344 94.136719 88.527344 94.046875 C 97.683594 91.910156 106.25 90.117188 113.378906 88.847656 C 117.925781 88.039062 118.578125 87.941406 119.359375 87.941406 C 119.914062 87.941406 120.089844 87.886719 120.128906 87.707031 C 120.210938 87.324219 119.84375 87.242188 118.59375 87.351562 M 33.492188 88.730469 C 34.066406 88.75 34.820312 88.785156 35.164062 88.808594 L 35.789062 88.847656 L 40.824219 90.851562 C 43.597656 91.957031 46.71875 93.199219 47.761719 93.617188 C 48.808594 94.03125 49.699219 94.382812 49.742188 94.394531 C 49.785156 94.40625 49.832031 94.433594 49.84375 94.453125 C 49.914062 94.554688 50.28125 94.511719 52.5625 94.128906 L 54.949219 93.730469 L 55.808594 93.933594 C 58.390625 94.539062 59.484375 94.851562 63.320312 96.105469 C 67.863281 97.589844 69.117188 98.105469 70.40625 99.035156 C 72.789062 100.75 73.5625 104.035156 72.09375 106.195312 C 69.976562 109.324219 68.285156 109.742188 62.351562 108.605469 C 57.925781 107.761719 54.84375 106.875 46.554688 104.078125 C 39.621094 101.734375 31.699219 99.652344 26.355469 98.773438 C 26 98.714844 26.007812 98.742188 26.1875 98.285156 C 27.273438 95.53125 27.667969 91.882812 27.15625 89.269531 C 27.113281 89.050781 27.082031 88.867188 27.089844 88.863281 C 27.214844 88.738281 31.421875 88.652344 33.492188 88.730469 M 32.179688 91.039062 C 32.078125 91.066406 32.007812 91.277344 32.050781 91.402344 C 32.117188 91.585938 32.136719 91.59375 33.945312 91.84375 C 37.128906 92.28125 40.105469 92.980469 43.375 94.054688 C 44.710938 94.492188 44.824219 94.507812 44.871094 94.285156 C 44.933594 94.015625 44.886719 93.960938 44.445312 93.796875 C 41.085938 92.550781 37.839844 91.753906 33.808594 91.191406 C 32.820312 91.050781 32.296875 91.003906 32.179688 91.039062 M 29.6875 94.152344 C 29.539062 94.195312 29.492188 94.464844 29.605469 94.605469 C 29.679688 94.695312 29.691406 94.695312 31.042969 94.742188 C 35.765625 94.90625 39.25 95.558594 43.378906 97.050781 C 44.261719 97.371094 44.390625 97.382812 44.433594 97.144531 C 44.492188 96.832031 44.414062 96.78125 43.214844 96.347656 C 39.839844 95.125 37.003906 94.523438 33.15625 94.222656 C 32.394531 94.164062 29.816406 94.109375 29.6875 94.152344 M 55.140625 96.480469 C 55.058594 96.5 55.015625 96.65625 55.046875 96.824219 C 55.078125 96.980469 55.125 97 56.117188 97.222656 C 57.207031 97.472656 59.890625 98.164062 61.007812 98.484375 C 62.722656 98.976562 65.234375 99.863281 66.539062 100.4375 C 67.082031 100.675781 67.246094 100.679688 67.3125 100.441406 C 67.394531 100.164062 67.183594 100.023438 65.867188 99.496094 C 63.613281 98.585938 61.75 97.992188 58.648438 97.199219 C 58.125 97.066406 57.53125 96.914062 57.324219 96.863281 C 56.105469 96.546875 55.371094 96.417969 55.140625 96.480469 M 37.582031 97.503906 C 37.515625 97.554688 37.480469 97.703125 37.507812 97.832031 C 37.546875 98.007812 37.304688 97.925781 40.753906 98.917969 C 43.925781 99.828125 44.390625 99.960938 45.425781 100.242188 C 55.453125 102.972656 62.65625 105.21875 66.804688 106.914062 C 67.417969 107.164062 67.542969 107.195312 67.722656 107.148438 C 67.820312 107.121094 67.871094 106.960938 67.832031 106.800781 C 67.796875 106.671875 67.734375 106.640625 66.289062 106.050781 C 62.644531 104.5625 55.316406 102.28125 46.375 99.847656 C 44.675781 99.382812 44.035156 99.207031 43.585938 99.074219 C 43.335938 99 42.722656 98.820312 42.21875 98.679688 C 41.71875 98.535156 40.597656 98.210938 39.726562 97.964844 C 38.207031 97.527344 37.703125 97.417969 37.582031 97.503906 M 50.785156 98.65625 C 50.628906 98.753906 50.652344 99.09375 50.824219 99.171875 C 50.882812 99.199219 51.457031 99.351562 52.105469 99.511719 C 56.179688 100.519531 59.40625 101.5625 62.027344 102.714844 C 62.425781 102.890625 62.457031 102.898438 62.605469 102.832031 C 62.867188 102.710938 62.777344 102.398438 62.433594 102.242188 C 60.890625 101.535156 58.375 100.589844 56.90625 100.164062 C 54.402344 99.433594 54.367188 99.425781 52.550781 98.976562 C 51.242188 98.652344 50.894531 98.589844 50.785156 98.65625 " fill-opacity="1" fill-rule="evenodd"/></g><g fill="#5271ff" fill-opacity="1"><g transform="translate(28.991734, 27.023649)"><g><path d="M 8.703125 -12.117188 C 8.761719 -12.058594 8.863281 -12.058594 8.921875 -12.117188 C 9.515625 -12.75 9.789062 -13.699219 9.59375 -14.390625 C 9.59375 -14.410156 9.574219 -14.429688 9.574219 -14.449219 C 9.574219 -14.46875 9.554688 -14.507812 9.554688 -14.527344 C 9.375 -14.980469 8.980469 -15.257812 8.46875 -15.296875 C 7.738281 -15.355469 6.375 -14.824219 5.25 -14.054688 C 4.441406 -13.5 3.058594 -12.316406 2.921875 -10.835938 C 2.882812 -10.34375 3.019531 -9.929688 3.335938 -9.59375 C 3.652344 -9.257812 4.085938 -9.058594 4.5 -8.941406 C 3.632812 -8.644531 2.941406 -7.992188 2.308594 -7.382812 L 2.191406 -7.285156 C 0.988281 -6.117188 0.117188 -4.5 0.0195312 -3.21875 C -0.0585938 -2.03125 0.15625 -1.144531 0.671875 -0.59375 C 1.125 -0.0976562 1.816406 0.136719 2.742188 0.136719 C 4.402344 0.136719 6.433594 -1.164062 8.980469 -3.847656 C 9.039062 -3.90625 9.019531 -4.007812 8.960938 -4.046875 C 8.921875 -4.105469 8.824219 -4.105469 8.761719 -4.046875 C 6.394531 -1.539062 4.421875 -0.238281 2.902344 -0.15625 C 2.902344 -0.15625 2.429688 -0.199219 2.054688 -0.671875 C 1.617188 -1.222656 1.460938 -2.054688 1.578125 -3.179688 C 1.777344 -4.796875 2.722656 -6.117188 3.492188 -6.949219 C 4.382812 -7.914062 5.386719 -8.585938 5.921875 -8.761719 L 5.941406 -8.761719 L 5.941406 -8.785156 L 5.960938 -8.785156 C 5.960938 -8.804688 5.980469 -8.804688 5.980469 -8.804688 C 5.980469 -8.824219 6 -8.824219 6 -8.824219 L 6 -8.863281 C 6 -8.863281 6.019531 -8.863281 6.019531 -8.882812 L 6.019531 -8.921875 L 6 -8.941406 L 6 -8.960938 C 6 -8.980469 6 -8.980469 5.980469 -8.980469 L 5.980469 -9 C 5.960938 -9 5.960938 -9 5.960938 -9.019531 L 5.941406 -9.019531 L 5.921875 -9.039062 L 5.902344 -9.039062 C 5.683594 -9.078125 5.488281 -9.097656 5.289062 -9.078125 C 5.113281 -9.097656 4.894531 -9.140625 4.679688 -9.199219 C 4.34375 -9.316406 4.125 -9.535156 4.066406 -9.828125 C 3.929688 -10.441406 4.402344 -11.367188 5.429688 -12.433594 C 6.929688 -13.972656 8.566406 -14.605469 9.117188 -14.46875 C 9.238281 -14.429688 9.277344 -14.390625 9.296875 -14.328125 C 9.472656 -13.738281 9.238281 -12.890625 8.703125 -12.316406 C 8.644531 -12.257812 8.644531 -12.179688 8.703125 -12.117188 Z M 8.703125 -12.117188 "/></g></g></g><g fill="#5271ff" fill-opacity="1"><g transform="translate(37.674778, 27.023649)"><g><path d="M 5.902344 -1.914062 C 6.355469 -2.902344 6.652344 -3.90625 6.652344 -3.90625 C 6.671875 -3.988281 6.632812 -4.066406 6.554688 -4.085938 C 6.472656 -4.105469 6.394531 -4.066406 6.375 -3.988281 C 6.199219 -3.394531 5.804688 -2.269531 5.308594 -1.382812 C 5.25 -1.324219 4.972656 -0.949219 4.636719 -0.949219 C 3.710938 -0.949219 2.863281 -1.539062 2.25 -2.605469 L 2.191406 -2.722656 C 3.53125 -5.152344 4.164062 -7.285156 4.164062 -7.304688 C 4.183594 -7.382812 4.144531 -7.460938 4.066406 -7.480469 C 3.988281 -7.519531 3.90625 -7.460938 3.886719 -7.382812 C 3.886719 -7.363281 3.296875 -5.347656 2.03125 -3.019531 C 1.539062 -4.027344 1.261719 -5.328125 1.242188 -6.710938 C 1.242188 -6.867188 1.164062 -7.007812 1.027344 -7.105469 C 0.867188 -7.183594 0.691406 -7.183594 0.550781 -7.085938 L 0.15625 -6.867188 C -0.257812 -6.613281 -0.492188 -6.160156 -0.414062 -5.664062 C -0.277344 -4.816406 0.078125 -3.179688 0.925781 -1.816406 C 1.007812 -1.71875 1.066406 -1.617188 1.125 -1.519531 C 0.550781 -0.613281 -0.136719 0.277344 -0.925781 1.085938 C -0.988281 1.144531 -0.988281 1.242188 -0.925781 1.300781 C -0.886719 1.324219 -0.867188 1.34375 -0.828125 1.34375 C -0.789062 1.34375 -0.75 1.324219 -0.710938 1.28125 C 0.0585938 0.492188 0.730469 -0.394531 1.324219 -1.28125 C 2.074219 -0.335938 2.980469 0.136719 3.96875 0.136719 C 4.617188 0.136719 5.269531 -0.550781 5.902344 -1.914062 Z M 5.902344 -1.914062 "/></g></g></g><g fill="#5271ff" fill-opacity="1"><g transform="translate(44.029186, 27.023649)"><g><path d="M 9.691406 -4.046875 C 8.210938 -2.546875 6.375 -2.507812 4.597656 -2.46875 C 4.34375 -2.46875 4.085938 -2.449219 3.828125 -2.449219 C 5.25 -6.078125 6.535156 -12.140625 6.988281 -14.289062 C 7.007812 -14.390625 6.949219 -14.507812 6.808594 -14.625 C 6.59375 -14.804688 6.019531 -15.121094 5.742188 -15.019531 C 5.664062 -15 5.605469 -14.921875 5.585938 -14.84375 C 4.539062 -9.140625 3.21875 -4.539062 2.308594 -2.269531 C 1.402344 -2.054688 0.632812 -1.617188 0.117188 -0.632812 C 0.0195312 -0.453125 -0.0195312 -0.257812 0 -0.078125 L 0 -0.0195312 C 0 -0.0195312 0 0 0.0195312 0.0195312 C 0.0585938 0.277344 0.199219 0.492188 0.433594 0.632812 C 0.59375 0.75 0.808594 0.808594 1.046875 0.808594 C 1.519531 0.808594 2.09375 0.550781 2.625 -0.117188 C 2.980469 -0.550781 3.355469 -1.261719 3.710938 -2.152344 C 3.988281 -2.152344 4.304688 -2.171875 4.597656 -2.171875 C 6.355469 -2.210938 8.328125 -2.25 9.890625 -3.847656 C 9.949219 -3.90625 9.949219 -4.007812 9.890625 -4.046875 C 9.828125 -4.105469 9.730469 -4.105469 9.691406 -4.046875 Z M 1.675781 -0.949219 C 1.105469 -0.117188 0.613281 0.136719 0.433594 0.0976562 C 0.394531 0.0976562 0.335938 0.078125 0.296875 -0.0390625 C 0.277344 -0.199219 0.296875 -0.355469 0.375 -0.492188 C 0.808594 -1.324219 1.421875 -1.71875 2.171875 -1.933594 C 1.992188 -1.480469 1.816406 -1.164062 1.675781 -0.949219 Z M 1.675781 -0.949219 "/></g></g></g><g fill="#5271ff" fill-opacity="1"><g transform="translate(53.620005, 27.023649)"><g><path d="M 0.492188 -0.472656 C 0.59375 -0.453125 0.691406 -0.433594 0.789062 -0.433594 C 1.382812 -0.433594 2.03125 -0.949219 2.761719 -1.992188 C 3.375 -2.882812 3.828125 -3.828125 3.828125 -3.828125 C 3.867188 -3.90625 3.828125 -3.988281 3.75 -4.027344 C 3.691406 -4.066406 3.59375 -4.027344 3.574219 -3.96875 C 3.21875 -3.199219 2.289062 -1.558594 1.421875 -0.949219 L 1.402344 -0.949219 C 1.324219 -0.886719 1.300781 -0.90625 1.28125 -0.925781 C 1.144531 -1.007812 0.96875 -1.460938 1.046875 -2.386719 C 1.164062 -3.574219 1.65625 -5.054688 2.074219 -6.039062 C 2.210938 -6.355469 2.09375 -6.730469 1.796875 -6.929688 L 1.480469 -7.125 C 1.363281 -7.203125 1.242188 -7.203125 1.125 -7.183594 C 1.007812 -7.144531 0.90625 -7.046875 0.867188 -6.929688 C 0.414062 -5.882812 -0.652344 -2.347656 -0.0390625 -0.988281 C 0.078125 -0.730469 0.257812 -0.550781 0.492188 -0.472656 Z M 2.132812 -7.636719 C 2.230469 -7.597656 2.308594 -7.597656 2.386719 -7.597656 C 2.546875 -7.597656 2.742188 -7.699219 2.804688 -7.816406 L 3.257812 -8.585938 C 3.375 -8.84375 3.394531 -9.058594 3.335938 -9.296875 C 3.238281 -9.535156 3.039062 -9.730469 2.804688 -9.847656 L 2.742188 -9.867188 C 2.488281 -9.988281 2.210938 -9.890625 2.09375 -9.671875 L 1.597656 -8.605469 C 1.460938 -8.289062 1.578125 -7.933594 1.894531 -7.777344 Z M 2.132812 -7.636719 "/></g></g></g><g fill="#5271ff" fill-opacity="1"><g transform="translate(57.172161, 27.023649)"><g><path d="M 9 -4.066406 C 8.941406 -4.125 8.84375 -4.105469 8.804688 -4.027344 C 7.875 -2.644531 6.535156 -1.617188 5.25 -0.949219 C 5.941406 -1.71875 6.472656 -2.742188 6.671875 -3.179688 C 7.777344 -5.566406 7.796875 -7.027344 6.710938 -7.660156 C 6.453125 -7.796875 6.136719 -7.816406 5.761719 -7.679688 C 5.507812 -7.578125 5.230469 -7.421875 4.914062 -7.164062 C 4.894531 -7.164062 4.875 -7.144531 4.875 -7.125 C 3.808594 -6.257812 2.449219 -4.402344 1.242188 -1.28125 C 1.222656 -2.132812 1.261719 -3.058594 1.363281 -3.988281 C 1.402344 -3.988281 1.460938 -4.007812 1.5 -4.046875 C 5.902344 -10.222656 6.160156 -13.222656 5.960938 -14.410156 L 5.960938 -14.429688 L 5.902344 -14.683594 C 5.804688 -15.058594 5.605469 -15.355469 5.367188 -15.453125 C 4.835938 -15.671875 4.460938 -15.515625 4.046875 -15.179688 C 3.394531 -14.664062 1.71875 -12.828125 0.453125 -6.96875 C -0.355469 -3.238281 -0.117188 -0.296875 0.0195312 0.808594 C 0.078125 1.203125 0.316406 1.539062 0.652344 1.71875 L 1.125 1.953125 C 1.183594 1.972656 1.222656 1.992188 1.28125 1.992188 C 1.363281 1.992188 1.421875 1.972656 1.480469 1.914062 C 1.597656 1.835938 1.636719 1.699219 1.597656 1.578125 C 1.441406 1.046875 1.34375 0.316406 1.28125 -0.53125 C 2.46875 -3.847656 3.929688 -5.980469 5.074219 -6.929688 C 5.308594 -7.046875 5.902344 -7.285156 6.179688 -7.027344 C 6.433594 -6.769531 6.355469 -5.722656 5.347656 -3.53125 C 4.539062 -1.796875 3.730469 -0.671875 3.136719 -0.574219 C 2.980469 -0.53125 2.84375 -0.59375 2.703125 -0.710938 C 2.585938 -0.808594 2.507812 -0.949219 2.40625 -1.085938 C 2.347656 -1.144531 2.269531 -1.164062 2.191406 -1.125 C 2.132812 -1.085938 2.113281 -0.988281 2.152344 -0.925781 C 2.269531 -0.769531 2.367188 -0.632812 2.488281 -0.511719 C 2.644531 -0.335938 2.824219 -0.21875 3 -0.136719 C 3.179688 -0.0390625 3.375 0 3.574219 0 L 3.671875 0 L 3.847656 -0.0390625 L 3.867188 -0.0390625 C 4.027344 -0.078125 4.183594 -0.136719 4.324219 -0.21875 C 5.902344 -0.828125 7.835938 -2.054688 9.039062 -3.867188 C 9.078125 -3.929688 9.058594 -4.027344 9 -4.066406 Z M 1.796875 -6.554688 C 2.09375 -7.757812 2.742188 -9.890625 3.394531 -11.644531 C 4.558594 -14.664062 5.113281 -14.863281 5.230469 -14.863281 L 5.25 -14.863281 C 5.546875 -14.824219 5.664062 -14.449219 5.664062 -14.371094 C 5.761719 -13.855469 5.761719 -12.847656 5.191406 -11.230469 C 4.519531 -9.316406 3.238281 -7.027344 1.421875 -4.441406 C 1.5 -5.152344 1.636719 -5.863281 1.796875 -6.554688 Z M 1.796875 -6.554688 "/></g></g></g><g fill="#5271ff" fill-opacity="1"><g transform="translate(65.934141, 27.023649)"><g><path d="M 6.296875 -4.085938 C 6.21875 -4.125 6.136719 -4.085938 6.097656 -4.007812 C 5.308594 -2.367188 4.363281 -1.144531 3.59375 -0.492188 C 3.453125 -0.414062 3.296875 -0.335938 3.179688 -0.375 C 3.15625 -0.375 3.117188 -0.394531 3.078125 -0.472656 C 2.84375 -0.988281 3.199219 -2.664062 3.671875 -3.886719 C 3.730469 -4.046875 3.691406 -4.222656 3.574219 -4.324219 C 3.453125 -4.441406 3.277344 -4.480469 3.136719 -4.421875 C 2.625 -4.203125 1.894531 -3.949219 1.363281 -3.96875 C 1.125 -3.96875 0.988281 -4.027344 0.925781 -4.125 C 0.769531 -4.382812 1.046875 -5.054688 1.261719 -5.527344 C 1.421875 -5.863281 1.34375 -6.257812 1.046875 -6.492188 L 0.867188 -6.652344 C 0.75 -6.769531 0.574219 -6.808594 0.414062 -6.769531 C 0.257812 -6.730469 0.117188 -6.632812 0.0585938 -6.472656 C -0.511719 -5.25 -0.671875 -4.539062 -0.078125 -3.929688 C 0.414062 -3.414062 1.578125 -3.53125 2.09375 -3.613281 C 1.578125 -2.328125 1.324219 -0.769531 1.796875 -0.0390625 C 1.972656 0.199219 2.210938 0.335938 2.507812 0.335938 L 2.527344 0.335938 C 2.902344 0.335938 3.355469 0.0976562 3.828125 -0.316406 C 3.886719 -0.355469 3.90625 -0.394531 3.929688 -0.414062 C 4.757812 -1.144531 5.644531 -2.386719 6.355469 -3.886719 C 6.394531 -3.96875 6.375 -4.046875 6.296875 -4.085938 Z M 6.296875 -4.085938 "/></g></g></g><g fill="#5271ff" fill-opacity="1"><g transform="translate(72.012272, 27.023649)"><g><path d="M 0.492188 -0.472656 C 0.59375 -0.453125 0.691406 -0.433594 0.789062 -0.433594 C 1.382812 -0.433594 2.03125 -0.949219 2.761719 -1.992188 C 3.375 -2.882812 3.828125 -3.828125 3.828125 -3.828125 C 3.867188 -3.90625 3.828125 -3.988281 3.75 -4.027344 C 3.691406 -4.066406 3.59375 -4.027344 3.574219 -3.96875 C 3.21875 -3.199219 2.289062 -1.558594 1.421875 -0.949219 L 1.402344 -0.949219 C 1.324219 -0.886719 1.300781 -0.90625 1.28125 -0.925781 C 1.144531 -1.007812 0.96875 -1.460938 1.046875 -2.386719 C 1.164062 -3.574219 1.65625 -5.054688 2.074219 -6.039062 C 2.210938 -6.355469 2.09375 -6.730469 1.796875 -6.929688 L 1.480469 -7.125 C 1.363281 -7.203125 1.242188 -7.203125 1.125 -7.183594 C 1.007812 -7.144531 0.90625 -7.046875 0.867188 -6.929688 C 0.414062 -5.882812 -0.652344 -2.347656 -0.0390625 -0.988281 C 0.078125 -0.730469 0.257812 -0.550781 0.492188 -0.472656 Z M 2.132812 -7.636719 C 2.230469 -7.597656 2.308594 -7.597656 2.386719 -7.597656 C 2.546875 -7.597656 2.742188 -7.699219 2.804688 -7.816406 L 3.257812 -8.585938 C 3.375 -8.84375 3.394531 -9.058594 3.335938 -9.296875 C 3.238281 -9.535156 3.039062 -9.730469 2.804688 -9.847656 L 2.742188 -9.867188 C 2.488281 -9.988281 2.210938 -9.890625 2.09375 -9.671875 L 1.597656 -8.605469 C 1.460938 -8.289062 1.578125 -7.933594 1.894531 -7.777344 Z M 2.132812 -7.636719 "/></g></g></g><g fill="#5271ff" fill-opacity="1"><g transform="translate(75.564428, 27.023649)"><g><path d="M 5.03125 -4.066406 C 4.972656 -4.105469 4.875 -4.105469 4.835938 -4.046875 C 4.816406 -4.027344 4.164062 -3.199219 2.488281 -2.367188 C 2.269531 -3.078125 1.894531 -3.632812 1.558594 -4.144531 C 1.183594 -4.699219 0.867188 -5.171875 0.828125 -5.722656 C 0.789062 -6.59375 1.34375 -7.460938 1.894531 -7.757812 C 1.992188 -7.816406 2.191406 -7.894531 2.328125 -7.796875 C 2.40625 -7.738281 2.488281 -7.679688 2.527344 -7.597656 C 2.761719 -7.261719 2.824219 -6.730469 2.664062 -6.335938 C 2.625 -6.257812 2.664062 -6.179688 2.722656 -6.136719 C 2.804688 -6.117188 2.882812 -6.136719 2.921875 -6.21875 C 3.136719 -6.691406 3.058594 -7.34375 2.761719 -7.777344 C 2.703125 -7.875 2.605469 -7.953125 2.527344 -8.035156 L 2.507812 -8.035156 L 2.507812 -8.054688 C 2.269531 -8.230469 1.972656 -8.308594 1.636719 -8.289062 C 1.046875 -8.25 0.472656 -7.933594 0.0585938 -7.402344 C -0.433594 -6.769531 -0.613281 -5.960938 -0.472656 -5.113281 C -0.335938 -4.421875 0.0195312 -3.886719 0.394531 -3.375 C 0.710938 -2.921875 1.046875 -2.429688 1.222656 -1.816406 C 0.15625 -1.402344 -0.550781 -0.652344 -0.691406 0.21875 C -0.769531 0.671875 -0.652344 1.085938 -0.394531 1.300781 C -0.277344 1.402344 -0.136719 1.460938 0.0390625 1.5 C 0.199219 1.558594 0.375 1.578125 0.550781 1.578125 C 0.949219 1.578125 1.382812 1.441406 1.738281 1.183594 C 2.191406 0.828125 2.722656 0.117188 2.664062 -1.324219 C 2.644531 -1.597656 2.625 -1.835938 2.566406 -2.074219 C 4.34375 -2.960938 5.03125 -3.808594 5.054688 -3.867188 C 5.113281 -3.929688 5.09375 -4.007812 5.03125 -4.066406 Z M 0.613281 1.164062 C 0.316406 1.324219 -0.0195312 1.222656 -0.199219 1.085938 C -0.375 0.925781 -0.453125 0.613281 -0.394531 0.257812 C -0.355469 -0.0195312 -0.0976562 -0.96875 1.28125 -1.519531 C 1.324219 -1.363281 1.34375 -1.203125 1.34375 -1.027344 C 1.402344 0.53125 0.925781 1.007812 0.613281 1.164062 Z M 0.613281 1.164062 "/></g></g></g><g clip-path="url(#526acbf9cc)"><g clip-path="url(#934f7cb4fe)"><path fill="#8c52ff" d="M 27.683594 28.476562 L 57.632812 28.476562 L 57.632812 32.636719 L 27.683594 32.636719 Z M 27.683594 28.476562 " fill-opacity="1" fill-rule="nonzero"/></g></g><g clip-path="url(#0c216405fb)"><g clip-path="url(#02b4b96496)"><path fill="#8c52ff" d="M 58.464844 27.105469 L 77.597656 27.105469 L 77.597656 31.679688 L 58.464844 31.679688 Z M 58.464844 27.105469 " fill-opacity="1" fill-rule="nonzero"/></g></g><g clip-path="url(#4abd86a9db)"><g clip-path="url(#8ed3ca3a32)"><path fill="#8c52ff" d="M 76.515625 22.609375 L 84.835938 22.609375 L 84.835938 30.097656 L 76.515625 30.097656 Z M 76.515625 22.609375 " fill-opacity="1" fill-rule="nonzero"/></g></g><g clip-path="url(#9b1993f792)"><g clip-path="url(#288bbb8379)"><path fill="#8c52ff" d="M 76.640625 24.484375 L 84.128906 24.484375 L 84.128906 29.890625 L 76.640625 29.890625 Z M 76.640625 24.484375 " fill-opacity="1" fill-rule="nonzero"/></g></g><g clip-path="url(#145e53c897)"><g clip-path="url(#a02972dc38)"><path fill="#8c52ff" d="M 76.597656 22.570312 L 84.085938 22.570312 L 84.085938 29.640625 L 76.597656 29.640625 Z M 76.597656 22.570312 " fill-opacity="1" fill-rule="nonzero"/></g></g><g clip-path="url(#6bda35c15f)"><g clip-path="url(#5a206f0350)"><path fill="#8c52ff" d="M 76.765625 23.941406 L 83.835938 23.941406 L 83.835938 29.351562 L 76.765625 29.351562 Z M 76.765625 23.941406 " fill-opacity="1" fill-rule="nonzero"/></g></g><g clip-path="url(#3598590d5b)"><g clip-path="url(#28ecb1e7eb)"><path fill="#8c52ff" d="M 20.738281 28.726562 L 58.171875 28.726562 L 58.171875 32.46875 L 20.738281 32.46875 Z M 20.738281 28.726562 " fill-opacity="1" fill-rule="nonzero"/></g></g><g clip-path="url(#f68539c935)"><g clip-path="url(#49459e65d9)"><path fill="#8c52ff" d="M 58.589844 27.8125 L 76.890625 27.8125 L 76.890625 31.96875 L 58.589844 31.96875 Z M 58.589844 27.8125 " fill-opacity="1" fill-rule="nonzero"/></g></g><g clip-path="url(#2c2f15d65e)"><g clip-path="url(#056669e9e2)"><path fill="#8c52ff" d="M 27.808594 28.683594 L 56.507812 28.683594 L 56.507812 32.84375 L 27.808594 32.84375 Z M 27.808594 28.683594 " fill-opacity="1" fill-rule="nonzero"/></g></g><g clip-path="url(#ed5d056dfe)"><g clip-path="url(#2a203243a3)"><path fill="#8c52ff" d="M 58.214844 27.5625 L 79.429688 27.5625 L 79.429688 32.136719 L 58.214844 32.136719 Z M 58.214844 27.5625 " fill-opacity="1" fill-rule="nonzero"/></g></g><g clip-path="url(#17add2b45f)"><g clip-path="url(#360247ca28)"><path fill="#8c52ff" d="M 56.675781 27.933594 L 75.808594 27.933594 L 75.808594 32.511719 L 56.675781 32.511719 Z M 56.675781 27.933594 " fill-opacity="1" fill-rule="nonzero"/></g></g><g clip-path="url(#f9be63e856)"><g clip-path="url(#551a4d4633)"><path fill="#8c52ff" d="M 76.765625 23.070312 L 85.085938 23.070312 L 85.085938 29.722656 L 76.765625 29.722656 Z M 76.765625 23.070312 " fill-opacity="1" fill-rule="nonzero"/></g></g><g clip-path="url(#1f0d6d5eb6)"><g clip-path="url(#d0fdb4ae80)"><path fill="#8c52ff" d="M 76.722656 24.398438 L 82.964844 24.398438 L 82.964844 29.808594 L 76.722656 29.808594 Z M 76.722656 24.398438 " fill-opacity="1" fill-rule="nonzero"/></g></g><g clip-path="url(#4781f18b05)"><g clip-path="url(#5198d97fee)"><path fill="#8c52ff" d="M 76.972656 25.605469 L 82.796875 25.605469 L 82.796875 29.765625 L 76.972656 29.765625 Z M 76.972656 25.605469 " fill-opacity="1" fill-rule="nonzero"/></g></g><g clip-path="url(#670d965a22)"><g clip-path="url(#44b7035271)"><path fill="#8c52ff" d="M 76.558594 23.984375 L 84.042969 23.984375 L 84.042969 30.222656 L 76.558594 30.222656 Z M 76.558594 23.984375 " fill-opacity="1" fill-rule="nonzero"/></g></g><g clip-path="url(#0d971b4009)"><g clip-path="url(#8bd9d3d171)"><path fill="#8c52ff" d="M 77.097656 22.820312 L 83.335938 22.820312 L 83.335938 29.890625 L 77.097656 29.890625 Z M 77.097656 22.820312 " fill-opacity="1" fill-rule="nonzero"/></g></g><g clip-path="url(#da752a2844)"><g clip-path="url(#e8ca986912)"><path fill="#8c52ff" d="M 76.972656 23.941406 L 84.042969 23.941406 L 84.042969 29.765625 L 76.972656 29.765625 Z M 76.972656 23.941406 " fill-opacity="1" fill-rule="nonzero"/></g></g><g clip-path="url(#e4a0c0d4eb)"><g clip-path="url(#066c939cc6)"><path fill="#8c52ff" d="M 77.265625 22.570312 L 85.582031 22.570312 L 85.582031 29.640625 L 77.265625 29.640625 Z M 77.265625 22.570312 " fill-opacity="1" fill-rule="nonzero"/></g></g><g clip-path="url(#6f5eddbc42)"><g clip-path="url(#121f086738)"><path fill="#8c52ff" d="M 77.015625 23.859375 L 84.503906 23.859375 L 84.503906 29.683594 L 77.015625 29.683594 Z M 77.015625 23.859375 " fill-opacity="1" fill-rule="nonzero"/></g></g><g clip-path="url(#c1e193cafa)"><g clip-path="url(#036cbe98c7)"><path fill="#8c52ff" d="M 77.097656 24.109375 L 84.167969 24.109375 L 84.167969 29.515625 L 77.097656 29.515625 Z M 77.097656 24.109375 " fill-opacity="1" fill-rule="nonzero"/></g></g><g clip-path="url(#503706d7e0)"><path fill="#8c52ff" d="M 23.132812 7.96875 C 23.125 7.976562 23.101562 8.03125 23.082031 8.085938 C 22.855469 8.742188 22.339844 9.472656 21.59375 10.183594 C 21.0625 10.695312 20.589844 11.082031 19.421875 11.960938 C 18.761719 12.460938 18.574219 12.613281 18.355469 12.839844 C 18.1875 13.011719 18.082031 13.164062 18.03125 13.320312 C 18.015625 13.375 18.011719 13.390625 18.011719 13.484375 C 18.011719 13.570312 18.011719 13.59375 18.027344 13.640625 C 18.097656 13.863281 18.296875 14.058594 18.648438 14.257812 C 18.828125 14.355469 19.105469 14.476562 19.367188 14.566406 C 19.433594 14.589844 19.492188 14.609375 19.496094 14.613281 C 19.5 14.617188 19.492188 14.65625 19.476562 14.703125 C 19.425781 14.859375 19.390625 15.03125 19.367188 15.222656 C 19.351562 15.347656 19.355469 15.78125 19.371094 15.921875 C 19.398438 16.179688 19.4375 16.394531 19.5 16.640625 C 19.65625 17.265625 19.9375 17.925781 20.335938 18.605469 C 20.875 19.53125 21.664062 20.519531 22.714844 21.59375 C 22.789062 21.671875 22.855469 21.742188 22.859375 21.75 C 22.867188 21.769531 22.953125 22.105469 22.953125 22.125 C 22.953125 22.152344 22.371094 22.679688 21.558594 23.386719 C 20.902344 23.960938 20.703125 24.140625 20.414062 24.410156 C 19.855469 24.9375 19.472656 25.386719 19.21875 25.8125 C 18.863281 26.410156 18.730469 27.027344 18.820312 27.648438 C 18.933594 28.417969 19.371094 29.128906 20.054688 29.644531 C 20.183594 29.742188 20.332031 29.835938 20.535156 29.953125 C 20.554688 29.964844 20.566406 29.976562 20.5625 29.980469 C 20.5625 29.984375 20.5 29.996094 20.429688 30.003906 C 19.792969 30.101562 19.1875 30.230469 18.8125 30.355469 C 18.46875 30.464844 18.289062 30.574219 18.222656 30.699219 C 18.203125 30.738281 18.199219 30.75 18.199219 30.808594 C 18.199219 30.867188 18.203125 30.878906 18.222656 30.917969 C 18.265625 31 18.367188 31.082031 18.511719 31.144531 C 19.0625 31.378906 20.546875 31.582031 22.257812 31.648438 C 22.550781 31.660156 23.457031 31.660156 23.71875 31.648438 C 24.726562 31.605469 25.511719 31.5 26.128906 31.332031 C 26.921875 31.117188 27.371094 30.808594 27.488281 30.410156 C 27.496094 30.375 27.507812 30.347656 27.515625 30.34375 C 27.53125 30.335938 27.929688 30.414062 28.757812 30.582031 C 29.515625 30.742188 29.867188 30.808594 30.226562 30.867188 C 31.320312 31.050781 32.226562 31.09375 33.164062 31.011719 C 33.636719 30.96875 34.175781 30.878906 34.765625 30.75 C 35.144531 30.667969 35.386719 30.601562 35.4375 30.566406 C 35.449219 30.5625 35.460938 30.546875 35.46875 30.53125 C 35.476562 30.507812 35.476562 30.503906 35.464844 30.476562 C 35.449219 30.445312 35.40625 30.421875 35.332031 30.40625 C 35.226562 30.382812 35.105469 30.398438 34.636719 30.5 C 33.777344 30.679688 33.34375 30.742188 32.703125 30.777344 C 32.5 30.789062 31.933594 30.789062 31.722656 30.777344 C 30.84375 30.730469 30.242188 30.636719 28.675781 30.304688 C 28.210938 30.207031 27.703125 30.105469 27.574219 30.082031 C 27.539062 30.074219 27.511719 30.066406 27.503906 30.058594 C 27.492188 30.046875 27.476562 30.015625 27.46875 29.984375 C 27.410156 29.824219 27.300781 29.664062 27.109375 29.476562 C 27.058594 29.425781 27.015625 29.378906 27.015625 29.378906 C 27.015625 29.375 27.058594 29.328125 27.109375 29.273438 C 27.160156 29.222656 27.222656 29.152344 27.246094 29.125 C 27.65625 28.621094 27.792969 28.039062 27.660156 27.375 C 27.492188 26.539062 26.882812 25.574219 25.726562 24.328125 C 25.339844 23.910156 24.773438 23.339844 23.945312 22.535156 C 23.660156 22.261719 23.429688 22.03125 23.429688 22.027344 C 23.429688 22.023438 23.578125 21.871094 23.757812 21.691406 C 24.09375 21.351562 24.234375 21.207031 24.46875 20.949219 C 26.035156 19.230469 26.902344 17.714844 27.035156 16.457031 C 27.050781 16.320312 27.050781 16.058594 27.039062 15.933594 C 26.992188 15.476562 26.824219 15.101562 26.523438 14.785156 C 26.488281 14.746094 26.460938 14.714844 26.460938 14.714844 C 26.460938 14.710938 26.5 14.699219 26.546875 14.683594 C 26.945312 14.5625 27.230469 14.421875 27.386719 14.265625 C 27.578125 14.078125 27.601562 13.859375 27.445312 13.652344 C 27.34375 13.515625 27.171875 13.386719 26.914062 13.257812 C 26.011719 12.808594 24.445312 12.574219 23.0625 12.679688 C 22.007812 12.757812 21.121094 13.019531 20.488281 13.433594 C 20.105469 13.683594 19.832031 13.972656 19.636719 14.328125 C 19.597656 14.398438 19.582031 14.417969 19.570312 14.417969 C 19.546875 14.417969 19.296875 14.328125 19.15625 14.273438 C 18.585938 14.050781 18.257812 13.808594 18.195312 13.570312 C 18.148438 13.390625 18.242188 13.191406 18.5 12.933594 C 18.710938 12.726562 18.9375 12.546875 19.628906 12.046875 C 20.222656 11.617188 20.476562 11.425781 20.816406 11.152344 C 21.550781 10.566406 22.070312 10.054688 22.480469 9.503906 C 22.886719 8.96875 23.164062 8.371094 23.167969 8.039062 C 23.171875 7.988281 23.167969 7.972656 23.160156 7.960938 C 23.148438 7.949219 23.144531 7.949219 23.132812 7.96875 Z M 24.292969 12.832031 C 25.480469 12.917969 26.496094 13.183594 27.054688 13.550781 C 27.160156 13.621094 27.28125 13.738281 27.316406 13.808594 C 27.339844 13.851562 27.34375 13.863281 27.34375 13.917969 C 27.34375 14 27.324219 14.035156 27.246094 14.113281 C 27.15625 14.207031 27.015625 14.289062 26.808594 14.371094 C 26.644531 14.4375 26.3125 14.539062 26.261719 14.539062 C 26.25 14.539062 26.214844 14.523438 26.167969 14.492188 C 25.695312 14.1875 25.085938 14.003906 24.300781 13.9375 C 24.113281 13.917969 23.558594 13.917969 23.378906 13.933594 C 22.414062 14.011719 21.65625 14.238281 21.019531 14.644531 C 20.9375 14.695312 20.910156 14.707031 20.890625 14.707031 C 20.851562 14.707031 20.597656 14.664062 20.375 14.621094 C 20.164062 14.578125 19.777344 14.484375 19.757812 14.472656 C 19.75 14.464844 19.75 14.457031 19.78125 14.398438 C 19.914062 14.140625 20.148438 13.875 20.417969 13.671875 C 21.074219 13.179688 22.042969 12.890625 23.257812 12.824219 C 23.441406 12.8125 24.109375 12.816406 24.292969 12.832031 Z M 24.203125 14.109375 C 24.726562 14.140625 25.199219 14.238281 25.597656 14.394531 C 25.699219 14.433594 25.953125 14.558594 25.984375 14.582031 C 25.996094 14.59375 26 14.601562 25.996094 14.601562 C 25.992188 14.609375 25.9375 14.621094 25.757812 14.652344 C 24.695312 14.847656 23.261719 14.914062 21.988281 14.828125 C 21.675781 14.808594 21.1875 14.757812 21.175781 14.75 C 21.160156 14.730469 21.496094 14.5625 21.726562 14.472656 C 22.433594 14.1875 23.339844 14.054688 24.203125 14.109375 Z M 19.738281 14.679688 C 19.914062 14.730469 20.246094 14.808594 20.507812 14.855469 C 20.59375 14.871094 20.667969 14.886719 20.671875 14.890625 C 20.675781 14.894531 20.644531 14.925781 20.601562 14.964844 C 20.429688 15.117188 20.257812 15.328125 20.140625 15.523438 C 19.726562 16.214844 19.726562 17.035156 20.148438 17.742188 C 20.605469 18.511719 21.546875 19.074219 22.695312 19.265625 C 22.769531 19.277344 22.851562 19.289062 22.878906 19.289062 C 22.90625 19.292969 22.9375 19.300781 22.941406 19.300781 C 22.953125 19.308594 22.953125 19.296875 22.902344 19.476562 C 22.75 19.996094 22.707031 20.613281 22.785156 21.25 C 22.789062 21.304688 22.796875 21.355469 22.796875 21.367188 C 22.800781 21.378906 22.800781 21.386719 22.792969 21.386719 C 22.769531 21.386719 22.171875 20.746094 21.867188 20.394531 C 20.480469 18.800781 19.691406 17.273438 19.539062 15.902344 C 19.523438 15.753906 19.519531 15.441406 19.527344 15.304688 C 19.546875 15.078125 19.59375 14.835938 19.652344 14.683594 C 19.664062 14.660156 19.671875 14.660156 19.738281 14.679688 Z M 26.261719 14.78125 C 26.273438 14.789062 26.324219 14.835938 26.371094 14.882812 C 26.644531 15.160156 26.796875 15.484375 26.84375 15.898438 C 26.859375 16.023438 26.855469 16.339844 26.839844 16.472656 C 26.738281 17.195312 26.402344 17.976562 25.8125 18.871094 C 25.394531 19.507812 24.832031 20.207031 24.199219 20.890625 C 23.867188 21.246094 23.273438 21.847656 23.25 21.847656 C 23.246094 21.847656 23.195312 21.796875 23.136719 21.738281 C 23.0625 21.664062 23.027344 21.625 23.019531 21.605469 C 23.007812 21.566406 22.972656 21.320312 22.957031 21.175781 C 22.929688 20.960938 22.921875 20.773438 22.925781 20.546875 C 22.933594 20.257812 22.957031 20.039062 23.007812 19.800781 C 23.046875 19.605469 23.121094 19.347656 23.144531 19.328125 C 23.152344 19.320312 23.164062 19.316406 23.1875 19.320312 C 23.332031 19.335938 23.695312 19.328125 23.914062 19.304688 C 24.617188 19.230469 25.105469 18.980469 25.238281 18.632812 C 25.28125 18.511719 25.277344 18.371094 25.21875 18.261719 C 25.128906 18.078125 24.933594 17.957031 24.667969 17.917969 C 24.582031 17.90625 24.390625 17.914062 24.296875 17.933594 C 24.070312 17.980469 23.828125 18.097656 23.640625 18.257812 C 23.410156 18.449219 23.238281 18.675781 23.089844 18.984375 C 23.054688 19.054688 23.023438 19.113281 23.019531 19.117188 C 23.003906 19.125 22.632812 19.070312 22.453125 19.03125 C 21.832031 18.894531 21.292969 18.648438 20.867188 18.308594 C 20.75 18.214844 20.542969 18.011719 20.457031 17.902344 C 20.117188 17.476562 19.953125 16.992188 19.984375 16.5 C 20 16.234375 20.058594 16.011719 20.179688 15.765625 C 20.289062 15.546875 20.421875 15.363281 20.597656 15.1875 C 20.699219 15.085938 20.859375 14.945312 20.894531 14.933594 C 20.914062 14.925781 20.941406 14.925781 21.074219 14.945312 C 21.710938 15.027344 22.324219 15.0625 23.121094 15.0625 C 24.121094 15.0625 24.964844 15 25.726562 14.867188 C 25.839844 14.847656 26.140625 14.789062 26.199219 14.773438 C 26.234375 14.765625 26.234375 14.765625 26.261719 14.78125 Z M 24.730469 18.125 C 25.027344 18.203125 25.152344 18.429688 25.011719 18.640625 C 24.859375 18.875 24.433594 19.050781 23.882812 19.117188 C 23.636719 19.144531 23.226562 19.148438 23.226562 19.121094 C 23.226562 19.105469 23.324219 18.917969 23.375 18.835938 C 23.476562 18.675781 23.628906 18.496094 23.761719 18.394531 C 23.941406 18.246094 24.140625 18.152344 24.347656 18.113281 C 24.4375 18.097656 24.652344 18.101562 24.730469 18.125 Z M 23.757812 22.632812 C 24.953125 23.808594 25.480469 24.347656 25.957031 24.898438 C 26.910156 25.992188 27.375 26.8125 27.480469 27.574219 C 27.5 27.699219 27.5 27.96875 27.484375 28.085938 C 27.421875 28.488281 27.242188 28.832031 26.933594 29.140625 C 26.878906 29.195312 26.847656 29.21875 26.839844 29.21875 C 26.828125 29.214844 26.59375 29.019531 26.390625 28.839844 C 26.210938 28.679688 26.042969 28.515625 26.042969 28.5 C 26.042969 28.496094 26.050781 28.460938 26.0625 28.425781 C 26.085938 28.339844 26.101562 28.21875 26.101562 28.109375 C 26.101562 27.777344 25.992188 27.40625 25.746094 26.914062 C 25.554688 26.53125 25.367188 26.21875 24.824219 25.382812 C 24.046875 24.183594 23.734375 23.632812 23.445312 22.957031 C 23.34375 22.722656 23.1875 22.300781 23.1875 22.265625 C 23.1875 22.25 23.261719 22.175781 23.277344 22.175781 C 23.285156 22.175781 23.5 22.382812 23.757812 22.632812 Z M 23.085938 22.527344 C 23.261719 23.035156 23.515625 23.570312 23.859375 24.167969 C 24.054688 24.511719 24.234375 24.796875 24.648438 25.445312 C 25.179688 26.273438 25.367188 26.585938 25.554688 26.964844 C 25.789062 27.429688 25.894531 27.757812 25.910156 28.066406 C 25.914062 28.148438 25.902344 28.289062 25.890625 28.324219 L 25.878906 28.34375 L 25.820312 28.28125 C 25.671875 28.125 25.496094 27.917969 25.109375 27.433594 C 24.664062 26.878906 24.523438 26.722656 24.226562 26.421875 C 23.804688 26.003906 23.464844 25.746094 23.207031 25.660156 C 23.125 25.632812 23.007812 25.628906 22.933594 25.648438 C 22.832031 25.679688 22.765625 25.730469 22.625 25.890625 C 22.355469 26.199219 22.230469 26.3125 21.960938 26.496094 C 21.753906 26.632812 21.582031 26.726562 21.070312 26.980469 C 20.578125 27.226562 20.433594 27.304688 20.265625 27.417969 C 19.789062 27.730469 19.617188 28.058594 19.75 28.382812 C 19.8125 28.539062 19.96875 28.695312 20.183594 28.828125 C 20.851562 29.246094 22.214844 29.527344 23.4375 29.5 C 24.507812 29.480469 25.308594 29.28125 25.722656 28.9375 C 25.78125 28.886719 25.851562 28.816406 25.886719 28.769531 C 25.898438 28.757812 25.910156 28.742188 25.914062 28.742188 C 25.917969 28.742188 25.960938 28.78125 26.007812 28.828125 C 26.136719 28.945312 26.28125 29.070312 26.46875 29.234375 C 26.582031 29.328125 26.636719 29.378906 26.632812 29.386719 C 26.632812 29.398438 26.503906 29.488281 26.382812 29.5625 C 26.210938 29.664062 25.917969 29.804688 25.851562 29.820312 C 25.832031 29.824219 25.757812 29.820312 25.625 29.808594 C 24.242188 29.683594 22.675781 29.71875 21.113281 29.910156 C 20.996094 29.925781 20.890625 29.9375 20.875 29.933594 C 20.839844 29.929688 20.652344 29.839844 20.515625 29.761719 C 20 29.464844 19.605469 29.089844 19.332031 28.632812 C 19.160156 28.351562 19.039062 28.027344 18.988281 27.714844 C 18.941406 27.425781 18.949219 27.097656 19.011719 26.816406 C 19.125 26.3125 19.398438 25.828125 19.859375 25.300781 C 20.214844 24.894531 20.597656 24.539062 21.605469 23.667969 C 22.230469 23.125 22.675781 22.730469 22.976562 22.449219 C 23.003906 22.421875 23.027344 22.402344 23.035156 22.40625 C 23.039062 22.40625 23.0625 22.457031 23.085938 22.527344 Z M 23.148438 25.875 C 23.34375 25.945312 23.652344 26.175781 23.984375 26.503906 C 24.273438 26.785156 24.476562 27.023438 24.929688 27.601562 C 25.289062 28.0625 25.433594 28.234375 25.675781 28.492188 C 25.730469 28.550781 25.773438 28.601562 25.773438 28.605469 C 25.773438 28.617188 25.722656 28.679688 25.671875 28.730469 C 25.421875 28.988281 24.941406 29.167969 24.261719 29.257812 C 23.933594 29.304688 23.691406 29.316406 23.273438 29.316406 C 22.910156 29.316406 22.777344 29.3125 22.476562 29.285156 C 21.070312 29.15625 19.976562 28.710938 19.894531 28.238281 C 19.867188 28.078125 19.964844 27.902344 20.171875 27.734375 C 20.355469 27.589844 20.578125 27.464844 21.058594 27.234375 C 22.039062 26.769531 22.34375 26.5625 22.757812 26.085938 C 22.902344 25.917969 22.9375 25.886719 22.996094 25.863281 C 23.03125 25.851562 23.089844 25.855469 23.148438 25.875 Z M 26.929688 29.640625 C 27.046875 29.753906 27.101562 29.820312 27.164062 29.917969 C 27.210938 29.988281 27.214844 30.007812 27.1875 30.007812 C 27.179688 30.007812 27.089844 29.996094 26.992188 29.980469 C 26.894531 29.964844 26.707031 29.9375 26.574219 29.917969 C 26.441406 29.898438 26.324219 29.882812 26.308594 29.878906 L 26.289062 29.871094 L 26.316406 29.855469 C 26.332031 29.84375 26.386719 29.8125 26.433594 29.785156 C 26.519531 29.738281 26.71875 29.609375 26.777344 29.5625 C 26.796875 29.550781 26.8125 29.539062 26.816406 29.539062 C 26.824219 29.539062 26.875 29.585938 26.929688 29.640625 Z M 24.605469 30.023438 C 24.910156 30.035156 25.125 30.046875 25.148438 30.054688 L 25.167969 30.058594 L 25.148438 30.066406 C 25.136719 30.070312 25.042969 30.097656 24.941406 30.121094 C 23.871094 30.394531 22.753906 30.433594 21.816406 30.238281 C 21.617188 30.195312 21.449219 30.152344 21.460938 30.140625 C 21.476562 30.121094 22.40625 30.054688 22.945312 30.03125 C 23.4375 30.007812 24.152344 30.007812 24.605469 30.023438 Z M 26.019531 30.121094 C 26.4375 30.167969 27.191406 30.273438 27.242188 30.292969 C 27.261719 30.304688 27.261719 30.320312 27.238281 30.386719 C 27.140625 30.628906 26.804688 30.859375 26.292969 31.023438 C 25.234375 31.359375 23.382812 31.492188 21.542969 31.363281 C 20.257812 31.269531 18.949219 31.050781 18.570312 30.863281 C 18.464844 30.8125 18.460938 30.796875 18.539062 30.746094 C 18.808594 30.5625 19.71875 30.351562 20.839844 30.207031 C 21.035156 30.179688 21.019531 30.179688 21.175781 30.234375 C 21.6875 30.417969 22.242188 30.519531 22.878906 30.550781 C 23.070312 30.558594 23.484375 30.554688 23.667969 30.542969 C 24.359375 30.492188 25.007812 30.363281 25.621094 30.152344 C 25.785156 30.09375 25.773438 30.097656 26.019531 30.121094 Z M 26.019531 30.121094 " fill-opacity="1" fill-rule="nonzero"/></g></svg>